{
copyright = "Copyright (c) 2022 by Thanos Poulakidas. All rights reserved.";
designer = "Thanos Poulakidas";
familyName = Geom;
customParameters = (
{
name = glyphOrder;
value = (
.notdef,
NULL,
CR,
space,
quotedbl,
numbersign,
dollar,
percent,
ampersand,
quotesingle,
parenleft,
parenright,
asterisk,
plus,
comma,
hyphen,
period,
slash,
zero,
one,
two,
three,
four,
five,
six,
seven,
eight,
nine,
colon,
semicolon,
less,
equal,
greater,
question,
at,
A,
B,
C,
D,
E,
F,
G,
H,
I,
J,
K,
L,
M,
N,
O,
P,
Q,
R,
S,
T,
U,
V,
W,
X,
Y,
Z,
bracketleft,
backslash,
bracketright,
asciicircum,
underscore,
grave,
a,
b,
c,
d,
e,
f,
g,
h,
i,
j,
k,
l,
m,
n,
o,
p,
q,
r,
s,
t,
u,
v,
w,
x,
y,
z,
braceleft,
bar,
braceright,
asciitilde,
Euro,
quotesinglbase,
florin,
quotedblbase,
ellipsis,
dagger,
daggerdbl,
circumflex,
perthousand,
guilsinglleft,
quoteleft,
quoteright,
quotedblleft,
quotedblright,
bullet,
endash,
emdash,
tilde,
trademark,
guilsinglright,
exclamdown,
cent,
sterling,
currency,
yen,
brokenbar,
section,
dieresis,
copyright,
ordfeminine,
guillemotleft,
logicalnot,
registered,
degree,
plusminus,
acute,
paragraph,
cedilla,
ordmasculine,
guillemotright,
onequarter,
onehalf,
threequarters,
questiondown,
germandbls,
divide,
oslash,
fraction,
fi,
fl,
breve,
dotaccent,
ring,
hungarumlaut,
ogonek,
caron,
dotlessi,
greaterequal,
radical,
notequal,
product,
summation,
lessequal,
uni02C9,
lozenge,
minus,
uni2215,
approxequal,
integral,
afii61289,
partialdiff,
Delta,
infinity,
Omega,
uni2219,
estimated,
exclam,
Alpha,
Epsilon,
Eta,
Iota,
Kappa,
Mu,
Nu,
Omicron,
Chi,
Tau,
Rho,
Upsilon,
uni0394,
uni03A9,
Lambda,
Beta,
Zeta,
Pi,
Xi,
Sigma,
Psi,
omicron,
kappa,
nu,
tonos,
Alphatonos,
Epsilontonos,
Etatonos,
Iotatonos,
Omicrontonos,
Upsilontonos,
Gamma,
Theta,
Iotadieresis,
Upsilondieresis,
dieresistonos,
alpha,
rho,
iota,
eta,
gamma,
upsilon,
beta,
pi,
uni03BC,
tau,
Phi,
chi,
sigma,
theta,
lambda,
psi,
epsilon,
delta,
alphatonos,
etatonos,
iotatonos,
omicrontonos,
upsilontonos,

glyphs = (
{
color = (153, 255, 154, 255);
glyphname = .notdef;
layers = (
{
hints = (
{
horizontal = 1;
place = "{0, 57}";
type = Stem;
},
{
horizontal = 1;
place = "{663, 57}";
type = Stem;
},
{
place = "{-8, 69}";
type = Stem;
},
{
place = "{451, 70}";
type = Stem;
}
);
layerId = "5489E6BA-21ED-4BE5-8B01-6EB821105F89";
paths = (
{
closed = 1;
nodes = (
"-8 0 LINE",
"521 0 LINE",
"521 720 LINE",
"-8 720 LINE"
);
},
{
closed = 1;
nodes = (
"257 421 LINE",
"94 663 LINE",
"418 663 LINE"
);
},
{
closed = 1;
nodes = (
"296 360 LINE",
"451 593 LINE",
"451 128 LINE"
);
},
{
closed = 1;
nodes = (
"94 57 LINE",
"257 300 LINE",
"418 57 LINE"
);
},
{
closed = 1;
nodes = (
"62 594 LINE",
"217 360 LINE",
"62 128 LINE"
);
}
);
width = 515;
},
{
hints = (
{
horizontal = 1;
place = "{0, 57}";
type = Stem;
},
{
horizontal = 1;
place = "{663, 57}";
type = Stem;
},
{
place = "{-6, 65}";
type = Stem;
},
{
place = "{454, 65}";
type = Stem;
}
);
layerId = "1038C536-374A-461C-9C15-505D839D4AAF";
paths = (
{
closed = 1;
nodes = (
"-6 0 LINE",
"519 0 LINE",
"519 720 LINE",
"-6 720 LINE"
);
},
{
closed = 1;
nodes = (
"256 419 LINE",
"91 663 LINE",
"421 663 LINE"
);
},
{
closed = 1;
nodes = (
"294 360 LINE",
"454 599 LINE",
"454 123 LINE"
);
},
{
closed = 1;
nodes = (
"91 57 LINE",
"256 303 LINE",
"421 57 LINE"
);
},
{
closed = 1;
nodes = (
"59 600 LINE",
"219 360 LINE",
"59 123 LINE"
);
}
);
width = 515;
}
);
},
{
color = (153, 255, 154, 255);
glyphname = quotedbl;
layers = (
{
hints = (
{
horizontal = 1;
place = "{341, 21}";
target = up;
type = BottomGhost;
},
{
horizontal = 1;
place = "{700, -20}";
target = down;
type = TopGhost;
}
);
layerId = "5489E6BA-21ED-4BE5-8B01-6EB821105F89";
paths = (
{
closed = 1;
nodes = (
"129 341 LINE",
"256 697 LINE",
"256 699 LINE",
"256 700 LINE",
"52 700 LINE",
"30 341 LINE"
);
},
{
closed = 1;
nodes = (
"286 341 LINE",
"386 341 LINE",
"513 697 LINE",
"513 699 LINE",
"513 700 LINE",
"309 700 LINE"
);
}
);
width = 542;
},
{
hints = (
{
horizontal = 1;
place = "{443, 21}";
target = up;
type = BottomGhost;
},
{
horizontal = 1;
place = "{708, -20}";
target = down;
type = TopGhost;
}
);
layerId = "1038C536-374A-461C-9C15-505D839D4AAF";
paths = (
{
closed = 1;
nodes = (
"108 443 LINE",
"158 655 LINE",
"170 708 LINE",
"170 708 LINE",
"79 708 LINE",
"53 443 LINE"
);
},
{
closed = 1;
nodes = (
"232 443 LINE",
"287 443 LINE",
"337 655 LINE",
"349 708 LINE",
"349 708 LINE",
"258 708 LINE"
);
}
);
width = 401;
}
);
unicode = 0022;
},
{
color = (153, 255, 154, 255);
glyphname = numbersign;
layers = (
{
hints = (
{
horizontal = 1;
place = "{135, 161}";
type = Stem;
},
{
horizontal = 1;
place = "{408, 161}";
type = Stem;
},
{
horizontal = 1;
place = "{0, 21}";
target = up;
type = BottomGhost;
},
{
horizontal = 1;
place = "{700, -20}";
target = down;
type = TopGhost;
}
);
layerId = "5489E6BA-21ED-4BE5-8B01-6EB821105F89";
paths = (
{
closed = 1;
nodes = (
"94 0 LINE",
"239 0 LINE",
"262 135 LINE",
"389 135 LINE",
"365 0 LINE",
"510 0 LINE",
"534 135 LINE",
"653 135 LINE",
"653 296 LINE",
"561 296 LINE",
"580 408 LINE",
"686 408 LINE",
"686 569 LINE",
"608 569 LINE",
"630 700 LINE",
"485 700 LINE",
"463 569 LINE",
"336 569 LINE",
"359 700 LINE",
"214 700 LINE",
"192 569 LINE",
"72 569 LINE",
"72 408 LINE",
"164 408 LINE",
"145 296 LINE",
"39 296 LINE",
"39 135 LINE",
"117 135 LINE"
);
},
{
closed = 1;
nodes = (
"439 412 LINE",
"419 292 LINE",
"285 292 LINE",
"306 412 LINE"
);
}
);
width = 724;
},
{
hints = (
{
horizontal = 1;
place = "{194, 72}";
type = Stem;
},
{
horizontal = 1;
place = "{446, 72}";
type = Stem;
},
{
horizontal = 1;
place = "{0, 21}";
target = up;
type = BottomGhost;
},
{
horizontal = 1;
place = "{706, -20}";
target = down;
type = TopGhost;
}
);
layerId = "1038C536-374A-461C-9C15-505D839D4AAF";
paths = (
{
closed = 1;
nodes = (
"114 0 LINE",
"187 0 LINE",
"216 194 LINE",
"379 194 LINE",
"351 0 LINE",
"424 0 LINE",
"452 194 LINE",
"569 194 LINE",
"569 266 LINE",
"463 266 LINE",
"492 446 LINE",
"602 446 LINE",
"602 518 LINE",
"503 518 LINE",
"529 706 LINE",
"457 706 LINE",
"430 518 LINE",
"267 518 LINE",
"294 706 LINE",
"222 706 LINE",
"193 518 LINE",
"72 518 LINE",
"72 446 LINE",
"183 446 LINE",
"155 266 LINE",
"39 266 LINE",
"39 195 LINE",
"144 195 LINE"
);
},
{
closed = 1;
nodes = (
"419 446 LINE",
"390 266 LINE",
"227 266 LINE",
"255 446 LINE"
);
}
);
width = 640;
}
);
unicode = 0023;
},
{
color = (153, 255, 154, 255);
glyphname = dollar;
layers = (
{
hints = (
{
horizontal = 1;
place = "{-98, 21}";
target = up;
type = BottomGhost;
},
{
horizontal = 1;
place = "{758, -20}";
target = down;
type = TopGhost;
},
{
place = "{76, 176}";
type = Stem;
},
{
place = "{319, 95}";
type = Stem;
},
{
place = "{480, 173}";
type = Stem;
}
);
layerId = "5489E6BA-21ED-4BE5-8B01-6EB821105F89";
paths = (
{
closed = 1;
nodes = (
"313 -98 LINE",
"417 -98 LINE",
"417 0 LINE",
"558 13 OFFCURVE",
"653 90 OFFCURVE",
"653 212 CURVE",
"653 334 OFFCURVE",
"573 393 OFFCURVE",
"414 430 CURVE",
"414 555 LINE",
"458 547 OFFCURVE",
"495 530 OFFCURVE",
"527 491 CURVE",
"624 599 LINE",
"576 652 OFFCURVE",
"501 689 OFFCURVE",
"419 698 CURVE",
"419 758 LINE",
"315 758 LINE",
"315 701 LINE",
"162 690 OFFCURVE",
"76 608 OFFCURVE",
"76 490 CURVE",
"76 366 OFFCURVE",
"158 309 OFFCURVE",
"319 272 CURVE",
"319 145 LINE",
"263 151 OFFCURVE",
"203 186 OFFCURVE",
"164 234 CURVE",
"53 115 LINE",
"129 41 OFFCURVE",
"224 2 OFFCURVE",
"313 2 CURVE"
);
},
{
closed = 1;
nodes = (
"480 172 OFFCURVE",
"459 151 OFFCURVE",
"413 146 CURVE",
"413 256 LINE",
"465 241 OFFCURVE",
"480 222 OFFCURVE",
"480 199 CURVE SMOOTH"
);
},
{
closed = 1;
nodes = (
"252 530 OFFCURVE",
"271 551 OFFCURVE",
"320 555 CURVE",
"320 447 LINE",
"266 462 OFFCURVE",
"252 483 OFFCURVE",
"252 505 CURVE SMOOTH"
);
}
);
width = 700;
},
{
hints = (
{
horizontal = 1;
place = "{-95, 21}";
target = up;
type = BottomGhost;
},
{
horizontal = 1;
place = "{777, -20}";
target = down;
type = TopGhost;
},
{
place = "{97, 81}";
type = Stem;
},
{
place = "{293, 62}";
type = Stem;
},
{
place = "{474, 82}";
type = Stem;
}
);
layerId = "1038C536-374A-461C-9C15-505D839D4AAF";
paths = (
{
closed = 1;
nodes = (
"291 -95 LINE",
"356 -95 LINE",
"356 -4 LINE",
"473 8 OFFCURVE",
"556 87 OFFCURVE",
"556 192 CURVE SMOOTH",
"556 283 OFFCURVE",
"494 339 OFFCURVE",
"355 389 CURVE",
"355 638 LINE",
"403 633 OFFCURVE",
"446 606 OFFCURVE",
"470 572 CURVE",
"521 624 LINE",
"493 663 OFFCURVE",
"444 703 OFFCURVE",
"356 711 CURVE",
"356 777 LINE",
"291 777 LINE",
"291 710 LINE",
"181 699 OFFCURVE",
"97 629 OFFCURVE",
"97 525 CURVE SMOOTH",
"97 423 OFFCURVE",
"171 364 OFFCURVE",
"291 322 CURVE",
"291 65 LINE",
"217 69 OFFCURVE",
"159 107 OFFCURVE",
"116 151 CURVE",
"68 98 LINE",
"119 43 OFFCURVE",
"196 -4 OFFCURVE",
"291 -4 CURVE"
);
},
{
closed = 1;
nodes = (
"474 122 OFFCURVE",
"437 78 OFFCURVE",
"356 66 CURVE",
"356 302 LINE",
"454 269 OFFCURVE",
"474 220 OFFCURVE",
"474 179 CURVE SMOOTH"
);
},
{
closed = 1;
nodes = (
"179 591 OFFCURVE",
"218 632 OFFCURVE",
"291 640 CURVE",
"291 412 LINE",
"223 442 OFFCURVE",
"179 473 OFFCURVE",
"179 534 CURVE SMOOTH"
);
}
);
width = 633;
}
);
unicode = 0024;
},
{
color = (153, 255, 154, 255);
glyphname = percent;
layers = (
{
hints = (
{
place = "{27, 122}";
type = Stem;
},
{
place = "{266, 122}";
type = Stem;
},
{
place = "{495, 122}";
type = Stem;
},
{
place = "{734, 122}";
type = Stem;
},
{
horizontal = 1;
place = "{-10, 110}";
type = Stem;
},
{
horizontal = 1;
place = "{257, 110}";
type = Stem;
},
{
horizontal = 1;
place = "{333, 34}";
type = Stem;
},
{
horizontal = 1;
place = "{600, 110}";
type = Stem;
},
{
horizontal = 1;
place = "{333, 110}";
type = Stem;
},
{
horizontal = 1;
place = "{700, -20}";
target = down;
type = TopGhost;
},
{
horizontal = 1;
place = "{0, 21}";
target = up;
type = BottomGhost;
}
);
layerId = "5489E6BA-21ED-4BE5-8B01-6EB821105F89";
paths = (
{
closed = 1;
nodes = (
"388 625 OFFCURVE",
"317 710 OFFCURVE",
"208 710 CURVE SMOOTH",
"98 710 OFFCURVE",
"27 625 OFFCURVE",
"27 522 CURVE",
"27 419 OFFCURVE",
"99 333 OFFCURVE",
"207 333 CURVE SMOOTH",
"315 333 OFFCURVE",
"388 420 OFFCURVE",
"388 523 CURVE SMOOTH"
);
},
{
closed = 1;
nodes = (
"266 478 OFFCURVE",
"242 443 OFFCURVE",
"208 443 CURVE SMOOTH",
"175 443 OFFCURVE",
"149 478 OFFCURVE",
"149 523 CURVE",
"149 567 OFFCURVE",
"172 600 OFFCURVE",
"207 600 CURVE SMOOTH",
"241 600 OFFCURVE",
"266 566 OFFCURVE",
"266 522 CURVE SMOOTH"
);
},
{
closed = 1;
nodes = (
"856 283 OFFCURVE",
"785 367 OFFCURVE",
"676 367 CURVE SMOOTH",
"566 367 OFFCURVE",
"495 282 OFFCURVE",
"495 179 CURVE",
"495 77 OFFCURVE",
"567 -10 OFFCURVE",
"675 -10 CURVE SMOOTH",
"783 -10 OFFCURVE",
"856 78 OFFCURVE",
"856 180 CURVE SMOOTH"
);
},
{
closed = 1;
nodes = (
"734 135 OFFCURVE",
"710 100 OFFCURVE",
"676 100 CURVE SMOOTH",
"643 100 OFFCURVE",
"617 136 OFFCURVE",
"617 180 CURVE",
"617 225 OFFCURVE",
"639 257 OFFCURVE",
"675 257 CURVE SMOOTH",
"709 257 OFFCURVE",
"734 224 OFFCURVE",
"734 179 CURVE SMOOTH"
);
},
{
closed = 1;
nodes = (
"779 700 LINE",
"644 700 LINE",
"104 0 LINE",
"239 0 LINE"
);
}
);
width = 885;
},
{
hints = (
{
horizontal = 1;
place = "{-11, 60}";
type = Stem;
},
{
horizontal = 1;
place = "{288, 60}";
type = Stem;
},
{
horizontal = 1;
place = "{360, 61}";
type = Stem;
},
{
horizontal = 1;
place = "{661, 62}";
type = Stem;
},
{
horizontal = 1;
place = "{-19, 21}";
target = up;
type = BottomGhost;
},
{
place = "{31, 67}";
type = Stem;
},
{
place = "{295, 68}";
type = Stem;
},
{
place = "{451, 67}";
type = Stem;
},
{
place = "{715, 66}";
type = Stem;
}
);
layerId = "1038C536-374A-461C-9C15-505D839D4AAF";
paths = (
{
closed = 1;
nodes = (
"362 644 OFFCURVE",
"297 723 OFFCURVE",
"197 723 CURVE SMOOTH",
"101 723 OFFCURVE",
"31 642 OFFCURVE",
"31 543 CURVE SMOOTH",
"31 441 OFFCURVE",
"98 361 OFFCURVE",
"196 361 CURVE SMOOTH",
"294 361 OFFCURVE",
"362 442 OFFCURVE",
"362 544 CURVE SMOOTH"
);
},
{
closed = 1;
nodes = (
"295 471 OFFCURVE",
"259 421 OFFCURVE",
"197 421 CURVE SMOOTH",
"137 421 OFFCURVE",
"98 470 OFFCURVE",
"98 543 CURVE SMOOTH",
"98 612 OFFCURVE",
"136 663 OFFCURVE",
"196 663 CURVE SMOOTH",
"251 663 OFFCURVE",
"295 615 OFFCURVE",
"295 539 CURVE SMOOTH"
);
},
{
closed = 1;
nodes = (
"781 269 OFFCURVE",
"714 348 OFFCURVE",
"616 348 CURVE SMOOTH",
"521 348 OFFCURVE",
"451 269 OFFCURVE",
"451 168 CURVE SMOOTH",
"451 69 OFFCURVE",
"515 -11 OFFCURVE",
"615 -11 CURVE SMOOTH",
"714 -11 OFFCURVE",
"781 69 OFFCURVE",
"781 169 CURVE SMOOTH"
);
},
{
closed = 1;
nodes = (
"714 100 OFFCURVE",
"677 49 OFFCURVE",
"616 49 CURVE SMOOTH",
"561 49 OFFCURVE",
"518 94 OFFCURVE",
"518 168 CURVE SMOOTH",
"518 240 OFFCURVE",
"555 288 OFFCURVE",
"615 288 CURVE SMOOTH",
"673 288 OFFCURVE",
"714 240 OFFCURVE",
"714 168 CURVE SMOOTH"
);
},
{
closed = 1;
nodes = (
"677 709 LINE",
"611 723 LINE",
"129 -4 LINE",
"195 -19 LINE"
);
}
);
width = 814;
}
);
unicode = 0025;
},
{
color = (153, 255, 154, 255);
glyphname = ampersand;
layers = (
{
hints = (
{
place = "{32, 194}";
type = Stem;
},
{
place = "{128, 164}";
type = Stem;
},
{
place = "{402, 154}";
type = Stem;
},
{
horizontal = 1;
place = "{-12, 143}";
type = Stem;
},
{
horizontal = 1;
place = "{586, 133}";
type = Stem;
}
);
layerId = "5489E6BA-21ED-4BE5-8B01-6EB821105F89";
paths = (
{
closed = 1;
nodes = (
"391 161 LINE",
"364 143 OFFCURVE",
"336 131 OFFCURVE",
"308 131 CURVE SMOOTH",
"260 131 OFFCURVE",
"226 159 OFFCURVE",
"226 200 CURVE SMOOTH",
"226 230 OFFCURVE",
"241 257 OFFCURVE",
"276 278 CURVE"
);
},
{
closed = 1;
nodes = (
"563 385 LINE",
"542 345 OFFCURVE",
"520 307 OFFCURVE",
"497 274 CURVE",
"419 355 LINE",
"501 393 OFFCURVE",
"556 451 OFFCURVE",
"556 537 CURVE SMOOTH",
"556 641 OFFCURVE",
"475 719 OFFCURVE",
"348 719 CURVE SMOOTH",
"211 719 OFFCURVE",
"128 631 OFFCURVE",
"128 529 CURVE SMOOTH",
"128 482 OFFCURVE",
"142 434 OFFCURVE",
"174 388 CURVE",
"79 345 OFFCURVE",
"32 279 OFFCURVE",
"32 192 CURVE SMOOTH",
"32 63 OFFCURVE",
"139 -12 OFFCURVE",
"282 -12 CURVE SMOOTH",
"363 -12 OFFCURVE",
"431 14 OFFCURVE",
"490 59 CURVE",
"550 -5 LINE",
"725 34 LINE",
"599 173 LINE",
"632 218 OFFCURVE",
"669 288 OFFCURVE",
"698 341 CURVE"
);
},
{
closed = 1;
nodes = (
"380 586 OFFCURVE",
"402 564 OFFCURVE",
"402 530 CURVE SMOOTH",
"402 495 OFFCURVE",
"378 467 OFFCURVE",
"328 442 CURVE",
"304 472 OFFCURVE",
"292 495 OFFCURVE",
"292 522 CURVE SMOOTH",
"292 561 OFFCURVE",
"315 586 OFFCURVE",
"348 586 CURVE SMOOTH"
);
}
);
width = 734;
},
{
hints = (
{
horizontal = 1;
place = "{-11, 70}";
type = Stem;
},
{
horizontal = 1;
place = "{651, 68}";
type = Stem;
},
{
place = "{32, 87}";
type = Stem;
},
{
place = "{133, 80}";
type = Stem;
},
{
place = "{398, 79}";
type = Stem;
}
);
layerId = "1038C536-374A-461C-9C15-505D839D4AAF";
paths = (
{
closed = 1;
nodes = (
"422 150 LINE",
"379 97 OFFCURVE",
"325 57 OFFCURVE",
"259 57 CURVE SMOOTH",
"175 57 OFFCURVE",
"119 118 OFFCURVE",
"119 196 CURVE SMOOTH",
"119 268 OFFCURVE",
"164 318 OFFCURVE",
"244 352 CURVE"
);
},
{
closed = 1;
nodes = (
"557 371 LINE",
"533 316 OFFCURVE",
"507 267 OFFCURVE",
"474 217 CURVE",
"320 388 LINE",
"413 427 OFFCURVE",
"477 478 OFFCURVE",
"477 568 CURVE SMOOTH",
"477 650 OFFCURVE",
"408 719 OFFCURVE",
"307 719 CURVE SMOOTH",
"208 719 OFFCURVE",
"133 656 OFFCURVE",
"133 561 CURVE SMOOTH",
"133 506 OFFCURVE",
"161 456 OFFCURVE",
"202 406 CURVE",
"96 366 OFFCURVE",
"32 296 OFFCURVE",
"32 192 CURVE SMOOTH",
"32 68 OFFCURVE",
"129 -11 OFFCURVE",
"254 -11 CURVE SMOOTH",
"343 -11 OFFCURVE",
"409 28 OFFCURVE",
"470 91 CURVE",
"563 -5 LINE",
"655 12 LINE",
"522 158 LINE",
"562 216 OFFCURVE",
"598 281 OFFCURVE",
"630 347 CURVE"
);
},
{
closed = 1;
nodes = (
"356 651 OFFCURVE",
"397 616 OFFCURVE",
"397 563 CURVE SMOOTH",
"397 509 OFFCURVE",
"344 463 OFFCURVE",
"278 438 CURVE",
"238 485 OFFCURVE",
"213 523 OFFCURVE",
"213 562 CURVE SMOOTH",
"213 615 OFFCURVE",
"253 651 OFFCURVE",
"306 651 CURVE SMOOTH"
);
}
);
width = 658;
}
);
unicode = 0026;
},
{
color = (153, 255, 154, 255);
glyphname = quotesingle;
layers = (
{
hints = (
{
horizontal = 1;
place = "{341, 21}";
target = up;
type = BottomGhost;
},
{
horizontal = 1;
place = "{700, -20}";
target = down;
type = TopGhost;
}
);
layerId = "5489E6BA-21ED-4BE5-8B01-6EB821105F89";
paths = (
{
closed = 1;
nodes = (
"30 341 LINE",
"133 341 LINE",
"260 697 LINE",
"260 699 LINE",
"260 700 LINE",
"52 700 LINE"
);
}
);
width = 289;
},
{
hints = (
{
horizontal = 1;
place = "{443, 21}";
target = up;
type = BottomGhost;
},
{
horizontal = 1;
place = "{708, -20}";
target = down;
type = TopGhost;
}
);
layerId = "1038C536-374A-461C-9C15-505D839D4AAF";
paths = (
{
closed = 1;
nodes = (
"53 443 LINE",
"108 443 LINE",
"158 655 LINE",
"170 708 LINE",
"170 708 LINE",
"78 708 LINE"
);
}
);
width = 222;
}
);
unicode = 0027;
},
{
color = (153, 255, 154, 255);
glyphname = parenleft;
layers = (
{
hints = (
{
horizontal = 1;
place = "{706, -20}";
target = down;
type = TopGhost;
},
{
horizontal = 1;
place = "{-130, 21}";
target = up;
type = BottomGhost;
},
{
place = "{60, 186}";
type = Stem;
}
);
layerId = "5489E6BA-21ED-4BE5-8B01-6EB821105F89";
paths = (
{
closed = 1;
nodes = (
"246 418 OFFCURVE",
"302 508 OFFCURVE",
"431 597 CURVE",
"336 706 LINE",
"170 613 OFFCURVE",
"60 490 OFFCURVE",
"60 287 CURVE SMOOTH",
"60 84 OFFCURVE",
"162 -42 OFFCURVE",
"332 -130 CURVE",
"431 -23 LINE",
"302 66 OFFCURVE",
"246 156 OFFCURVE",
"246 287 CURVE SMOOTH"
);
}
);
width = 475;
},
{
hints = (
{
horizontal = 1;
place = "{737, -20}";
target = down;
type = TopGhost;
},
{
horizontal = 1;
place = "{-164, 21}";
target = up;
type = BottomGhost;
},
{
place = "{67, 82}";
type = Stem;
}
);
layerId = "1038C536-374A-461C-9C15-505D839D4AAF";
paths = (
{
closed = 1;
nodes = (
"149 443 OFFCURVE",
"210 564 OFFCURVE",
"336 686 CURVE",
"292 737 LINE",
"146 608 OFFCURVE",
"67 465 OFFCURVE",
"67 284 CURVE SMOOTH",
"67 100 OFFCURVE",
"152 -48 OFFCURVE",
"294 -164 CURVE",
"335 -114 LINE",
"210 7 OFFCURVE",
"149 127 OFFCURVE",
"149 284 CURVE SMOOTH"
);
}
);
width = 356;
}
);
unicode = 0028;
},
{
color = (153, 255, 154, 255);
glyphname = parenright;
layers = (
{
hints = (
{
horizontal = 1;
place = "{-130, 21}";
target = up;
type = BottomGhost;
},
{
horizontal = 1;
place = "{706, -20}";
target = down;
type = TopGhost;
},
{
place = "{228, 186}";
type = Stem;
}
);
layerId = "5489E6BA-21ED-4BE5-8B01-6EB821105F89";
paths = (
{
closed = 1;
nodes = (
"228 156 OFFCURVE",
"172 66 OFFCURVE",
"43 -23 CURVE",
"142 -130 LINE",
"317 -40 OFFCURVE",
"414 84 OFFCURVE",
"414 287 CURVE SMOOTH",
"414 490 OFFCURVE",
"313 612 OFFCURVE",
"138 706 CURVE",
"43 597 LINE",
"172 508 OFFCURVE",
"228 418 OFFCURVE",
"228 287 CURVE SMOOTH"
);
}
);
width = 475;
},
{
hints = (
{
horizontal = 1;
place = "{-164, 21}";
target = up;
type = BottomGhost;
},
{
horizontal = 1;
place = "{737, -20}";
target = down;
type = TopGhost;
},
{
place = "{210, 82}";
type = Stem;
}
);
layerId = "1038C536-374A-461C-9C15-505D839D4AAF";
paths = (
{
closed = 1;
nodes = (
"210 131 OFFCURVE",
"152 7 OFFCURVE",
"22 -114 CURVE",
"65 -164 LINE",
"207 -43 OFFCURVE",
"292 102 OFFCURVE",
"292 284 CURVE SMOOTH",
"292 461 OFFCURVE",
"213 606 OFFCURVE",
"66 737 CURVE",
"21 686 LINE",
"154 564 OFFCURVE",
"210 439 OFFCURVE",
"210 284 CURVE SMOOTH"
);
}
);
width = 360;
}
);
unicode = 0029;
},
{
color = (153, 255, 154, 255);
glyphname = asterisk;
layers = (
{
hints = (
{
horizontal = 1;
place = "{340, 21}";
target = up;
type = BottomGhost;
},
{
horizontal = 1;
place = "{710, -20}";
target = down;
type = TopGhost;
},
{
place = "{182, 82}";
type = Stem;
}
);
layerId = "5489E6BA-21ED-4BE5-8B01-6EB821105F89";
paths = (
{
closed = 1;
nodes = (
"157 554 LINE",
"31 510 LINE",
"55 435 LINE",
"182 478 LINE",
"182 340 LINE",
"264 340 LINE",
"264 476 LINE",
"388 435 LINE",
"413 510 LINE",
"290 552 LINE",
"365 663 LINE",
"299 710 LINE",
"222 602 LINE",
"145 710 LINE",
"79 663 LINE"
);
}
);
width = 443;
},
{
hints = (
{
horizontal = 1;
place = "{440, 21}";
target = up;
type = BottomGhost;
},
{
horizontal = 1;
place = "{723, -20}";
target = down;
type = TopGhost;
},
{
place = "{150, 61}";
type = Stem;
}
);
layerId = "1038C536-374A-461C-9C15-505D839D4AAF";
paths = (
{
closed = 1;
nodes = (
"131 608 LINE",
"31 573 LINE",
"51 515 LINE",
"150 549 LINE",
"150 440 LINE",
"211 440 LINE",
"211 548 LINE",
"309 515 LINE",
"328 573 LINE",
"231 607 LINE",
"292 693 LINE",
"242 725 LINE",
"181 644 LINE",
"118 725 LINE",
"68 690 LINE"
);
}
);
width = 360;
}
);
unicode = 002A;
},
{
color = (153, 255, 154, 255);
glyphname = plus;
layers = (
{
hints = (
{
horizontal = 1;
place = "{268, 168}";
type = Stem;
},
{
horizontal = 1;
place = "{608, -20}";
target = down;
type = TopGhost;
},
{
horizontal = 1;
place = "{96, 21}";
target = up;
type = BottomGhost;
},
{
place = "{211, 174}";
type = Stem;
}
);
layerId = "5489E6BA-21ED-4BE5-8B01-6EB821105F89";
paths = (
{
closed = 1;
nodes = (
"385 608 LINE",
"211 608 LINE",
"211 436 LINE",
"42 436 LINE",
"42 268 LINE",
"211 268 LINE",
"211 96 LINE",
"385 96 LINE",
"385 268 LINE",
"554 268 LINE",
"554 436 LINE",
"385 436 LINE"
);
}
);
width = 595;
},
{
hints = (
{
horizontal = 1;
place = "{308, 74}";
type = Stem;
},
{
horizontal = 1;
place = "{589, -20}";
target = down;
type = TopGhost;
},
{
horizontal = 1;
place = "{100, 21}";
target = up;
type = BottomGhost;
},
{
place = "{248, 77}";
type = Stem;
}
);
layerId = "1038C536-374A-461C-9C15-505D839D4AAF";
paths = (
{
closed = 1;
nodes = (
"325 589 LINE",
"248 589 LINE",
"248 382 LINE",
"42 382 LINE",
"42 308 LINE",
"248 308 LINE",
"248 100 LINE",
"325 100 LINE",
"325 308 LINE",
"533 308 LINE",
"533 382 LINE",
"325 382 LINE"
);
}
);
width = 575;
}
);
unicode = 002B;
},
{
color = (153, 255, 154, 255);
glyphname = comma;
layers = (
{
hints = (
{
horizontal = 1;
place = "{197, -20}";
target = down;
type = TopGhost;
},
{
horizontal = 1;
place = "{-164, 21}";
target = up;
type = BottomGhost;
}
);
layerId = "5489E6BA-21ED-4BE5-8B01-6EB821105F89";
paths = (
{
closed = 1;
nodes = (
"228 197 LINE",
"57 197 LINE",
"-5 -164 LINE",
"125 -164 LINE"
);
}
);
width = 259;
},
{
hints = (
{
horizontal = 1;
place = "{120, -20}";
target = down;
type = TopGhost;
},
{
horizontal = 1;
place = "{-139, 21}";
target = up;
type = BottomGhost;
}
);
layerId = "1038C536-374A-461C-9C15-505D839D4AAF";
paths = (
{
closed = 1;
nodes = (
"160 120 LINE",
"61 120 LINE",
"17 -139 LINE",
"86 -139 LINE"
);
}
);
width = 195;
}
);
unicode = 002C;
},
{
color = (153, 255, 154, 255);
glyphname = hyphen;
layers = (
{
hints = (
{
horizontal = 1;
place = "{229, 167}";
type = Stem;
}
);
layerId = "5489E6BA-21ED-4BE5-8B01-6EB821105F89";
paths = (
{
closed = 1;
nodes = (
"360 396 LINE",
"32 396 LINE",
"32 229 LINE",
"360 229 LINE"
);
}
);
width = 393;
},
{
hints = (
{
horizontal = 1;
place = "{234, 77}";
type = Stem;
}
);
layerId = "1038C536-374A-461C-9C15-505D839D4AAF";
paths = (
{
closed = 1;
nodes = (
"302 311 LINE",
"31 311 LINE",
"31 234 LINE",
"302 234 LINE"
);
}
);
width = 334;
}
);
unicode = 002D;
},
{
color = (153, 255, 154, 255);
glyphname = period;
layers = (
{
hints = (
{
horizontal = 1;
place = "{-13, 219}";
type = Stem;
},
{
place = "{51, 225}";
type = Stem;
}
);
layerId = "5489E6BA-21ED-4BE5-8B01-6EB821105F89";
paths = (
{
closed = 1;
nodes = (
"51 25 OFFCURVE",
"101 -13 OFFCURVE",
"163 -13 CURVE",
"226 -13 OFFCURVE",
"276 25 OFFCURVE",
"276 97 CURVE",
"276 168 OFFCURVE",
"226 206 OFFCURVE",
"163 206 CURVE",
"101 206 OFFCURVE",
"51 168 OFFCURVE",
"51 97 CURVE SMOOTH"
);
}
);
width = 305;
},
{
hints = (
{
horizontal = 1;
place = "{-10, 120}";
type = Stem;
},
{
place = "{54, 119}";
type = Stem;
}
);
layerId = "1038C536-374A-461C-9C15-505D839D4AAF";
paths = (
{
closed = 1;
nodes = (
"54 18 OFFCURVE",
"81 -10 OFFCURVE",
"114 -10 CURVE SMOOTH",
"146 -10 OFFCURVE",
"173 18 OFFCURVE",
"173 50 CURVE SMOOTH",
"173 83 OFFCURVE",
"146 110 OFFCURVE",
"114 110 CURVE SMOOTH",
"81 110 OFFCURVE",
"54 83 OFFCURVE",
"54 50 CURVE SMOOTH"
);
}
);
width = 211;
}
);
unicode = 002E;
},
{
color = (153, 255, 154, 255);
glyphname = slash;
layers = (
{
hints = (
{
horizontal = 1;
place = "{798, -20}";
target = down;
type = TopGhost;
},
{
horizontal = 1;
place = "{-128, 21}";
target = up;
type = BottomGhost;
}
);
layerId = "5489E6BA-21ED-4BE5-8B01-6EB821105F89";
paths = (
{
closed = 1;
nodes = (
"622 798 LINE",
"468 798 LINE",
"25 -128 LINE",
"179 -128 LINE"
);
}
);
width = 623;
},
{
hints = (
{
horizontal = 1;
place = "{783, -20}";
target = down;
type = TopGhost;
},
{
horizontal = 1;
place = "{-90, 21}";
target = up;
type = BottomGhost;
}
);
layerId = "1038C536-374A-461C-9C15-505D839D4AAF";
paths = (
{
closed = 1;
nodes = (
"497 768 LINE",
"428 783 LINE",
"-1 -77 LINE",
"67 -90 LINE"
);
}
);
width = 494;
}
);
unicode = 002F;
},
{
color = (153, 255, 154, 255);
glyphname = zero;
layers = (
{
hints = (
{
horizontal = 1;
place = "{-14, 172}";
type = Stem;
},
{
horizontal = 1;
place = "{542, 172}";
type = Stem;
},
{
place = "{32, 195}";
type = Stem;
},
{
place = "{485, 195}";
type = Stem;
}
);
layerId = "5489E6BA-21ED-4BE5-8B01-6EB821105F89";
paths = (
{
closed = 1;
nodes = (
"432 542 OFFCURVE",
"485 461 OFFCURVE",
"485 350 CURVE",
"485 239 OFFCURVE",
"435 158 OFFCURVE",
"357 158 CURVE SMOOTH",
"279 158 OFFCURVE",
"227 240 OFFCURVE",
"227 352 CURVE",
"227 464 OFFCURVE",
"278 542 OFFCURVE",
"355 542 CURVE SMOOTH"
);
},
{
closed = 1;
nodes = (
"158 714 OFFCURVE",
"32 548 OFFCURVE",
"32 350 CURVE",
"32 152 OFFCURVE",
"155 -14 OFFCURVE",
"355 -14 CURVE SMOOTH",
"555 -14 OFFCURVE",
"680 154 OFFCURVE",
"680 352 CURVE",
"680 550 OFFCURVE",
"556 714 OFFCURVE",
"357 714 CURVE SMOOTH"
);
}
);
width = 712;
},
{
hints = (
{
horizontal = 1;
place = "{-14, 75}";
type = Stem;
},
{
horizontal = 1;
place = "{643, 76}";
type = Stem;
},
{
place = "{38, 85}";
type = Stem;
},
{
place = "{483, 87}";
type = Stem;
}
);
layerId = "1038C536-374A-461C-9C15-505D839D4AAF";
paths = (
{
closed = 1;
nodes = (
"417 643 OFFCURVE",
"483 524 OFFCURVE",
"483 352 CURVE SMOOTH",
"483 184 OFFCURVE",
"419 62 OFFCURVE",
"305 62 CURVE SMOOTH",
"188 62 OFFCURVE",
"125 179 OFFCURVE",
"125 357 CURVE SMOOTH",
"125 523 OFFCURVE",
"189 643 OFFCURVE",
"303 643 CURVE SMOOTH"
);
},
{
closed = 1;
nodes = (
"130 719 OFFCURVE",
"38 568 OFFCURVE",
"38 354 CURVE SMOOTH",
"38 131 OFFCURVE",
"130 -14 OFFCURVE",
"303 -14 CURVE SMOOTH",
"480 -14 OFFCURVE",
"570 139 OFFCURVE",
"570 352 CURVE SMOOTH",
"570 570 OFFCURVE",
"477 719 OFFCURVE",
"304 719 CURVE SMOOTH"
);
}
);
width = 607;
}
);
unicode = 0030;
},
{
color = (153, 255, 154, 255);
glyphname = one;
layers = (
{
hints = (
{
horizontal = 1;
place = "{524, 181}";
type = Stem;
},
{
horizontal = 1;
place = "{0, 21}";
target = up;
type = BottomGhost;
},
{
place = "{236, 191}";
type = Stem;
}
);
layerId = "5489E6BA-21ED-4BE5-8B01-6EB821105F89";
paths = (
{
closed = 1;
nodes = (
"427 705 LINE",
"81 705 LINE",
"81 524 LINE",
"236 524 LINE",
"236 0 LINE",
"427 0 LINE"
);
}
);
width = 598;
},
{
hints = (
{
place = "{109, 192}";
type = Stem;
},
{
place = "{217, 84}";
type = Stem;
},
{
horizontal = 1;
place = "{630, 78}";
type = Stem;
},
{
horizontal = 1;
place = "{0, 21}";
target = up;
type = BottomGhost;
}
);
layerId = "1038C536-374A-461C-9C15-505D839D4AAF";
paths = (
{
closed = 1;
nodes = (
"301 708 LINE",
"109 708 LINE",
"109 630 LINE",
"217 630 LINE",
"217 0 LINE",
"301 0 LINE"
);
}
);
width = 502;
}
);
unicode = 0031;
},
{
color = (153, 255, 154, 255);
glyphname = two;
layers = (
{
hints = (
{
horizontal = 1;
place = "{0, 158}";
type = Stem;
},
{
horizontal = 1;
place = "{543, 169}";
type = Stem;
},
{
place = "{47, 177}";
type = Stem;
},
{
place = "{395, 202}";
type = Stem;
}
);
layerId = "5489E6BA-21ED-4BE5-8B01-6EB821105F89";
paths = (
{
closed = 1;
nodes = (
"176 712 OFFCURVE",
"47 622 OFFCURVE",
"47 453 CURVE",
"224 453 LINE",
"224 517 OFFCURVE",
"272 543 OFFCURVE",
"317 543 CURVE SMOOTH",
"363 543 OFFCURVE",
"395 516 OFFCURVE",
"395 472 CURVE",
"395 437 OFFCURVE",
"375 389 OFFCURVE",
"323 328 CURVE SMOOTH",
"43 0 LINE",
"597 0 LINE",
"597 158 LINE",
"409 158 LINE",
"472 242 LINE SMOOTH",
"549 344 OFFCURVE",
"590 405 OFFCURVE",
"590 489 CURVE",
"590 621 OFFCURVE",
"485 712 OFFCURVE",
"322 712 CURVE SMOOTH"
);
}
);
width = 650;
},
{
hints = (
{
place = "{421, 89}";
type = Stem;
},
{
place = "{434, 76}";
type = Stem;
},
{
horizontal = 1;
place = "{0, 75}";
type = Stem;
},
{
horizontal = 1;
place = "{513, 205}";
type = Stem;
},
{
horizontal = 1;
place = "{642, 76}";
type = Stem;
}
);
layerId = "1038C536-374A-461C-9C15-505D839D4AAF";
paths = (
{
closed = 1;
nodes = (
"165 718 OFFCURVE",
"83 655 OFFCURVE",
"59 513 CURVE",
"152 513 LINE",
"166 589 OFFCURVE",
"211 642 OFFCURVE",
"297 642 CURVE SMOOTH",
"389 642 OFFCURVE",
"421 589 OFFCURVE",
"421 536 CURVE SMOOTH",
"421 480 OFFCURVE",
"385 413 OFFCURVE",
"301 310 CURVE SMOOTH",
"47 0 LINE",
"524 0 LINE",
"524 76 LINE",
"208 76 LINE",
"367 266 LINE SMOOTH",
"467 385 OFFCURVE",
"510 458 OFFCURVE",
"510 528 CURVE SMOOTH",
"510 635 OFFCURVE",
"418 718 OFFCURVE",
"296 718 CURVE SMOOTH"
);
}
);
width = 579;
}
);
unicode = 0032;
},
{
color = (153, 255, 154, 255);
glyphname = three;
layers = (
{
hints = (
{
horizontal = 1;
place = "{-14, 166}";
type = Stem;
},
{
horizontal = 1;
place = "{543, 157}";
type = Stem;
},
{
place = "{417, 189}";
type = Stem;
}
);
layerId = "5489E6BA-21ED-4BE5-8B01-6EB821105F89";
paths = (
{
closed = 1;
nodes = (
"592 561 LINE",
"592 700 LINE",
"86 700 LINE",
"86 543 LINE",
"354 543 LINE",
"193 398 LINE",
"221 297 LINE",
"303 297 LINE SMOOTH",
"376 297 OFFCURVE",
"417 270 OFFCURVE",
"417 225 CURVE",
"417 182 OFFCURVE",
"380 152 OFFCURVE",
"322 152 CURVE SMOOTH",
"272 152 OFFCURVE",
"218 175 OFFCURVE",
"173 219 CURVE",
"38 110 LINE",
"106 35 OFFCURVE",
"207 -14 OFFCURVE",
"333 -14 CURVE SMOOTH",
"498 -14 OFFCURVE",
"606 79 OFFCURVE",
"606 221 CURVE",
"606 340 OFFCURVE",
"525 396 OFFCURVE",
"425 418 CURVE"
);
}
);
width = 663;
},
{
hints = (
{
horizontal = 1;
place = "{-13, 74}";
type = Stem;
},
{
horizontal = 1;
place = "{377, 65}";
type = Stem;
},
{
horizontal = 1;
place = "{642, 76}";
type = Stem;
},
{
place = "{441, 85}";
type = Stem;
}
);
layerId = "1038C536-374A-461C-9C15-505D839D4AAF";
paths = (
{
closed = 1;
nodes = (
"497 644 LINE",
"497 718 LINE",
"85 718 LINE",
"85 642 LINE",
"391 642 LINE",
"179 415 LINE",
"190 370 LINE",
"215 375 OFFCURVE",
"238 377 OFFCURVE",
"262 377 CURVE SMOOTH",
"362 377 OFFCURVE",
"441 334 OFFCURVE",
"441 221 CURVE SMOOTH",
"441 123 OFFCURVE",
"374 63 OFFCURVE",
"285 63 CURVE SMOOTH",
"196 63 OFFCURVE",
"143 115 OFFCURVE",
"113 206 CURVE",
"44 156 LINE",
"80 56 OFFCURVE",
"165 -13 OFFCURVE",
"284 -13 CURVE SMOOTH",
"423 -13 OFFCURVE",
"526 93 OFFCURVE",
"526 225 CURVE SMOOTH",
"526 361 OFFCURVE",
"429 438 OFFCURVE",
"302 442 CURVE"
);
}
);
width = 594;
}
);
unicode = 0033;
},
{
color = (153, 255, 154, 255);
glyphname = four;
layers = (
{
hints = (
{
horizontal = 1;
place = "{136, 144}";
type = Stem;
},
{
horizontal = 1;
place = "{705, -20}";
target = down;
type = TopGhost;
},
{
horizontal = 1;
place = "{0, 21}";
target = up;
type = BottomGhost;
},
{
place = "{399, 188}";
type = Stem;
}
);
layerId = "5489E6BA-21ED-4BE5-8B01-6EB821105F89";
paths = (
{
closed = 1;
nodes = (
"391 705 LINE",
"28 274 LINE",
"60 136 LINE",
"399 136 LINE",
"399 0 LINE",
"587 0 LINE",
"587 136 LINE",
"676 136 LINE",
"676 281 LINE",
"587 281 LINE",
"587 705 LINE"
);
},
{
closed = 1;
nodes = (
"399 281 LINE",
"232 281 LINE",
"399 481 LINE"
);
}
);
width = 699;
},
{
hints = (
{
horizontal = 1;
place = "{153, 73}";
type = Stem;
},
{
horizontal = 1;
place = "{712, -20}";
target = down;
type = TopGhost;
},
{
horizontal = 1;
place = "{0, 21}";
target = up;
type = BottomGhost;
},
{
place = "{407, 81}";
type = Stem;
}
);
layerId = "1038C536-374A-461C-9C15-505D839D4AAF";
paths = (
{
closed = 1;
nodes = (
"361 712 LINE",
"16 229 LINE",
"32 153 LINE",
"406 153 LINE",
"406 0 LINE",
"488 0 LINE",
"488 153 LINE",
"586 153 LINE",
"586 226 LINE",
"488 226 LINE",
"488 712 LINE"
);
},
{
closed = 1;
nodes = (
"406 226 LINE",
"113 226 LINE",
"406 635 LINE"
);
}
);
width = 609;
}
);
unicode = 0034;
},
{
color = (153, 255, 154, 255);
glyphname = five;
layers = (
{
hints = (
{
horizontal = 1;
place = "{-14, 165}";
type = Stem;
},
{
horizontal = 1;
place = "{316, 143}";
type = Stem;
},
{
horizontal = 1;
place = "{540, 160}";
type = Stem;
},
{
place = "{108, 160}";
type = Stem;
},
{
place = "{428, 189}";
type = Stem;
}
);
layerId = "5489E6BA-21ED-4BE5-8B01-6EB821105F89";
paths = (
{
closed = 1;
nodes = (
"213 281 LINE",
"246 301 OFFCURVE",
"282 316 OFFCURVE",
"325 316 CURVE SMOOTH",
"386 316 OFFCURVE",
"428 285 OFFCURVE",
"428 235 CURVE",
"428 185 OFFCURVE",
"389 151 OFFCURVE",
"325 151 CURVE SMOOTH",
"266 151 OFFCURVE",
"212 179 OFFCURVE",
"155 227 CURVE",
"44 97 LINE",
"117 29 OFFCURVE",
"204 -14 OFFCURVE",
"328 -14 CURVE SMOOTH",
"498 -14 OFFCURVE",
"617 81 OFFCURVE",
"617 237 CURVE",
"617 389 OFFCURVE",
"503 459 OFFCURVE",
"377 459 CURVE SMOOTH",
"330 459 OFFCURVE",
"297 449 OFFCURVE",
"265 434 CURVE",
"271 540 LINE",
"586 540 LINE",
"586 700 LINE",
"118 700 LINE",
"98 345 LINE"
);
}
);
width = 666;
},
{
hints = (
{
horizontal = 1;
place = "{-13, 75}";
type = Stem;
},
{
horizontal = 1;
place = "{371, 73}";
type = Stem;
},
{
horizontal = 1;
place = "{630, 75}";
type = Stem;
},
{
place = "{433, 85}";
type = Stem;
}
);
layerId = "1038C536-374A-461C-9C15-505D839D4AAF";
paths = (
{
closed = 1;
nodes = (
"157 350 LINE",
"189 362 OFFCURVE",
"220 369 OFFCURVE",
"255 369 CURVE SMOOTH",
"357 369 OFFCURVE",
"433 306 OFFCURVE",
"433 218 CURVE SMOOTH",
"433 127 OFFCURVE",
"369 62 OFFCURVE",
"266 62 CURVE SMOOTH",
"200 62 OFFCURVE",
"142 91 OFFCURVE",
"93 139 CURVE",
"44 83 LINE",
"107 23 OFFCURVE",
"170 -13 OFFCURVE",
"266 -13 CURVE SMOOTH",
"418 -13 OFFCURVE",
"518 81 OFFCURVE",
"518 222 CURVE SMOOTH",
"518 357 OFFCURVE",
"410 444 OFFCURVE",
"277 444 CURVE SMOOTH",
"240 444 OFFCURVE",
"208 436 OFFCURVE",
"170 424 CURVE",
"192 630 LINE",
"488 630 LINE",
"495 705 LINE",
"124 705 LINE",
"92 381 LINE"
);
}
);
width = 588;
}
);
unicode = 0035;
},
{
color = (153, 255, 154, 255);
glyphname = six;
layers = (
{
hints = (
{
horizontal = 1;
place = "{-14, 151}";
type = Stem;
},
{
horizontal = 1;
place = "{319, 139}";
type = Stem;
},
{
horizontal = 1;
place = "{706, -20}";
target = down;
type = TopGhost;
},
{
place = "{30, 196}";
type = Stem;
},
{
place = "{422, 189}";
type = Stem;
}
);
layerId = "5489E6BA-21ED-4BE5-8B01-6EB821105F89";
paths = (
{
closed = 1;
nodes = (
"288 706 LINE",
"160 515 LINE SMOOTH",
"59 363 OFFCURVE",
"30 296 OFFCURVE",
"30 222 CURVE",
"30 84 OFFCURVE",
"144 -14 OFFCURVE",
"329 -14 CURVE SMOOTH",
"488 -14 OFFCURVE",
"611 83 OFFCURVE",
"611 240 CURVE",
"611 380 OFFCURVE",
"533 458 OFFCURVE",
"410 458 CURVE SMOOTH",
"341 458 OFFCURVE",
"316 441 OFFCURVE",
"281 414 CURVE",
"491 706 LINE"
);
},
{
closed = 1;
nodes = (
"226 280 OFFCURVE",
"262 319 OFFCURVE",
"323 319 CURVE SMOOTH",
"384 319 OFFCURVE",
"422 279 OFFCURVE",
"422 229 CURVE",
"422 178 OFFCURVE",
"386 137 OFFCURVE",
"325 137 CURVE SMOOTH",
"264 137 OFFCURVE",
"226 179 OFFCURVE",
"226 230 CURVE SMOOTH"
);
}
);
width = 637;
},
{
hints = (
{
horizontal = 1;
place = "{-14, 72}";
type = Stem;
},
{
horizontal = 1;
place = "{360, 68}";
type = Stem;
},
{
place = "{36, 85}";
type = Stem;
},
{
place = "{439, 86}";
type = Stem;
}
);
layerId = "1038C536-374A-461C-9C15-505D839D4AAF";
paths = (
{
closed = 1;
nodes = (
"304 706 LINE",
"133 447 LINE SMOOTH",
"70 351 OFFCURVE",
"36 296 OFFCURVE",
"36 224 CURVE SMOOTH",
"36 75 OFFCURVE",
"146 -14 OFFCURVE",
"283 -14 CURVE SMOOTH",
"420 -14 OFFCURVE",
"525 81 OFFCURVE",
"525 215 CURVE SMOOTH",
"525 345 OFFCURVE",
"425 428 OFFCURVE",
"302 428 CURVE SMOOTH",
"263 428 OFFCURVE",
"230 426 OFFCURVE",
"193 399 CURVE",
"399 706 LINE"
);
},
{
closed = 1;
nodes = (
"122 292 OFFCURVE",
"187 360 OFFCURVE",
"282 360 CURVE SMOOTH",
"375 360 OFFCURVE",
"439 299 OFFCURVE",
"439 213 CURVE SMOOTH",
"439 123 OFFCURVE",
"373 58 OFFCURVE",
"282 58 CURVE SMOOTH",
"193 58 OFFCURVE",
"122 125 OFFCURVE",
"122 209 CURVE SMOOTH"
);
}
);
width = 559;
}
);
unicode = 0036;
},
{
color = (153, 255, 154, 255);
glyphname = seven;
layers = (
{
hints = (
{
horizontal = 1;
place = "{537, 163}";
type = Stem;
},
{
horizontal = 1;
place = "{0, 21}";
target = up;
type = BottomGhost;
}
);
layerId = "5489E6BA-21ED-4BE5-8B01-6EB821105F89";
paths = (
{
closed = 1;
nodes = (
"587 554 LINE",
"587 700 LINE",
"48 700 LINE",
"48 537 LINE",
"372 537 LINE",
"64 0 LINE",
"278 0 LINE"
);
}
);
width = 636;
},
{
hints = (
{
horizontal = 1;
place = "{630, 75}";
type = Stem;
},
{
horizontal = 1;
place = "{0, 21}";
target = up;
type = BottomGhost;
}
);
layerId = "1038C536-374A-461C-9C15-505D839D4AAF";
paths = (
{
closed = 1;
nodes = (
"539 629 LINE",
"539 705 LINE",
"60 705 LINE",
"60 630 LINE",
"450 630 LINE",
"106 0 LINE",
"199 0 LINE"
);
}
);
width = 587;
}
);
unicode = 0037;
},
{
color = (153, 255, 154, 255);
glyphname = eight;
layers = (
{
hints = (
{
place = "{31, 187}";
type = Stem;
},
{
place = "{55, 178}";
type = Stem;
},
{
place = "{405, 178}";
type = Stem;
},
{
place = "{420, 187}";
type = Stem;
},
{
horizontal = 1;
place = "{-12, 145}";
type = Stem;
},
{
horizontal = 1;
place = "{290, 126}";
type = Stem;
},
{
horizontal = 1;
place = "{568, 144}";
type = Stem;
}
);
layerId = "5489E6BA-21ED-4BE5-8B01-6EB821105F89";
paths = (
{
closed = 1;
nodes = (
"583 628 OFFCURVE",
"476 712 OFFCURVE",
"319 712 CURVE SMOOTH",
"162 712 OFFCURVE",
"55 628 OFFCURVE",
"55 516 CURVE",
"55 441 OFFCURVE",
"97 393 OFFCURVE",
"151 363 CURVE",
"76 331 OFFCURVE",
"31 273 OFFCURVE",
"31 195 CURVE",
"31 73 OFFCURVE",
"151 -12 OFFCURVE",
"319 -12 CURVE SMOOTH",
"487 -12 OFFCURVE",
"607 71 OFFCURVE",
"607 196 CURVE",
"607 272 OFFCURVE",
"558 330 OFFCURVE",
"487 363 CURVE",
"541 393 OFFCURVE",
"583 441 OFFCURVE",
"583 516 CURVE SMOOTH"
);
},
{
closed = 1;
nodes = (
"233 534 OFFCURVE",
"266 567 OFFCURVE",
"319 567 CURVE SMOOTH",
"372 567 OFFCURVE",
"405 533 OFFCURVE",
"405 493 CURVE",
"405 452 OFFCURVE",
"371 416 OFFCURVE",
"319 416 CURVE SMOOTH",
"267 416 OFFCURVE",
"233 454 OFFCURVE",
"233 494 CURVE SMOOTH"
);
},
{
closed = 1;
nodes = (
"218 259 OFFCURVE",
"260 290 OFFCURVE",
"319 290 CURVE SMOOTH",
"378 290 OFFCURVE",
"420 259 OFFCURVE",
"420 214 CURVE",
"420 172 OFFCURVE",
"384 133 OFFCURVE",
"319 133 CURVE SMOOTH",
"254 133 OFFCURVE",
"218 172 OFFCURVE",
"218 214 CURVE SMOOTH"
);
}
);
width = 637;
},
{
hints = (
{
place = "{39, 86}";
type = Stem;
},
{
place = "{66, 83}";
type = Stem;
},
{
place = "{425, 83}";
type = Stem;
},
{
place = "{449, 59}";
type = Stem;
},
{
place = "{449, 85}";
type = Stem;
},
{
horizontal = 1;
place = "{-12, 70}";
type = Stem;
},
{
horizontal = 1;
place = "{332, 71}";
type = Stem;
},
{
horizontal = 1;
place = "{646, 72}";
type = Stem;
}
);
layerId = "1038C536-374A-461C-9C15-505D839D4AAF";
paths = (
{
closed = 1;
nodes = (
"508 641 OFFCURVE",
"404 718 OFFCURVE",
"286 718 CURVE SMOOTH",
"166 718 OFFCURVE",
"66 640 OFFCURVE",
"66 531 CURVE SMOOTH",
"66 460 OFFCURVE",
"106 402 OFFCURVE",
"176 370 CURVE",
"90 333 OFFCURVE",
"39 273 OFFCURVE",
"39 190 CURVE SMOOTH",
"39 75 OFFCURVE",
"146 -12 OFFCURVE",
"286 -12 CURVE SMOOTH",
"425 -12 OFFCURVE",
"534 69 OFFCURVE",
"534 192 CURVE SMOOTH",
"534 274 OFFCURVE",
"482 336 OFFCURVE",
"396 369 CURVE",
"463 403 OFFCURVE",
"508 455 OFFCURVE",
"508 528 CURVE SMOOTH"
);
},
{
closed = 1;
nodes = (
"149 595 OFFCURVE",
"208 646 OFFCURVE",
"286 646 CURVE SMOOTH",
"364 646 OFFCURVE",
"425 595 OFFCURVE",
"425 526 CURVE SMOOTH",
"425 453 OFFCURVE",
"363 403 OFFCURVE",
"286 403 CURVE SMOOTH",
"211 403 OFFCURVE",
"149 454 OFFCURVE",
"149 525 CURVE SMOOTH"
);
},
{
closed = 1;
nodes = (
"125 274 OFFCURVE",
"193 331 OFFCURVE",
"286 331 CURVE SMOOTH",
"380 331 OFFCURVE",
"448 275 OFFCURVE",
"448 196 CURVE SMOOTH",
"448 121 OFFCURVE",
"382 60 OFFCURVE",
"286 60 CURVE SMOOTH",
"188 60 OFFCURVE",
"125 121 OFFCURVE",
"125 196 CURVE SMOOTH"
);
}
);
width = 572;
}
);
unicode = 0038;
},
{
color = (153, 255, 154, 255);
glyphname = nine;
layers = (
{
hints = (
{
horizontal = 1;
place = "{248, 139}";
type = Stem;
},
{
horizontal = 1;
place = "{569, 151}";
type = Stem;
},
{
horizontal = 1;
place = "{0, 21}";
target = up;
type = BottomGhost;
},
{
place = "{27, 189}";
type = Stem;
},
{
place = "{412, 196}";
type = Stem;
}
);
layerId = "5489E6BA-21ED-4BE5-8B01-6EB821105F89";
paths = (
{
closed = 1;
nodes = (
"350 0 LINE",
"528 277 LINE SMOOTH",
"593 379 OFFCURVE",
"608 433 OFFCURVE",
"608 484 CURVE",
"608 622 OFFCURVE",
"496 720 OFFCURVE",
"305 720 CURVE SMOOTH",
"152 720 OFFCURVE",
"27 625 OFFCURVE",
"27 468 CURVE",
"27 328 OFFCURVE",
"105 248 OFFCURVE",
"228 248 CURVE SMOOTH",
"287 248 OFFCURVE",
"320 264 OFFCURVE",
"357 292 CURVE",
"147 0 LINE"
);
},
{
closed = 1;
nodes = (
"412 428 OFFCURVE",
"376 387 OFFCURVE",
"315 387 CURVE SMOOTH",
"254 387 OFFCURVE",
"216 429 OFFCURVE",
"216 479 CURVE",
"216 530 OFFCURVE",
"252 569 OFFCURVE",
"313 569 CURVE SMOOTH",
"374 569 OFFCURVE",
"412 529 OFFCURVE",
"412 478 CURVE SMOOTH"
);
}
);
width = 642;
},
{
hints = (
{
horizontal = 1;
place = "{274, 71}";
type = Stem;
},
{
horizontal = 1;
place = "{647, 73}";
type = Stem;
},
{
place = "{43, 86}";
type = Stem;
},
{
place = "{447, 84}";
type = Stem;
}
);
layerId = "1038C536-374A-461C-9C15-505D839D4AAF";
paths = (
{
closed = 1;
nodes = (
"263 -2 LINE",
"433 248 LINE SMOOTH",
"481 318 OFFCURVE",
"531 391 OFFCURVE",
"531 479 CURVE SMOOTH",
"531 627 OFFCURVE",
"424 720 OFFCURVE",
"284 720 CURVE SMOOTH",
"148 720 OFFCURVE",
"43 621 OFFCURVE",
"43 490 CURVE SMOOTH",
"43 361 OFFCURVE",
"146 272 OFFCURVE",
"269 272 CURVE SMOOTH",
"310 272 OFFCURVE",
"338 280 OFFCURVE",
"374 306 CURVE",
"170 -2 LINE"
);
},
{
closed = 1;
nodes = (
"445 413 OFFCURVE",
"379 345 OFFCURVE",
"286 345 CURVE SMOOTH",
"195 345 OFFCURVE",
"129 408 OFFCURVE",
"129 494 CURVE SMOOTH",
"129 580 OFFCURVE",
"193 647 OFFCURVE",
"285 647 CURVE SMOOTH",
"373 647 OFFCURVE",
"445 579 OFFCURVE",
"445 495 CURVE SMOOTH"
);
}
);
width = 567;
}
);
unicode = 0039;
},
{
color = (153, 255, 154, 255);
glyphname = colon;
layers = (
{
hints = (
{
horizontal = 1;
place = "{-13, 219}";
type = Stem;
},
{
horizontal = 1;
place = "{333, 219}";
type = Stem;
},
{
place = "{52, 225}";
type = Stem;
}
);
layerId = "5489E6BA-21ED-4BE5-8B01-6EB821105F89";
paths = (
{
closed = 1;
nodes = (
"52 25 OFFCURVE",
"102 -13 OFFCURVE",
"164 -13 CURVE",
"227 -13 OFFCURVE",
"277 25 OFFCURVE",
"277 97 CURVE",
"277 168 OFFCURVE",
"227 206 OFFCURVE",
"164 206 CURVE",
"102 206 OFFCURVE",
"52 168 OFFCURVE",
"52 97 CURVE SMOOTH"
);
},
{
closed = 1;
nodes = (
"52 371 OFFCURVE",
"102 333 OFFCURVE",
"164 333 CURVE",
"227 333 OFFCURVE",
"277 371 OFFCURVE",
"277 443 CURVE",
"277 514 OFFCURVE",
"227 552 OFFCURVE",
"164 552 CURVE",
"102 552 OFFCURVE",
"52 514 OFFCURVE",
"52 443 CURVE SMOOTH"
);
}
);
width = 307;
},
{
hints = (
{
horizontal = 1;
place = "{-10, 120}";
type = Stem;
},
{
horizontal = 1;
place = "{370, 121}";
type = Stem;
},
{
place = "{54, 120}";
type = Stem;
}
);
layerId = "1038C536-374A-461C-9C15-505D839D4AAF";
paths = (
{
closed = 1;
nodes = (
"54 18 OFFCURVE",
"78 -10 OFFCURVE",
"115 -10 CURVE SMOOTH",
"146 -10 OFFCURVE",
"174 18 OFFCURVE",
"174 51 CURVE SMOOTH",
"174 84 OFFCURVE",
"146 111 OFFCURVE",
"115 111 CURVE SMOOTH",
"78 111 OFFCURVE",
"54 84 OFFCURVE",
"54 51 CURVE SMOOTH"
);
},
{
closed = 1;
nodes = (
"54 397 OFFCURVE",
"78 370 OFFCURVE",
"115 370 CURVE SMOOTH",
"146 370 OFFCURVE",
"174 397 OFFCURVE",
"174 431 CURVE SMOOTH",
"174 464 OFFCURVE",
"146 491 OFFCURVE",
"115 491 CURVE SMOOTH",
"78 491 OFFCURVE",
"54 464 OFFCURVE",
"54 431 CURVE SMOOTH"
);
}
);
width = 212;
}
);
unicode = 003A;
},
{
color = (153, 255, 154, 255);
glyphname = semicolon;
layers = (
{
hints = (
{
horizontal = 1;
place = "{333, 219}";
type = Stem;
},
{
horizontal = 1;
place = "{-164, 21}";
target = up;
type = BottomGhost;
},
{
place = "{20, 225}";
type = Stem;
}
);
layerId = "5489E6BA-21ED-4BE5-8B01-6EB821105F89";
paths = (
{
closed = 1;
nodes = (
"20 371 OFFCURVE",
"70 333 OFFCURVE",
"132 333 CURVE",
"195 333 OFFCURVE",
"245 371 OFFCURVE",
"245 443 CURVE",
"245 514 OFFCURVE",
"195 552 OFFCURVE",
"132 552 CURVE",
"70 552 OFFCURVE",
"20 514 OFFCURVE",
"20 443 CURVE SMOOTH"
);
},
{
closed = 1;
nodes = (
"229 197 LINE",
"58 197 LINE",
"-4 -164 LINE",
"126 -164 LINE"
);
}
);
width = 271;
},
{
hints = (
{
horizontal = 1;
place = "{370, 121}";
type = Stem;
},
{
horizontal = 1;
place = "{-139, 21}";
target = up;
type = BottomGhost;
},
{
place = "{46, 121}";
type = Stem;
}
);
layerId = "1038C536-374A-461C-9C15-505D839D4AAF";
paths = (
{
closed = 1;
nodes = (
"46 397 OFFCURVE",
"71 370 OFFCURVE",
"107 370 CURVE SMOOTH",
"138 370 OFFCURVE",
"167 397 OFFCURVE",
"167 431 CURVE SMOOTH",
"167 464 OFFCURVE",
"138 491 OFFCURVE",
"107 491 CURVE SMOOTH",
"71 491 OFFCURVE",
"46 464 OFFCURVE",
"46 431 CURVE SMOOTH"
);
},
{
closed = 1;
nodes = (
"162 120 LINE",
"61 120 LINE",
"18 -139 LINE",
"88 -139 LINE"
);
}
);
width = 198;
}
);
unicode = 003B;
},
{
color = (153, 255, 154, 255);
glyphname = less;
layers = (
{
hints = (
{
horizontal = 1;
place = "{638, -20}";
target = down;
type = TopGhost;
},
{
horizontal = 1;
place = "{65, 21}";
target = up;
type = BottomGhost;
}
);
layerId = "5489E6BA-21ED-4BE5-8B01-6EB821105F89";
paths = (
{
closed = 1;
nodes = (
"554 638 LINE",
"57 440 LINE",
"57 263 LINE",
"554 65 LINE",
"554 243 LINE",
"227 352 LINE",
"554 461 LINE"
);
}
);
width = 610;
},
{
hints = (
{
horizontal = 1;
place = "{606, -20}";
target = down;
type = TopGhost;
},
{
horizontal = 1;
place = "{79, 21}";
target = up;
type = BottomGhost;
}
);
layerId = "1038C536-374A-461C-9C15-505D839D4AAF";
paths = (
{
closed = 1;
nodes = (
"547 606 LINE",
"69 378 LINE",
"69 307 LINE",
"547 79 LINE",
"547 158 LINE",
"160 343 LINE",
"547 526 LINE"
);
}
);
width = 616;
}
);
unicode = 003C;
},
{
color = (153, 255, 154, 255);
glyphname = equal;
layers = (
{
hints = (
{
horizontal = 1;
place = "{134, 167}";
type = Stem;
},
{
horizontal = 1;
place = "{403, 167}";
type = Stem;
}
);
layerId = "5489E6BA-21ED-4BE5-8B01-6EB821105F89";
paths = (
{
closed = 1;
nodes = (
"42 570 LINE",
"42 403 LINE",
"533 403 LINE",
"533 570 LINE"
);
},
{
closed = 1;
nodes = (
"42 301 LINE",
"42 134 LINE",
"533 134 LINE",
"533 301 LINE"
);
}
);
width = 575;
},
{
hints = (
{
horizontal = 1;
place = "{196, 73}";
type = Stem;
},
{
horizontal = 1;
place = "{438, 75}";
type = Stem;
}
);
layerId = "1038C536-374A-461C-9C15-505D839D4AAF";
paths = (
{
closed = 1;
nodes = (
"42 513 LINE",
"42 438 LINE",
"516 438 LINE",
"516 513 LINE"
);
},
{
closed = 1;
nodes = (
"42 271 LINE",
"42 196 LINE",
"516 196 LINE",
"516 271 LINE"
);
}
);
width = 558;
}
);
unicode = 003D;
},
{
color = (153, 255, 154, 255);
glyphname = greater;
layers = (
{
hints = (
{
horizontal = 1;
place = "{65, 21}";
target = up;
type = BottomGhost;
},
{
horizontal = 1;
place = "{638, -20}";
target = down;
type = TopGhost;
}
);
layerId = "5489E6BA-21ED-4BE5-8B01-6EB821105F89";
paths = (
{
closed = 1;
nodes = (
"57 460 LINE",
"384 351 LINE",
"57 242 LINE",
"57 65 LINE",
"554 263 LINE",
"554 440 LINE",
"57 638 LINE"
);
}
);
width = 610;
},
{
hints = (
{
horizontal = 1;
place = "{80, 21}";
target = up;
type = BottomGhost;
}
);
layerId = "1038C536-374A-461C-9C15-505D839D4AAF";
paths = (
{
closed = 1;
nodes = (
"69 525 LINE",
"455 342 LINE",
"69 160 LINE",
"69 80 LINE",
"546 306 LINE",
"546 379 LINE",
"69 606 LINE"
);
}
);
width = 615;
}
);
unicode = 003E;
},
{
color = (153, 255, 154, 255);
glyphname = question;
layers = (
{
hints = (
{
place = "{155, 187}";
type = Stem;
},
{
place = "{168, 174}";
type = Stem;
},
{
place = "{308, 191}";
type = Stem;
},
{
place = "{168, 202}";
type = Stem;
},
{
horizontal = 1;
place = "{-13, 193}";
type = Stem;
},
{
horizontal = 1;
place = "{547, 162}";
type = Stem;
}
);
layerId = "5489E6BA-21ED-4BE5-8B01-6EB821105F89";
paths = (
{
closed = 1;
nodes = (
"266 547 OFFCURVE",
"308 531 OFFCURVE",
"308 494 CURVE SMOOTH",
"308 465 OFFCURVE",
"281 437 OFFCURVE",
"255 417 CURVE SMOOTH",
"211 383 OFFCURVE",
"168 341 OFFCURVE",
"168 261 CURVE SMOOTH",
"168 218 LINE",
"342 218 LINE",
"342 249 LINE SMOOTH",
"342 286 OFFCURVE",
"353 299 OFFCURVE",
"386 325 CURVE SMOOTH",
"452 376 OFFCURVE",
"499 414 OFFCURVE",
"499 506 CURVE SMOOTH",
"499 637 OFFCURVE",
"385 709 OFFCURVE",
"263 709 CURVE SMOOTH",
"180 709 OFFCURVE",
"101 679 OFFCURVE",
"49 613 CURVE",
"49 455 LINE",
"88 493 OFFCURVE",
"155 547 OFFCURVE",
"228 547 CURVE SMOOTH"
);
},
{
closed = 1;
nodes = (
"155 20 OFFCURVE",
"203 -13 OFFCURVE",
"262 -13 CURVE SMOOTH",
"322 -13 OFFCURVE",
"370 20 OFFCURVE",
"370 84 CURVE SMOOTH",
"370 147 OFFCURVE",
"322 180 OFFCURVE",
"262 180 CURVE SMOOTH",
"203 180 OFFCURVE",
"155 147 OFFCURVE",
"155 84 CURVE SMOOTH"
);
}
);
width = 536;
},
{
hints = (
{
place = "{127, 121}";
type = Stem;
},
{
place = "{141, 82}";
type = Stem;
},
{
place = "{305, 82}";
type = Stem;
},
{
horizontal = 1;
place = "{-9, 118}";
type = Stem;
},
{
horizontal = 1;
place = "{641, 76}";
type = Stem;
}
);
layerId = "1038C536-374A-461C-9C15-505D839D4AAF";
paths = (
{
closed = 1;
nodes = (
"270 641 OFFCURVE",
"305 592 OFFCURVE",
"305 544 CURVE SMOOTH",
"305 496 OFFCURVE",
"272 464 OFFCURVE",
"235 429 CURVE SMOOTH",
"190 386 OFFCURVE",
"141 338 OFFCURVE",
"141 252 CURVE SMOOTH",
"141 190 LINE",
"223 190 LINE",
"223 222 LINE SMOOTH",
"223 294 OFFCURVE",
"245 328 OFFCURVE",
"297 374 CURVE SMOOTH",
"347 420 OFFCURVE",
"387 474 OFFCURVE",
"387 551 CURVE SMOOTH",
"387 649 OFFCURVE",
"318 717 OFFCURVE",
"210 717 CURVE SMOOTH",
"142 717 OFFCURVE",
"84 689 OFFCURVE",
"53 649 CURVE",
"53 552 LINE",
"101 621 OFFCURVE",
"153 641 OFFCURVE",
"200 641 CURVE SMOOTH"
);
},
{
closed = 1;
nodes = (
"127 14 OFFCURVE",
"155 -9 OFFCURVE",
"187 -9 CURVE SMOOTH",
"220 -9 OFFCURVE",
"248 14 OFFCURVE",
"248 50 CURVE SMOOTH",
"248 81 OFFCURVE",
"220 109 OFFCURVE",
"187 109 CURVE SMOOTH",
"155 109 OFFCURVE",
"127 81 OFFCURVE",
"127 50 CURVE SMOOTH"
);
}
);
width = 434;
}
);
unicode = 003F;
},
{
color = (153, 255, 154, 255);
glyphname = at;
layers = (
{
layerId = "E76E8D8D-CF20-432F-9325-6C390ED5088C";
name = public.background;
paths = (
{
closed = 1;
nodes = (
"546 457 OFFCURVE",
"586 406 OFFCURVE",
"586 339 CURVE SMOOTH",
"586 256 OFFCURVE",
"523 175 OFFCURVE",
"442 175 CURVE SMOOTH",
"377 175 OFFCURVE",
"336 228 OFFCURVE",
"336 299 CURVE SMOOTH",
"336 385 OFFCURVE",
"397 457 OFFCURVE",
"478 457 CURVE SMOOTH"
);
},
{
closed = 1;
nodes = (
"743 26 LINE",
"666 -23 OFFCURVE",
"593 -49 OFFCURVE",
"501 -49 CURVE SMOOTH",
"274 -49 OFFCURVE",
"126 108 OFFCURVE",
"126 311 CURVE SMOOTH",
"126 516 OFFCURVE",
"278 674 OFFCURVE",
"484 674 CURVE SMOOTH",
"680 674 OFFCURVE",
"828 531 OFFCURVE",
"828 346 CURVE SMOOTH",
"828 234 OFFCURVE",
"773 158 OFFCURVE",
"710 158 CURVE SMOOTH",
"669 158 OFFCURVE",
"649 190 OFFCURVE",
"649 239 CURVE",
"686 505 LINE",
"616 511 LINE",
"606 446 LINE",
"581 490 OFFCURVE",
"541 524 OFFCURVE",
"474 524 CURVE SMOOTH",
"356 524 OFFCURVE",
"258 420 OFFCURVE",
"258 296 CURVE SMOOTH",
"258 187 OFFCURVE",
"333 111 OFFCURVE",
"433 111 CURVE SMOOTH",
"501 111 OFFCURVE",
"550 147 OFFCURVE",
"583 194 CURVE",
"602 139 OFFCURVE",
"635 109 OFFCURVE",
"694 109 CURVE SMOOTH",
"797 109 OFFCURVE",
"877 200 OFFCURVE",
"877 357 CURVE SMOOTH",
"877 560 OFFCURVE",
"702 719 OFFCURVE",
"485 719 CURVE SMOOTH",
"253 719 OFFCURVE",
"74 538 OFFCURVE",
"74 309 CURVE SMOOTH",
"74 83 OFFCURVE",
"248 -93 OFFCURVE",
"492 -93 CURVE SMOOTH",
"595 -93 OFFCURVE",
"686 -62 OFFCURVE",
"767 -8 CURVE"
);
}
);
width = 888;
},
{
hints = (
{
place = "{57, 42}";
type = Stem;
},
{
place = "{234, 160}";
type = Stem;
},
{
place = "{563, 143}";
type = Stem;
},
{
place = "{889, 42}";
type = Stem;
},
{
horizontal = 1;
place = "{-162, 40}";
type = Stem;
},
{
horizontal = 1;
place = "{59, 63}";
type = Stem;
},
{
horizontal = 1;
place = "{385, 135}";
type = Stem;
},
{
horizontal = 1;
place = "{674, 40}";
type = Stem;
},
{
horizontal = 1;
place = "{59, 135}";
type = Stem;
}
);
layerId = "5489E6BA-21ED-4BE5-8B01-6EB821105F89";
paths = (
{
closed = 1;
nodes = (
"532 385 OFFCURVE",
"563 356 OFFCURVE",
"563 309 CURVE SMOOTH",
"563 245 OFFCURVE",
"520 194 OFFCURVE",
"467 194 CURVE SMOOTH",
"425 194 OFFCURVE",
"394 222 OFFCURVE",
"394 272 CURVE SMOOTH",
"394 335 OFFCURVE",
"436 385 OFFCURVE",
"490 385 CURVE SMOOTH"
);
},
{
closed = 1;
nodes = (
"748 -55 LINE",
"673 -99 OFFCURVE",
"599 -112 OFFCURVE",
"503 -112 CURVE SMOOTH",
"265 -112 OFFCURVE",
"109 52 OFFCURVE",
"109 275 CURVE SMOOTH",
"109 496 OFFCURVE",
"267 667 OFFCURVE",
"500 667 CURVE SMOOTH",
"728 667 OFFCURVE",
"879 518 OFFCURVE",
"879 325 CURVE SMOOTH",
"879 192 OFFCURVE",
"836 122 OFFCURVE",
"771 122 CURVE SMOOTH",
"716 122 OFFCURVE",
"703 175 OFFCURVE",
"710 225 CURVE",
"756 483 LINE",
"601 507 LINE",
"589 446 LINE",
"563 487 OFFCURVE",
"520 520 OFFCURVE",
"455 520 CURVE SMOOTH",
"336 520 OFFCURVE",
"234 403 OFFCURVE",
"234 260 CURVE SMOOTH",
"234 138 OFFCURVE",
"313 59 OFFCURVE",
"417 59 CURVE SMOOTH",
"479 59 OFFCURVE",
"526 89 OFFCURVE",
"564 133 CURVE",
"588 92 OFFCURVE",
"634 57 OFFCURVE",
"718 57 CURVE SMOOTH",
"827 57 OFFCURVE",
"931 144 OFFCURVE",
"931 325 CURVE SMOOTH",
"931 538 OFFCURVE",
"748 714 OFFCURVE",
"500 714 CURVE SMOOTH",
"248 714 OFFCURVE",
"57 516 OFFCURVE",
"57 275 CURVE SMOOTH",
"57 33 OFFCURVE",
"245 -162 OFFCURVE",
"503 -162 CURVE SMOOTH",
"607 -162 OFFCURVE",
"691 -134 OFFCURVE",
"768 -87 CURVE"
);
}
);
width = 978;
},
{
hints = (
{
place = "{45, 52}";
type = Stem;
},
{
place = "{229, 78}";
type = Stem;
},
{
place = "{557, 63}";
type = Stem;
},
{
place = "{799, 49}";
type = Stem;
},
{
horizontal = 1;
place = "{-93, 44}";
type = Stem;
},
{
horizontal = 1;
place = "{111, 47}";
type = Stem;
},
{
horizontal = 1;
place = "{457, 67}";
type = Stem;
},
{
horizontal = 1;
place = "{674, 45}";
type = Stem;
},
{
horizontal = 1;
place = "{111, 64}";
type = Stem;
}
);
layerId = "1038C536-374A-461C-9C15-505D839D4AAF";
paths = (
{
closed = 1;
nodes = (
"517 457 OFFCURVE",
"557 406 OFFCURVE",
"557 339 CURVE SMOOTH",
"557 256 OFFCURVE",
"494 175 OFFCURVE",
"413 175 CURVE SMOOTH",
"348 175 OFFCURVE",
"307 228 OFFCURVE",
"307 299 CURVE SMOOTH",
"307 385 OFFCURVE",
"368 457 OFFCURVE",
"449 457 CURVE SMOOTH"
);
},
{
closed = 1;
nodes = (
"714 26 LINE",
"637 -23 OFFCURVE",
"564 -49 OFFCURVE",
"472 -49 CURVE SMOOTH",
"245 -49 OFFCURVE",
"97 108 OFFCURVE",
"97 311 CURVE SMOOTH",
"97 516 OFFCURVE",
"249 674 OFFCURVE",
"455 674 CURVE SMOOTH",
"651 674 OFFCURVE",
"799 531 OFFCURVE",
"799 346 CURVE SMOOTH",
"799 234 OFFCURVE",
"744 158 OFFCURVE",
"681 158 CURVE SMOOTH",
"640 158 OFFCURVE",
"620 190 OFFCURVE",
"620 239 CURVE",
"657 505 LINE",
"587 511 LINE",
"577 446 LINE",
"552 490 OFFCURVE",
"512 524 OFFCURVE",
"445 524 CURVE SMOOTH",
"327 524 OFFCURVE",
"229 420 OFFCURVE",
"229 296 CURVE SMOOTH",
"229 187 OFFCURVE",
"304 111 OFFCURVE",
"404 111 CURVE SMOOTH",
"472 111 OFFCURVE",
"521 147 OFFCURVE",
"554 194 CURVE",
"573 139 OFFCURVE",
"606 109 OFFCURVE",
"665 109 CURVE SMOOTH",
"768 109 OFFCURVE",
"848 200 OFFCURVE",
"848 357 CURVE SMOOTH",
"848 560 OFFCURVE",
"673 719 OFFCURVE",
"456 719 CURVE SMOOTH",
"224 719 OFFCURVE",
"45 538 OFFCURVE",
"45 309 CURVE SMOOTH",
"45 83 OFFCURVE",
"219 -93 OFFCURVE",
"463 -93 CURVE SMOOTH",
"566 -93 OFFCURVE",
"657 -62 OFFCURVE",
"738 -8 CURVE"
);
}
);
width = 888;
}
);
unicode = 0040;
},
{
color = (153, 255, 154, 255);
glyphname = A;
layers = (
{
hints = (
{
horizontal = 1;
place = "{125, 151}";
type = Stem;
},
{
horizontal = 1;
place = "{0, 21}";
target = up;
type = BottomGhost;
},
{
horizontal = 1;
place = "{705, -20}";
target = down;
type = TopGhost;
}
);
layerId = "5489E6BA-21ED-4BE5-8B01-6EB821105F89";
paths = (
{
closed = 1;
nodes = (
"539 125 LINE",
"590 0 LINE",
"798 0 LINE",
"500 705 LINE",
"313 705 LINE",
"15 0 LINE",
"219 0 LINE",
"269 125 LINE"
);
},
{
closed = 1;
nodes = (
"405 475 LINE",
"483 276 LINE",
"326 276 LINE"
);
}
);
width = 823;
},
{
hints = (
{
horizontal = 1;
place = "{197, 75}";
type = Stem;
},
{
horizontal = 1;
place = "{0, 21}";
target = up;
type = BottomGhost;
},
{
horizontal = 1;
place = "{705, -20}";
target = down;
type = TopGhost;
}
);
layerId = "1038C536-374A-461C-9C15-505D839D4AAF";
paths = (
{
closed = 1;
nodes = (
"536 197 LINE",
"620 0 LINE",
"713 0 LINE",
"404 705 LINE",
"334 705 LINE",
"26 0 LINE",
"117 0 LINE",
"202 197 LINE"
);
},
{
closed = 1;
nodes = (
"369 606 LINE",
"504 272 LINE",
"234 272 LINE"
);
}
);
width = 737;
}
);
unicode = 0041;
},
{
color = (153, 255, 154, 255);
glyphname = B;
layers = (
{
hints = (
{
place = "{65, 189}";
type = Stem;
},
{
place = "{468, 192}";
type = Stem;
},
{
place = "{497, 194}";
type = Stem;
},
{
horizontal = 1;
place = "{0, 156}";
type = Stem;
},
{
horizontal = 1;
place = "{285, 136}";
type = Stem;
},
{
horizontal = 1;
place = "{544, 156}";
type = Stem;
}
);
layerId = "5489E6BA-21ED-4BE5-8B01-6EB821105F89";
paths = (
{
closed = 1;
nodes = (
"65 0 LINE",
"424 0 LINE SMOOTH",
"593 0 OFFCURVE",
"691 75 OFFCURVE",
"691 195 CURVE",
"691 290 OFFCURVE",
"637 338 OFFCURVE",
"552 366 CURVE",
"614 393 OFFCURVE",
"660 443 OFFCURVE",
"660 524 CURVE",
"660 635 OFFCURVE",
"569 700 OFFCURVE",
"422 700 CURVE SMOOTH",
"65 700 LINE"
);
},
{
closed = 1;
nodes = (
"254 544 LINE",
"379 544 LINE SMOOTH",
"436 544 OFFCURVE",
"466 522 OFFCURVE",
"466 484 CURVE",
"466 443 OFFCURVE",
"433 421 OFFCURVE",
"375 421 CURVE SMOOTH",
"254 421 LINE"
);
},
{
closed = 1;
nodes = (
"254 285 LINE",
"401 285 LINE SMOOTH",
"465 285 OFFCURVE",
"497 260 OFFCURVE",
"497 222 CURVE",
"497 181 OFFCURVE",
"461 156 OFFCURVE",
"403 156 CURVE SMOOTH",
"254 156 LINE"
);
}
);
width = 730;
},
{
hints = (
{
place = "{80, 84}";
type = Stem;
},
{
place = "{444, 83}";
type = Stem;
},
{
place = "{505, 22}";
type = Stem;
},
{
place = "{505, 86}";
type = Stem;
},
{
horizontal = 1;
place = "{0, 73}";
type = Stem;
},
{
horizontal = 1;
place = "{322, 74}";
type = Stem;
},
{
horizontal = 1;
place = "{631, 74}";
type = Stem;
}
);
layerId = "1038C536-374A-461C-9C15-505D839D4AAF";
paths = (
{
closed = 1;
nodes = (
"80 0 LINE",
"309 0 LINE SMOOTH",
"511 0 OFFCURVE",
"591 89 OFFCURVE",
"591 194 CURVE SMOOTH",
"591 278 OFFCURVE",
"542 351 OFFCURVE",
"425 366 CURVE",
"493 391 OFFCURVE",
"527 453 OFFCURVE",
"527 527 CURVE SMOOTH",
"527 661 OFFCURVE",
"404 705 OFFCURVE",
"281 705 CURVE SMOOTH",
"80 705 LINE"
);
},
{
closed = 1;
nodes = (
"164 631 LINE",
"291 631 LINE SMOOTH",
"383 631 OFFCURVE",
"443 594 OFFCURVE",
"443 515 CURVE SMOOTH",
"443 448 OFFCURVE",
"396 396 OFFCURVE",
"291 396 CURVE SMOOTH",
"164 396 LINE"
);
},
{
closed = 1;
nodes = (
"164 322 LINE",
"290 322 LINE SMOOTH",
"450 322 OFFCURVE",
"507 278 OFFCURVE",
"507 198 CURVE SMOOTH",
"507 119 OFFCURVE",
"450 74 OFFCURVE",
"323 74 CURVE SMOOTH",
"164 74 LINE"
);
}
);
width = 634;
}
);
unicode = 0042;
},
{
color = (153, 255, 154, 255);
glyphname = C;
layers = (
{
hints = (
{
horizontal = 1;
place = "{-14, 177}";
type = Stem;
},
{
horizontal = 1;
place = "{537, 177}";
type = Stem;
},
{
place = "{36, 200}";
type = Stem;
}
);
layerId = "5489E6BA-21ED-4BE5-8B01-6EB821105F89";
paths = (
{
closed = 1;
nodes = (
"621 248 LINE",
"560 191 OFFCURVE",
"497 163 OFFCURVE",
"423 163 CURVE SMOOTH",
"304 163 OFFCURVE",
"236 246 OFFCURVE",
"236 352 CURVE SMOOTH",
"236 454 OFFCURVE",
"305 537 OFFCURVE",
"423 537 CURVE SMOOTH",
"501 537 OFFCURVE",
"570 502 OFFCURVE",
"616 455 CURVE",
"616 652 LINE",
"562 690 OFFCURVE",
"492 714 OFFCURVE",
"405 714 CURVE SMOOTH",
"193 714 OFFCURVE",
"36 554 OFFCURVE",
"36 350 CURVE",
"36 141 OFFCURVE",
"197 -14 OFFCURVE",
"397 -14 CURVE SMOOTH",
"484 -14 OFFCURVE",
"556 9 OFFCURVE",
"621 54 CURVE"
);
}
);
width = 648;
},
{
hints = (
{
horizontal = 1;
place = "{-14, 77}";
type = Stem;
},
{
horizontal = 1;
place = "{643, 76}";
type = Stem;
},
{
place = "{38, 87}";
type = Stem;
}
);
layerId = "1038C536-374A-461C-9C15-505D839D4AAF";
paths = (
{
closed = 1;
nodes = (
"634 175 LINE",
"568 116 OFFCURVE",
"499 63 OFFCURVE",
"397 63 CURVE SMOOTH",
"238 63 OFFCURVE",
"125 192 OFFCURVE",
"125 352 CURVE SMOOTH",
"125 513 OFFCURVE",
"238 643 OFFCURVE",
"397 643 CURVE SMOOTH",
"506 643 OFFCURVE",
"569 604 OFFCURVE",
"620 547 CURVE",
"620 643 LINE",
"563 687 OFFCURVE",
"496 719 OFFCURVE",
"402 719 CURVE SMOOTH",
"192 719 OFFCURVE",
"38 558 OFFCURVE",
"38 351 CURVE SMOOTH",
"38 144 OFFCURVE",
"194 -14 OFFCURVE",
"399 -14 CURVE SMOOTH",
"499 -14 OFFCURVE",
"571 24 OFFCURVE",
"634 78 CURVE"
);
}
);
width = 668;
}
);
unicode = 0043;
},
{
color = (153, 255, 154, 255);
glyphname = D;
layers = (
{
hints = (
{
horizontal = 1;
place = "{0, 172}";
type = Stem;
},
{
horizontal = 1;
place = "{528, 172}";
type = Stem;
},
{
place = "{65, 194}";
type = Stem;
},
{
place = "{531, 199}";
type = Stem;
}
);
layerId = "5489E6BA-21ED-4BE5-8B01-6EB821105F89";
paths = (
{
closed = 1;
nodes = (
"65 0 LINE",
"331 0 LINE SMOOTH",
"583 0 OFFCURVE",
"730 152 OFFCURVE",
"730 354 CURVE",
"730 556 OFFCURVE",
"585 700 OFFCURVE",
"335 700 CURVE SMOOTH",
"65 700 LINE"
);
},
{
closed = 1;
nodes = (
"259 528 LINE",
"338 528 LINE SMOOTH",
"453 528 OFFCURVE",
"531 464 OFFCURVE",
"531 351 CURVE",
"531 238 OFFCURVE",
"454 172 OFFCURVE",
"338 172 CURVE SMOOTH",
"259 172 LINE"
);
}
);
width = 766;
},
{
hints = (
{
horizontal = 1;
place = "{0, 76}";
type = Stem;
},
{
horizontal = 1;
place = "{632, 73}";
type = Stem;
},
{
place = "{80, 85}";
type = Stem;
},
{
place = "{587, 90}";
type = Stem;
}
);
layerId = "1038C536-374A-461C-9C15-505D839D4AAF";
paths = (
{
closed = 1;
nodes = (
"80 0 LINE",
"300 0 LINE SMOOTH",
"527 0 OFFCURVE",
"677 146 OFFCURVE",
"677 353 CURVE SMOOTH",
"677 567 OFFCURVE",
"515 705 OFFCURVE",
"301 705 CURVE SMOOTH",
"80 705 LINE"
);
},
{
closed = 1;
nodes = (
"165 628 LINE",
"344 628 LINE SMOOTH",
"502 628 OFFCURVE",
"587 482 OFFCURVE",
"587 351 CURVE SMOOTH",
"587 191 OFFCURVE",
"484 76 OFFCURVE",
"296 76 CURVE SMOOTH",
"165 76 LINE"
);
}
);
width = 716;
}
);
unicode = 0044;
},
{
color = (153, 255, 154, 255);
glyphname = E;
layers = (
{
hints = (
{
horizontal = 1;
place = "{0, 165}";
type = Stem;
},
{
horizontal = 1;
place = "{276, 153}";
type = Stem;
},
{
horizontal = 1;
place = "{535, 165}";
type = Stem;
},
{
place = "{65, 192}";
type = Stem;
}
);
layerId = "5489E6BA-21ED-4BE5-8B01-6EB821105F89";
paths = (
{
closed = 1;
nodes = (
"257 276 LINE",
"593 276 LINE",
"593 429 LINE",
"257 429 LINE",
"257 535 LINE",
"628 535 LINE",
"628 700 LINE",
"65 700 LINE",
"65 0 LINE",
"633 0 LINE",
"633 165 LINE",
"257 165 LINE"
);
}
);
width = 673;
},
{
hints = (
{
horizontal = 1;
place = "{0, 76}";
type = Stem;
},
{
horizontal = 1;
place = "{323, 74}";
type = Stem;
},
{
horizontal = 1;
place = "{629, 76}";
type = Stem;
},
{
place = "{80, 86}";
type = Stem;
}
);
layerId = "1038C536-374A-461C-9C15-505D839D4AAF";
paths = (
{
closed = 1;
nodes = (
"166 321 LINE",
"511 321 LINE",
"511 397 LINE",
"166 397 LINE",
"166 629 LINE",
"540 629 LINE",
"540 705 LINE",
"80 705 LINE",
"80 0 LINE",
"551 0 LINE",
"551 76 LINE",
"166 76 LINE"
);
}
);
width = 589;
}
);
unicode = 0045;
},
{
color = (153, 255, 154, 255);
glyphname = F;
layers = (
{
hints = (
{
horizontal = 1;
place = "{250, 161}";
type = Stem;
},
{
horizontal = 1;
place = "{530, 170}";
type = Stem;
},
{
horizontal = 1;
place = "{0, 21}";
target = up;
type = BottomGhost;
},
{
place = "{65, 194}";
type = Stem;
}
);
layerId = "5489E6BA-21ED-4BE5-8B01-6EB821105F89";
paths = (
{
closed = 1;
nodes = (
"259 250 LINE",
"590 250 LINE",
"590 411 LINE",
"259 411 LINE",
"259 530 LINE",
"625 530 LINE",
"625 700 LINE",
"65 700 LINE",
"65 0 LINE",
"259 0 LINE"
);
}
);
width = 678;
},
{
hints = (
{
horizontal = 1;
place = "{315, 74}";
type = Stem;
},
{
horizontal = 1;
place = "{629, 76}";
type = Stem;
},
{
horizontal = 1;
place = "{0, 21}";
target = up;
type = BottomGhost;
},
{
place = "{80, 85}";
type = Stem;
}
);
layerId = "1038C536-374A-461C-9C15-505D839D4AAF";
paths = (
{
closed = 1;
nodes = (
"165 313 LINE",
"506 313 LINE",
"506 389 LINE",
"165 389 LINE",
"165 629 LINE",
"537 629 LINE",
"537 705 LINE",
"80 705 LINE",
"80 -2 LINE",
"165 -2 LINE"
);
}
);
width = 587;
}
);
unicode = 0046;
},
{
color = (153, 255, 154, 255);
glyphname = G;
layers = (
{
hints = (
{
horizontal = 1;
place = "{-14, 167}";
type = Stem;
},
{
horizontal = 1;
place = "{267, 142}";
type = Stem;
},
{
horizontal = 1;
place = "{541, 173}";
type = Stem;
},
{
place = "{36, 199}";
type = Stem;
},
{
place = "{537, 184}";
type = Stem;
}
);
layerId = "5489E6BA-21ED-4BE5-8B01-6EB821105F89";
paths = (
{
closed = 1;
nodes = (
"537 267 LINE",
"537 182 OFFCURVE",
"461 153 OFFCURVE",
"407 153 CURVE SMOOTH",
"313 153 OFFCURVE",
"235 235 OFFCURVE",
"235 349 CURVE SMOOTH",
"235 456 OFFCURVE",
"313 541 OFFCURVE",
"424 541 CURVE SMOOTH",
"489 541 OFFCURVE",
"553 517 OFFCURVE",
"603 475 CURVE",
"603 680 LINE",
"554 701 OFFCURVE",
"480 714 OFFCURVE",
"413 714 CURVE SMOOTH",
"196 714 OFFCURVE",
"36 554 OFFCURVE",
"36 350 CURVE",
"36 138 OFFCURVE",
"199 -14 OFFCURVE",
"397 -14 CURVE SMOOTH",
"552 -14 OFFCURVE",
"721 67 OFFCURVE",
"721 369 CURVE SMOOTH",
"721 409 LINE",
"399 409 LINE",
"399 267 LINE"
);
}
);
width = 774;
},
{
hints = (
{
horizontal = 1;
place = "{-16, 79}";
type = Stem;
},
{
horizontal = 1;
place = "{321, 78}";
type = Stem;
},
{
horizontal = 1;
place = "{643, 76}";
type = Stem;
},
{
place = "{38, 85}";
type = Stem;
},
{
place = "{687, 80}";
type = Stem;
}
);
layerId = "1038C536-374A-461C-9C15-505D839D4AAF";
paths = (
{
closed = 1;
nodes = (
"687 321 LINE",
"687 166 OFFCURVE",
"568 62 OFFCURVE",
"412 62 CURVE SMOOTH",
"246 62 OFFCURVE",
"123 186 OFFCURVE",
"123 352 CURVE SMOOTH",
"123 510 OFFCURVE",
"263 643 OFFCURVE",
"426 643 CURVE SMOOTH",
"523 643 OFFCURVE",
"600 603 OFFCURVE",
"650 553 CURVE",
"650 647 LINE",
"579 699 OFFCURVE",
"498 719 OFFCURVE",
"420 719 CURVE SMOOTH",
"210 719 OFFCURVE",
"38 557 OFFCURVE",
"38 352 CURVE SMOOTH",
"38 149 OFFCURVE",
"192 -16 OFFCURVE",
"406 -16 CURVE SMOOTH",
"653 -16 OFFCURVE",
"767 163 OFFCURVE",
"767 373 CURVE SMOOTH",
"767 399 LINE",
"476 399 LINE",
"476 321 LINE"
);
}
);
width = 827;
}
);
unicode = 0047;
},
{
color = (153, 255, 154, 255);
glyphname = H;
layers = (
{
hints = (
{
horizontal = 1;
place = "{266, 172}";
type = Stem;
},
{
horizontal = 1;
place = "{0, 21}";
target = up;
type = BottomGhost;
},
{
horizontal = 1;
place = "{700, -20}";
target = down;
type = TopGhost;
},
{
place = "{65, 194}";
type = Stem;
},
{
place = "{508, 194}";
type = Stem;
}
);
layerId = "5489E6BA-21ED-4BE5-8B01-6EB821105F89";
paths = (
{
closed = 1;
nodes = (
"65 0 LINE",
"259 0 LINE",
"259 266 LINE",
"508 266 LINE",
"508 0 LINE",
"702 0 LINE",
"702 700 LINE",
"508 700 LINE",
"508 438 LINE",
"259 438 LINE",
"259 700 LINE",
"65 700 LINE"
);
}
);
width = 766;
},
{
hints = (
{
horizontal = 1;
place = "{320, 78}";
type = Stem;
},
{
horizontal = 1;
place = "{0, 21}";
target = up;
type = BottomGhost;
},
{
horizontal = 1;
place = "{706, -20}";
target = down;
type = TopGhost;
},
{
place = "{80, 84}";
type = Stem;
},
{
place = "{544, 86}";
type = Stem;
}
);
layerId = "1038C536-374A-461C-9C15-505D839D4AAF";
paths = (
{
closed = 1;
nodes = (
"80 0 LINE",
"164 0 LINE",
"164 320 LINE",
"546 320 LINE",
"546 0 LINE",
"630 0 LINE",
"630 706 LINE",
"546 706 LINE",
"546 398 LINE",
"164 398 LINE",
"164 706 LINE",
"80 706 LINE"
);
}
);
width = 709;
}
);
unicode = 0048;
},
{
color = (153, 255, 154, 255);
glyphname = I;
layers = (
{
hints = (
{
horizontal = 1;
place = "{700, -20}";
target = down;
type = TopGhost;
},
{
horizontal = 1;
place = "{0, 21}";
target = up;
type = BottomGhost;
},
{
place = "{65, 195}";
type = Stem;
}
);
layerId = "5489E6BA-21ED-4BE5-8B01-6EB821105F89";
paths = (
{
closed = 1;
nodes = (
"260 700 LINE",
"65 700 LINE",
"65 0 LINE",
"260 0 LINE"
);
}
);
width = 324;
},
{
hints = (
{
horizontal = 1;
place = "{705, -20}";
target = down;
type = TopGhost;
},
{
horizontal = 1;
place = "{0, 21}";
target = up;
type = BottomGhost;
},
{
place = "{80, 84}";
type = Stem;
}
);
layerId = "1038C536-374A-461C-9C15-505D839D4AAF";
paths = (
{
closed = 1;
nodes = (
"164 705 LINE",
"80 705 LINE",
"80 0 LINE",
"164 0 LINE"
);
}
);
width = 243;
}
);
unicode = 0049;
},
{
color = (153, 255, 154, 255);
glyphname = J;
layers = (
{
hints = (
{
horizontal = 1;
place = "{-12, 171}";
type = Stem;
},
{
horizontal = 1;
place = "{700, -20}";
target = down;
type = TopGhost;
},
{
place = "{226, 193}";
type = Stem;
}
);
layerId = "5489E6BA-21ED-4BE5-8B01-6EB821105F89";
paths = (
{
closed = 1;
nodes = (
"-3 41 LINE",
"23 22 OFFCURVE",
"49 8 OFFCURVE",
"77 0 CURVE",
"91 -5 OFFCURVE",
"105 -8 OFFCURVE",
"119 -9 CURVE SMOOTH",
"126 -10 OFFCURVE",
"133 -11 OFFCURVE",
"140 -11 CURVE",
"144 -12 OFFCURVE",
"147 -12 OFFCURVE",
"151 -12 CURVE SMOOTH",
"156 -12 LINE",
"159 -12 LINE",
"160 -12 LINE",
"161 -12 LINE",
"310 -12 OFFCURVE",
"403 74 OFFCURVE",
"417 216 CURVE SMOOTH",
"418 229 OFFCURVE",
"419 242 OFFCURVE",
"419 256 CURVE SMOOTH",
"419 471 LINE",
"419 700 LINE",
"355 700 LINE",
"323 700 LINE",
"226 700 LINE",
"226 257 LINE SMOOTH",
"226 192 OFFCURVE",
"187 159 OFFCURVE",
"136 159 CURVE SMOOTH",
"114 159 OFFCURVE",
"93 165 OFFCURVE",
"74 175 CURVE SMOOTH",
"46 189 OFFCURVE",
"21 212 OFFCURVE",
"-3 235 CURVE",
"-3 143 LINE",
"-3 67 LINE",
"-3 52 LINE",
"-3 52 LINE",
"-3 52 LINE"
);
}
);
width = 478;
},
{
hints = (
{
horizontal = 1;
place = "{-11, 76}";
type = Stem;
},
{
horizontal = 1;
place = "{705, -20}";
target = down;
type = TopGhost;
},
{
place = "{214, 86}";
type = Stem;
}
);
layerId = "1038C536-374A-461C-9C15-505D839D4AAF";
paths = (
{
closed = 1;
nodes = (
"4 22 LINE",
"21 12 OFFCURVE",
"41 2 OFFCURVE",
"65 -5 CURVE",
"75 -7 OFFCURVE",
"85 -9 OFFCURVE",
"97 -10 CURVE SMOOTH",
"102 -11 OFFCURVE",
"108 -11 OFFCURVE",
"114 -11 CURVE",
"114 -11 OFFCURVE",
"114 -11 OFFCURVE",
"114 -11 CURVE",
"114 -11 LINE",
"114 -11 LINE",
"114 -11 LINE",
"114 -11 LINE",
"230 -11 OFFCURVE",
"300 65 OFFCURVE",
"300 209 CURVE SMOOTH",
"300 221 OFFCURVE",
"300 238 OFFCURVE",
"300 258 CURVE SMOOTH",
"300 483 LINE",
"300 705 LINE",
"257 705 LINE",
"228 705 LINE",
"214 705 LINE",
"214 207 LINE SMOOTH",
"214 101 OFFCURVE",
"180 65 OFFCURVE",
"116 65 CURVE SMOOTH",
"96 65 OFFCURVE",
"76 69 OFFCURVE",
"57 75 CURVE",
"39 82 OFFCURVE",
"21 91 OFFCURVE",
"4 102 CURVE",
"4 85 LINE",
"4 61 LINE",
"4 38 LINE",
"4 29 LINE",
"4 25 LINE"
);
}
);
width = 373;
}
);
unicode = 004A;
},
{
color = (153, 255, 154, 255);
glyphname = K;
layers = (
{
hints = (
{
horizontal = 1;
place = "{700, -20}";
target = down;
type = TopGhost;
},
{
horizontal = 1;
place = "{0, 21}";
target = up;
type = BottomGhost;
},
{
place = "{65, 194}";
type = Stem;
}
);
layerId = "5489E6BA-21ED-4BE5-8B01-6EB821105F89";
paths = (
{
closed = 1;
nodes = (
"259 700 LINE",
"65 700 LINE",
"65 0 LINE",
"259 0 LINE",
"259 368 LINE",
"506 0 LINE",
"739 0 LINE",
"465 399 LINE",
"730 700 LINE",
"500 700 LINE",
"259 416 LINE"
);
}
);
width = 739;
},
{
hints = (
{
horizontal = 1;
place = "{0, 21}";
target = up;
type = BottomGhost;
},
{
place = "{80, 84}";
type = Stem;
}
);
layerId = "1038C536-374A-461C-9C15-505D839D4AAF";
paths = (
{
closed = 1;
nodes = (
"164 705 LINE",
"80 705 LINE",
"80 0 LINE",
"164 0 LINE",
"164 330 LINE",
"459 0 LINE",
"567 0 LINE",
"236 375 LINE",
"539 705 LINE",
"431 705 LINE",
"164 409 LINE"
);
}
);
width = 557;
}
);
unicode = 004B;
},
{
color = (153, 255, 154, 255);
glyphname = L;
layers = (
{
hints = (
{
horizontal = 1;
place = "{0, 170}";
type = Stem;
},
{
horizontal = 1;
place = "{700, -20}";
target = down;
type = TopGhost;
},
{
place = "{65, 194}";
type = Stem;
}
);
layerId = "5489E6BA-21ED-4BE5-8B01-6EB821105F89";
paths = (
{
closed = 1;
nodes = (
"259 700 LINE",
"65 700 LINE",
"65 0 LINE",
"598 0 LINE",
"598 170 LINE",
"259 170 LINE"
);
}
);
width = 625;
},
{
hints = (
{
horizontal = 1;
place = "{0, 76}";
type = Stem;
},
{
horizontal = 1;
place = "{705, -20}";
target = down;
type = TopGhost;
},
{
place = "{80, 85}";
type = Stem;
}
);
layerId = "1038C536-374A-461C-9C15-505D839D4AAF";
paths = (
{
closed = 1;
nodes = (
"165 705 LINE",
"80 705 LINE",
"80 0 LINE",
"510 0 LINE",
"510 76 LINE",
"165 76 LINE"
);
}
);
width = 532;
}
);
unicode = 004C;
},
{
color = (153, 255, 154, 255);
glyphname = M;
layers = (
{
hints = (
{
horizontal = 1;
place = "{0, 21}";
target = up;
type = BottomGhost;
},
{
horizontal = 1;
place = "{700, -20}";
target = down;
type = TopGhost;
},
{
place = "{50, 190}";
type = Stem;
},
{
place = "{601, 193}";
type = Stem;
}
);
layerId = "5489E6BA-21ED-4BE5-8B01-6EB821105F89";
paths = (
{
closed = 1;
nodes = (
"420 128 LINE",
"601 402 LINE",
"601 0 LINE",
"794 0 LINE",
"794 700 LINE",
"589 700 LINE",
"422 429 LINE",
"255 700 LINE",
"50 700 LINE",
"50 0 LINE",
"240 0 LINE",
"240 400 LINE"
);
}
);
width = 845;
},
{
hints = (
{
horizontal = 1;
place = "{0, 21}";
target = up;
type = BottomGhost;
},
{
horizontal = 1;
place = "{700, -20}";
target = down;
type = TopGhost;
},
{
place = "{61, 83}";
type = Stem;
},
{
place = "{691, 84}";
type = Stem;
}
);
layerId = "1038C536-374A-461C-9C15-505D839D4AAF";
paths = (
{
closed = 1;
nodes = (
"418 153 LINE",
"691 565 LINE",
"691 0 LINE",
"775 0 LINE",
"775 700 LINE",
"693 700 LINE",
"418 279 LINE",
"143 700 LINE",
"61 700 LINE",
"61 0 LINE",
"145 0 LINE",
"145 565 LINE"
);
}
);
width = 836;
}
);
unicode = 004D;
},
{
color = (153, 255, 154, 255);
glyphname = N;
layers = (
{
hints = (
{
horizontal = 1;
place = "{700, -20}";
target = down;
type = TopGhost;
},
{
horizontal = 1;
place = "{0, 21}";
target = up;
type = BottomGhost;
},
{
place = "{65, 192}";
type = Stem;
},
{
place = "{534, 192}";
type = Stem;
}
);
layerId = "5489E6BA-21ED-4BE5-8B01-6EB821105F89";
paths = (
{
closed = 1;
nodes = (
"246 700 LINE",
"65 700 LINE",
"65 0 LINE",
"257 0 LINE",
"257 384 LINE",
"556 0 LINE",
"726 0 LINE",
"726 700 LINE",
"534 700 LINE",
"534 330 LINE"
);
}
);
width = 792;
},
{
hints = (
{
horizontal = 1;
place = "{0, 21}";
target = up;
type = BottomGhost;
},
{
horizontal = 1;
place = "{705, -20}";
target = down;
type = TopGhost;
},
{
place = "{80, 83}";
type = Stem;
},
{
place = "{584, 82}";
type = Stem;
}
);
layerId = "1038C536-374A-461C-9C15-505D839D4AAF";
paths = (
{
closed = 1;
nodes = (
"165 700 LINE",
"80 700 LINE",
"80 0 LINE",
"162 0 LINE",
"162 577 LINE",
"582 0 LINE",
"666 0 LINE",
"666 705 LINE",
"584 705 LINE",
"584 126 LINE"
);
}
);
width = 745;
}
);
unicode = 004E;
},
{
color = (153, 255, 154, 255);
glyphname = O;
layers = (
{
layerId = "E76E8D8D-CF20-432F-9325-6C390ED5088C";
name = public.background;
paths = (
{
closed = 1;
nodes = (
"194 770 OFFCURVE",
"26 607 OFFCURVE",
"26 376 CURVE SMOOTH",
"26 144 OFFCURVE",
"191 -16 OFFCURVE",
"421 -16 CURVE SMOOTH",
"651 -16 OFFCURVE",
"816 144 OFFCURVE",
"816 376 CURVE SMOOTH",
"816 607 OFFCURVE",
"648 770 OFFCURVE",
"421 770 CURVE SMOOTH"
);
},
{
closed = 1;
nodes = (
"534 573 OFFCURVE",
"602 478 OFFCURVE",
"602 377 CURVE SMOOTH",
"602 276 OFFCURVE",
"544 175 OFFCURVE",
"421 175 CURVE SMOOTH",
"298 175 OFFCURVE",
"240 276 OFFCURVE",
"240 377 CURVE SMOOTH",
"240 478 OFFCURVE",
"308 573 OFFCURVE",
"421 573 CURVE SMOOTH"
);
}
);
width = 808;
},
{
hints = (
{
horizontal = 1;
place = "{-14, 175}";
type = Stem;
},
{
horizontal = 1;
place = "{539, 175}";
type = Stem;
},
{
place = "{36, 199}";
type = Stem;
},
{
place = "{592, 198}";
type = Stem;
}
);
layerId = "5489E6BA-21ED-4BE5-8B01-6EB821105F89";
paths = (
{
closed = 1;
nodes = (
"790 553 OFFCURVE",
"629 714 OFFCURVE",
"413 714 CURVE SMOOTH",
"198 714 OFFCURVE",
"36 551 OFFCURVE",
"36 350 CURVE",
"36 149 OFFCURVE",
"196 -14 OFFCURVE",
"412 -14 CURVE SMOOTH",
"627 -14 OFFCURVE",
"790 151 OFFCURVE",
"790 352 CURVE SMOOTH"
);
},
{
closed = 1;
nodes = (
"591 249 OFFCURVE",
"520 161 OFFCURVE",
"413 161 CURVE SMOOTH",
"308 161 OFFCURVE",
"235 251 OFFCURVE",
"235 352 CURVE",
"235 453 OFFCURVE",
"306 539 OFFCURVE",
"412 539 CURVE SMOOTH",
"518 539 OFFCURVE",
"591 451 OFFCURVE",
"591 350 CURVE SMOOTH"
);
}
);
width = 826;
},
{
hints = (
{
horizontal = 1;
place = "{-14, 77}";
type = Stem;
},
{
horizontal = 1;
place = "{642, 77}";
type = Stem;
},
{
place = "{38, 87}";
type = Stem;
},
{
place = "{682, 87}";
type = Stem;
}
);
layerId = "1038C536-374A-461C-9C15-505D839D4AAF";
paths = (
{
closed = 1;
nodes = (
"769 553 OFFCURVE",
"616 719 OFFCURVE",
"406 719 CURVE SMOOTH",
"192 719 OFFCURVE",
"38 555 OFFCURVE",
"38 351 CURVE SMOOTH",
"38 149 OFFCURVE",
"191 -14 OFFCURVE",
"404 -14 CURVE SMOOTH",
"614 -14 OFFCURVE",
"769 151 OFFCURVE",
"769 354 CURVE SMOOTH"
);
},
{
closed = 1;
nodes = (
"682 191 OFFCURVE",
"566 63 OFFCURVE",
"405 63 CURVE SMOOTH",
"240 63 OFFCURVE",
"125 190 OFFCURVE",
"125 354 CURVE SMOOTH",
"125 515 OFFCURVE",
"240 642 OFFCURVE",
"405 642 CURVE SMOOTH",
"566 642 OFFCURVE",
"682 512 OFFCURVE",
"682 350 CURVE SMOOTH"
);
}
);
width = 808;
}
);
unicode = 004F;
},
{
color = (153, 255, 154, 255);
glyphname = P;
layers = (
{
hints = (
{
horizontal = 1;
place = "{200, 152}";
type = Stem;
},
{
horizontal = 1;
place = "{537, 163}";
type = Stem;
},
{
horizontal = 1;
place = "{0, 21}";
target = up;
type = BottomGhost;
},
{
place = "{65, 194}";
type = Stem;
},
{
place = "{462, 194}";
type = Stem;
}
);
layerId = "5489E6BA-21ED-4BE5-8B01-6EB821105F89";
paths = (
{
closed = 1;
nodes = (
"65 0 LINE",
"259 0 LINE",
"259 200 LINE",
"355 200 LINE SMOOTH",
"529 200 OFFCURVE",
"656 289 OFFCURVE",
"656 454 CURVE",
"656 609 OFFCURVE",
"542 700 OFFCURVE",
"365 700 CURVE SMOOTH",
"65 700 LINE"
);
},
{
closed = 1;
nodes = (
"259 537 LINE",
"350 537 LINE SMOOTH",
"420 537 OFFCURVE",
"462 505 OFFCURVE",
"462 445 CURVE",
"462 390 OFFCURVE",
"420 352 OFFCURVE",
"351 352 CURVE SMOOTH",
"259 352 LINE"
);
}
);
width = 685;
},
{
hints = (
{
horizontal = 1;
place = "{281, 74}";
type = Stem;
},
{
horizontal = 1;
place = "{629, 76}";
type = Stem;
},
{
horizontal = 1;
place = "{0, 21}";
target = up;
type = BottomGhost;
},
{
place = "{80, 85}";
type = Stem;
},
{
place = "{472, 86}";
type = Stem;
}
);
layerId = "1038C536-374A-461C-9C15-505D839D4AAF";
paths = (
{
closed = 1;
nodes = (
"80 -2 LINE",
"166 -2 LINE",
"166 279 LINE",
"300 279 LINE SMOOTH",
"444 279 OFFCURVE",
"558 359 OFFCURVE",
"558 497 CURVE SMOOTH",
"558 628 OFFCURVE",
"457 705 OFFCURVE",
"307 705 CURVE SMOOTH",
"80 705 LINE"
);
},
{
closed = 1;
nodes = (
"166 629 LINE",
"300 629 LINE SMOOTH",
"409 629 OFFCURVE",
"472 583 OFFCURVE",
"472 493 CURVE SMOOTH",
"472 407 OFFCURVE",
"407 355 OFFCURVE",
"298 355 CURVE SMOOTH",
"166 355 LINE"
);
}
);
width = 601;
}
);
unicode = 0050;
},
{
color = (153, 255, 154, 255);
glyphname = Q;
layers = (
{
hints = (
{
horizontal = 1;
place = "{-14, 175}";
type = Stem;
},
{
horizontal = 1;
place = "{539, 175}";
type = Stem;
},
{
horizontal = 1;
place = "{-148, 21}";
target = up;
type = BottomGhost;
},
{
place = "{36, 199}";
type = Stem;
},
{
place = "{592, 198}";
type = Stem;
}
);
layerId = "5489E6BA-21ED-4BE5-8B01-6EB821105F89";
paths = (
{
closed = 1;
nodes = (
"846 -148 LINE",
"846 52 LINE",
"736 163 LINE",
"775 220 OFFCURVE",
"790 276 OFFCURVE",
"790 350 CURVE SMOOTH",
"790 553 OFFCURVE",
"629 714 OFFCURVE",
"413 714 CURVE SMOOTH",
"198 714 OFFCURVE",
"36 551 OFFCURVE",
"36 350 CURVE SMOOTH",
"36 147 OFFCURVE",
"196 -14 OFFCURVE",
"412 -14 CURVE SMOOTH",
"497 -14 OFFCURVE",
"588 13 OFFCURVE",
"634 55 CURVE"
);
},
{
closed = 1;
nodes = (
"591 247 OFFCURVE",
"520 161 OFFCURVE",
"413 161 CURVE SMOOTH",
"308 161 OFFCURVE",
"235 249 OFFCURVE",
"235 350 CURVE SMOOTH",
"235 453 OFFCURVE",
"306 539 OFFCURVE",
"412 539 CURVE SMOOTH",
"518 539 OFFCURVE",
"591 451 OFFCURVE",
"591 350 CURVE SMOOTH"
);
}
);
width = 880;
},
{
hints = (
{
horizontal = 1;
place = "{-14, 77}";
type = Stem;
},
{
horizontal = 1;
place = "{642, 77}";
type = Stem;
},
{
horizontal = 1;
place = "{-79, 21}";
target = up;
type = BottomGhost;
},
{
place = "{38, 87}";
type = Stem;
},
{
place = "{682, 87}";
type = Stem;
}
);
layerId = "1038C536-374A-461C-9C15-505D839D4AAF";
paths = (
{
closed = 1;
nodes = (
"767 -79 LINE",
"767 30 LINE",
"673 104 LINE",
"733 169 OFFCURVE",
"769 254 OFFCURVE",
"769 354 CURVE SMOOTH",
"769 553 OFFCURVE",
"616 719 OFFCURVE",
"406 719 CURVE SMOOTH",
"192 719 OFFCURVE",
"38 555 OFFCURVE",
"38 350 CURVE SMOOTH",
"38 149 OFFCURVE",
"191 -14 OFFCURVE",
"404 -14 CURVE SMOOTH",
"483 -14 OFFCURVE",
"543 8 OFFCURVE",
"605 44 CURVE"
);
},
{
closed = 1;
nodes = (
"682 191 OFFCURVE",
"566 63 OFFCURVE",
"405 63 CURVE SMOOTH",
"239 63 OFFCURVE",
"125 190 OFFCURVE",
"125 354 CURVE SMOOTH",
"125 515 OFFCURVE",
"240 642 OFFCURVE",
"405 642 CURVE SMOOTH",
"566 642 OFFCURVE",
"682 512 OFFCURVE",
"682 350 CURVE SMOOTH"
);
}
);
width = 803;
}
);
unicode = 0051;
},
{
color = (153, 255, 154, 255);
glyphname = R;
layers = (
{
hints = (
{
horizontal = 1;
place = "{212, 152}";
type = Stem;
},
{
horizontal = 1;
place = "{532, 168}";
type = Stem;
},
{
horizontal = 1;
place = "{0, 21}";
target = up;
type = BottomGhost;
},
{
place = "{65, 194}";
type = Stem;
},
{
place = "{491, 195}";
type = Stem;
}
);
layerId = "5489E6BA-21ED-4BE5-8B01-6EB821105F89";
paths = (
{
closed = 1;
nodes = (
"260 0 LINE",
"260 212 LINE",
"345 212 LINE",
"485 0 LINE",
"709 0 LINE",
"542 244 LINE",
"630 281 OFFCURVE",
"686 353 OFFCURVE",
"686 461 CURVE SMOOTH",
"686 605 OFFCURVE",
"591 700 OFFCURVE",
"396 700 CURVE SMOOTH",
"65 700 LINE",
"65 0 LINE"
);
},
{
closed = 1;
nodes = (
"260 364 LINE",
"260 532 LINE",
"386 532 LINE SMOOTH",
"451 532 OFFCURVE",
"491 504 OFFCURVE",
"491 449 CURVE",
"491 398 OFFCURVE",
"453 364 OFFCURVE",
"387 364 CURVE SMOOTH"
);
}
);
width = 727;
},
{
hints = (
{
horizontal = 1;
place = "{299, 69}";
type = Stem;
},
{
horizontal = 1;
place = "{629, 76}";
type = Stem;
},
{
horizontal = 1;
place = "{0, 21}";
target = up;
type = BottomGhost;
},
{
place = "{80, 85}";
type = Stem;
},
{
place = "{457, 86}";
type = Stem;
}
);
layerId = "1038C536-374A-461C-9C15-505D839D4AAF";
paths = (
{
closed = 1;
nodes = (
"166 0 LINE",
"166 299 LINE",
"256 299 LINE",
"475 0 LINE",
"578 0 LINE",
"349 304 LINE",
"466 324 OFFCURVE",
"543 395 OFFCURVE",
"543 503 CURVE SMOOTH",
"543 623 OFFCURVE",
"443 705 OFFCURVE",
"299 705 CURVE SMOOTH",
"80 705 LINE",
"80 0 LINE"
);
},
{
closed = 1;
nodes = (
"166 368 LINE",
"166 629 LINE",
"289 629 LINE SMOOTH",
"395 629 OFFCURVE",
"457 589 OFFCURVE",
"457 500 CURVE SMOOTH",
"457 404 OFFCURVE",
"377 368 OFFCURVE",
"272 368 CURVE SMOOTH"
);
}
);
width = 603;
}
);
unicode = 0052;
},
{
color = (153, 255, 154, 255);
glyphname = S;
layers = (
{
hints = (
{
horizontal = 1;
place = "{-12, 21}";
target = up;
type = BottomGhost;
},
{
horizontal = 1;
place = "{712, -20}";
target = down;
type = TopGhost;
},
{
place = "{75, 196}";
type = Stem;
},
{
place = "{457, 196}";
type = Stem;
}
);
layerId = "5489E6BA-21ED-4BE5-8B01-6EB821105F89";
paths = (
{
closed = 1;
nodes = (
"255 149 OFFCURVE",
"126 205 OFFCURVE",
"42 278 CURVE",
"42 104 LINE",
"130 25 OFFCURVE",
"253 -12 OFFCURVE",
"370 -12 CURVE SMOOTH",
"527 -12 OFFCURVE",
"634 59 OFFCURVE",
"651 181 CURVE",
"676 481 OFFCURVE",
"271 399 OFFCURVE",
"271 506 CURVE SMOOTH",
"271 530 OFFCURVE",
"298 556 OFFCURVE",
"361 556 CURVE SMOOTH",
"452 556 OFFCURVE",
"562 502 OFFCURVE",
"634 442 CURVE",
"634 619 LINE",
"558 680 OFFCURVE",
"465 712 OFFCURVE",
"346 712 CURVE SMOOTH",
"205 712 OFFCURVE",
"75 640 OFFCURVE",
"75 488 CURVE SMOOTH",
"75 231 OFFCURVE",
"457 302 OFFCURVE",
"457 197 CURVE",
"457 152 OFFCURVE",
"400 149 OFFCURVE",
"367 149 CURVE SMOOTH"
);
}
);
width = 691;
},
{
hints = (
{
horizontal = 1;
place = "{-12, 73}";
type = Stem;
},
{
horizontal = 1;
place = "{643, 75}";
type = Stem;
},
{
place = "{62, 83}";
type = Stem;
},
{
place = "{419, 86}";
type = Stem;
}
);
layerId = "1038C536-374A-461C-9C15-505D839D4AAF";
paths = (
{
closed = 1;
nodes = (
"199 63 OFFCURVE",
"121 87 OFFCURVE",
"44 164 CURVE",
"44 71 LINE",
"108 10 OFFCURVE",
"181 -12 OFFCURVE",
"263 -12 CURVE SMOOTH",
"382 -12 OFFCURVE",
"505 39 OFFCURVE",
"505 178 CURVE SMOOTH",
"505 402 OFFCURVE",
"145 404 OFFCURVE",
"145 552 CURVE SMOOTH",
"145 610 OFFCURVE",
"202 643 OFFCURVE",
"277 643 CURVE SMOOTH",
"330 643 OFFCURVE",
"394 627 OFFCURVE",
"447 558 CURVE",
"447 661 LINE",
"400 701 OFFCURVE",
"341 718 OFFCURVE",
"276 718 CURVE SMOOTH",
"163 718 OFFCURVE",
"59 657 OFFCURVE",
"59 554 CURVE SMOOTH",
"59 337 OFFCURVE",
"419 335 OFFCURVE",
"419 170 CURVE SMOOTH",
"419 89 OFFCURVE",
"337 63 OFFCURVE",
"269 63 CURVE SMOOTH"
);
}
);
width = 550;
}
);
unicode = 0053;
},
{
color = (153, 255, 154, 255);
glyphname = T;
layers = (
{
hints = (
{
horizontal = 1;
place = "{530, 170}";
type = Stem;
},
{
horizontal = 1;
place = "{0, 21}";
target = up;
type = BottomGhost;
},
{
place = "{232, 194}";
type = Stem;
}
);
layerId = "5489E6BA-21ED-4BE5-8B01-6EB821105F89";
paths = (
{
closed = 1;
nodes = (
"426 530 LINE",
"636 530 LINE",
"636 700 LINE",
"22 700 LINE",
"22 530 LINE",
"232 530 LINE",
"232 0 LINE",
"426 0 LINE"
);
}
);
width = 658;
},
{
hints = (
{
horizontal = 1;
place = "{629, 76}";
type = Stem;
},
{
horizontal = 1;
place = "{0, 21}";
target = up;
type = BottomGhost;
},
{
place = "{209, 84}";
type = Stem;
}
);
layerId = "1038C536-374A-461C-9C15-505D839D4AAF";
paths = (
{
closed = 1;
nodes = (
"293 629 LINE",
"503 629 LINE",
"503 705 LINE",
"-1 705 LINE",
"-1 629 LINE",
"209 629 LINE",
"209 0 LINE",
"293 0 LINE"
);
}
);
width = 502;
}
);
unicode = 0054;
},
{
color = (153, 255, 154, 255);
glyphname = U;
layers = (
{
hints = (
{
horizontal = 1;
place = "{-13, 175}";
type = Stem;
},
{
horizontal = 1;
place = "{700, -20}";
target = down;
type = TopGhost;
},
{
place = "{64, 197}";
type = Stem;
},
{
place = "{519, 197}";
type = Stem;
}
);
layerId = "5489E6BA-21ED-4BE5-8B01-6EB821105F89";
paths = (
{
closed = 1;
nodes = (
"587 -13 OFFCURVE",
"716 86 OFFCURVE",
"716 312 CURVE",
"716 700 LINE",
"519 700 LINE",
"519 306 LINE SMOOTH",
"519 208 OFFCURVE",
"468 162 OFFCURVE",
"390 162 CURVE",
"312 162 OFFCURVE",
"261 210 OFFCURVE",
"261 311 CURVE",
"261 700 LINE",
"64 700 LINE",
"64 307 LINE SMOOTH",
"64 88 OFFCURVE",
"189 -13 OFFCURVE",
"388 -13 CURVE SMOOTH"
);
}
);
width = 780;
},
{
hints = (
{
horizontal = 1;
place = "{-15, 78}";
type = Stem;
},
{
horizontal = 1;
place = "{706, -20}";
target = down;
type = TopGhost;
},
{
place = "{79, 84}";
type = Stem;
},
{
place = "{554, 84}";
type = Stem;
}
);
layerId = "1038C536-374A-461C-9C15-505D839D4AAF";
paths = (
{
closed = 1;
nodes = (
"543 -15 OFFCURVE",
"638 100 OFFCURVE",
"638 287 CURVE SMOOTH",
"638 706 LINE",
"554 706 LINE",
"554 285 LINE SMOOTH",
"554 136 OFFCURVE",
"483 63 OFFCURVE",
"359 63 CURVE SMOOTH",
"228 63 OFFCURVE",
"163 150 OFFCURVE",
"163 288 CURVE SMOOTH",
"163 706 LINE",
"79 706 LINE",
"79 284 LINE SMOOTH",
"79 105 OFFCURVE",
"177 -15 OFFCURVE",
"360 -15 CURVE SMOOTH"
);
}
);
width = 717;
}
);
unicode = 0055;
},
{
color = (153, 255, 154, 255);
glyphname = V;
layers = (
{
hints = (
{
horizontal = 1;
place = "{700, -20}";
target = down;
type = TopGhost;
},
{
horizontal = 1;
place = "{-5, 21}";
target = up;
type = BottomGhost;
}
);
layerId = "5489E6BA-21ED-4BE5-8B01-6EB821105F89";
paths = (
{
closed = 1;
nodes = (
"13 700 LINE",
"297 -5 LINE",
"477 -5 LINE",
"761 700 LINE",
"548 700 LINE",
"389 257 LINE",
"230 700 LINE"
);
}
);
width = 773;
},
{
layerId = "1038C536-374A-461C-9C15-505D839D4AAF";
paths = (
{
closed = 1;
nodes = (
"4 705 LINE",
"281 0 LINE",
"382 0 LINE",
"657 705 LINE",
"565 705 LINE",
"333 88 LINE",
"98 705 LINE"
);
}
);
width = 653;
}
);
unicode = 0056;
},
{
color = (153, 255, 154, 255);
glyphname = W;
layers = (
{
hints = (
{
horizontal = 1;
place = "{700, -20}";
target = down;
type = TopGhost;
},
{
horizontal = 1;
place = "{-5, 21}";
target = up;
type = BottomGhost;
},
{
horizontal = 1;
place = "{702, -20}";
target = down;
type = TopGhost;
}
);
layerId = "5489E6BA-21ED-4BE5-8B01-6EB821105F89";
paths = (
{
closed = 1;
nodes = (
"221 700 LINE",
"16 700 LINE",
"250 -5 LINE",
"419 -5 LINE",
"559 398 LINE",
"700 -5 LINE",
"869 -5 LINE",
"1103 700 LINE",
"902 700 LINE",
"780 295 LINE",
"645 702 LINE",
"478 702 LINE",
"343 295 LINE"
);
}
);
width = 1119;
},
{
hints = (
{
horizontal = 1;
place = "{705, -20}";
target = down;
type = TopGhost;
},
{
horizontal = 1;
place = "{0, 21}";
target = up;
type = BottomGhost;
},
{
horizontal = 1;
place = "{706, -20}";
target = down;
type = TopGhost;
}
);
layerId = "1038C536-374A-461C-9C15-505D839D4AAF";
paths = (
{
closed = 1;
nodes = (
"107 705 LINE",
"16 705 LINE",
"253 0 LINE",
"335 0 LINE",
"508 582 LINE",
"687 0 LINE",
"767 0 LINE",
"1001 705 LINE",
"913 705 LINE",
"729 126 LINE",
"551 706 LINE",
"470 706 LINE",
"297 126 LINE"
);
}
);
width = 1009;
}
);
unicode = 0057;
},
{
color = (153, 255, 154, 255);
glyphname = X;
layers = (
{
hints = (
{
horizontal = 1;
place = "{700, -20}";
target = down;
type = TopGhost;
},
{
horizontal = 1;
place = "{0, 21}";
target = up;
type = BottomGhost;
}
);
layerId = "5489E6BA-21ED-4BE5-8B01-6EB821105F89";
paths = (
{
closed = 1;
nodes = (
"24 700 LINE",
"254 356 LINE",
"14 0 LINE",
"232 0 LINE",
"367 211 LINE",
"501 0 LINE",
"724 0 LINE",
"484 358 LINE",
"714 700 LINE",
"496 700 LINE",
"371 503 LINE",
"247 700 LINE"
);
}
);
width = 737;
},
{
hints = (
{
horizontal = 1;
place = "{0, 21}";
target = up;
type = BottomGhost;
}
);
layerId = "1038C536-374A-461C-9C15-505D839D4AAF";
paths = (
{
closed = 1;
nodes = (
"38 705 LINE",
"281 361 LINE",
"26 0 LINE",
"125 0 LINE",
"329 296 LINE",
"535 0 LINE",
"632 0 LINE",
"379 363 LINE",
"619 705 LINE",
"523 705 LINE",
"332 426 LINE",
"137 705 LINE"
);
}
);
width = 658;
}
);
unicode = 0058;
},
{
color = (153, 255, 154, 255);
glyphname = Y;
layers = (
{
hints = (
{
horizontal = 1;
place = "{700, -20}";
target = down;
type = TopGhost;
},
{
horizontal = 1;
place = "{0, 21}";
target = up;
type = BottomGhost;
},
{
place = "{273, 195}";
type = Stem;
}
);
layerId = "5489E6BA-21ED-4BE5-8B01-6EB821105F89";
paths = (
{
closed = 1;
nodes = (
"468 265 LINE",
"734 700 LINE",
"517 700 LINE",
"372 445 LINE",
"228 700 LINE",
"7 700 LINE",
"273 262 LINE",
"273 0 LINE",
"468 0 LINE"
);
}
);
width = 743;
},
{
hints = (
{
horizontal = 1;
place = "{705, -20}";
target = down;
type = TopGhost;
},
{
horizontal = 1;
place = "{0, 21}";
target = up;
type = BottomGhost;
},
{
place = "{285, 84}";
type = Stem;
}
);
layerId = "1038C536-374A-461C-9C15-505D839D4AAF";
paths = (
{
closed = 1;
nodes = (
"369 281 LINE",
"639 705 LINE",
"544 705 LINE",
"330 358 LINE",
"114 705 LINE",
"14 705 LINE",
"285 280 LINE",
"285 0 LINE",
"369 0 LINE"
);
}
);
width = 640;
}
);
unicode = 0059;
},
{
color = (153, 255, 154, 255);
glyphname = Z;
layers = (
{
hints = (
{
horizontal = 1;
place = "{0, 164}";
type = Stem;
},
{
horizontal = 1;
place = "{536, 164}";
type = Stem;
}
);
layerId = "5489E6BA-21ED-4BE5-8B01-6EB821105F89";
paths = (
{
closed = 1;
nodes = (
"641 559 LINE",
"641 700 LINE",
"34 700 LINE",
"34 536 LINE",
"373 536 LINE",
"22 141 LINE",
"22 0 LINE",
"641 0 LINE",
"641 164 LINE",
"290 164 LINE"
);
}
);
width = 673;
},
{
hints = (
{
horizontal = 1;
place = "{0, 75}";
type = Stem;
},
{
horizontal = 1;
place = "{630, 75}";
type = Stem;
}
);
layerId = "1038C536-374A-461C-9C15-505D839D4AAF";
paths = (
{
closed = 1;
nodes = (
"634 632 LINE",
"634 705 LINE",
"59 705 LINE",
"59 630 LINE",
"531 630 LINE",
"31 72 LINE",
"31 0 LINE",
"613 0 LINE",
"613 75 LINE",
"141 75 LINE"
);
}
);
width = 666;
}
);
unicode = 005A;
},
{
color = (153, 255, 154, 255);
glyphname = bracketleft;
layers = (
{
hints = (
{
horizontal = 1;
place = "{-130, 129}";
type = Stem;
},
{
horizontal = 1;
place = "{571, 129}";
type = Stem;
},
{
place = "{66, 170}";
type = Stem;
}
);
layerId = "5489E6BA-21ED-4BE5-8B01-6EB821105F89";
paths = (
{
closed = 1;
nodes = (
"412 700 LINE",
"66 700 LINE",
"66 -130 LINE",
"412 -130 LINE",
"412 -1 LINE",
"236 -1 LINE",
"236 571 LINE",
"412 571 LINE"
);
}
);
width = 467;
},
{
hints = (
{
place = "{86, 77}";
type = Stem;
},
{
place = "{86, 240}";
type = Stem;
},
{
horizontal = 1;
place = "{-158, 66}";
type = Stem;
},
{
horizontal = 1;
place = "{661, 65}";
type = Stem;
}
);
layerId = "1038C536-374A-461C-9C15-505D839D4AAF";
paths = (
{
closed = 1;
nodes = (
"326 726 LINE",
"86 726 LINE",
"86 -158 LINE",
"326 -158 LINE",
"326 -92 LINE",
"163 -92 LINE",
"163 660 LINE",
"326 660 LINE"
);
}
);
width = 345;
}
);
unicode = 005B;
},
{
color = (153, 255, 154, 255);
glyphname = backslash;
layers = (
{
hints = (
{
horizontal = 1;
place = "{-128, 21}";
target = up;
type = BottomGhost;
},
{
horizontal = 1;
place = "{798, -20}";
target = down;
type = TopGhost;
}
);
layerId = "5489E6BA-21ED-4BE5-8B01-6EB821105F89";
paths = (
{
closed = 1;
nodes = (
"449 -128 LINE",
"591 -103 LINE",
"160 798 LINE",
"17 776 LINE"
);
}
);
width = 616;
},
{
hints = (
{
horizontal = 1;
place = "{-117, 21}";
target = up;
type = BottomGhost;
},
{
horizontal = 1;
place = "{781, -20}";
target = down;
type = TopGhost;
}
);
layerId = "1038C536-374A-461C-9C15-505D839D4AAF";
paths = (
{
closed = 1;
nodes = (
"413 -117 LINE",
"486 -111 LINE",
"74 781 LINE",
"2 773 LINE"
);
}
);
width = 485;
}
);
unicode = 005C;
},
{
color = (153, 255, 154, 255);
glyphname = bracketright;
layers = (
{
hints = (
{
horizontal = 1;
place = "{-130, 129}";
type = Stem;
},
{
horizontal = 1;
place = "{571, 129}";
type = Stem;
},
{
place = "{230, 170}";
type = Stem;
}
);
layerId = "5489E6BA-21ED-4BE5-8B01-6EB821105F89";
paths = (
{
closed = 1;
nodes = (
"54 -130 LINE",
"400 -130 LINE",
"400 700 LINE",
"54 700 LINE",
"54 571 LINE",
"230 571 LINE",
"230 -1 LINE",
"54 -1 LINE"
);
}
);
width = 466;
},
{
hints = (
{
place = "{20, 242}";
type = Stem;
},
{
place = "{183, 79}";
type = Stem;
},
{
horizontal = 1;
place = "{-159, 67}";
type = Stem;
},
{
horizontal = 1;
place = "{661, 65}";
type = Stem;
}
);
layerId = "1038C536-374A-461C-9C15-505D839D4AAF";
paths = (
{
closed = 1;
nodes = (
"20 -159 LINE",
"262 -159 LINE",
"262 726 LINE",
"20 726 LINE",
"20 659 LINE",
"183 659 LINE",
"183 -92 LINE",
"20 -92 LINE"
);
}
);
width = 347;
}
);
unicode = 005D;
},
{
color = (153, 255, 154, 255);
glyphname = asciicircum;
layers = (
{
hints = (
{
horizontal = 1;
place = "{493, 21}";
target = up;
type = BottomGhost;
},
{
horizontal = 1;
place = "{699, -20}";
target = down;
type = TopGhost;
}
);
layerId = "5489E6BA-21ED-4BE5-8B01-6EB821105F89";
paths = (
{
closed = 1;
nodes = (
"37 493 LINE",
"168 493 LINE",
"244 590 LINE",
"320 493 LINE",
"453 493 LINE",
"309 699 LINE",
"181 699 LINE"
);
}
);
width = 488;
},
{
layerId = "1038C536-374A-461C-9C15-505D839D4AAF";
paths = (
{
closed = 1;
nodes = (
"63 418 LINE",
"136 418 LINE",
"277 642 LINE",
"418 418 LINE",
"494 418 LINE",
"313 706 LINE",
"241 706 LINE"
);
}
);
width = 557;
}
);
unicode = 005E;
},
{
color = (153, 255, 154, 255);
glyphname = underscore;
layers = (
{
hints = (
{
horizontal = 1;
place = "{-160, 116}";
type = Stem;
}
);
layerId = "5489E6BA-21ED-4BE5-8B01-6EB821105F89";
paths = (
{
closed = 1;
nodes = (
"0 -160 LINE",
"604 -160 LINE",
"604 -44 LINE",
"0 -44 LINE"
);
}
);
width = 604;
},
{
hints = (
{
horizontal = 1;
place = "{-147, 65}";
type = Stem;
}
);
layerId = "1038C536-374A-461C-9C15-505D839D4AAF";
paths = (
{
closed = 1;
nodes = (
"0 -147 LINE",
"561 -147 LINE",
"561 -82 LINE",
"0 -82 LINE"
);
}
);
width = 561;
}
);
unicode = 005F;
},
{
color = (153, 255, 154, 255);
glyphname = grave;
layers = (
{
hints = (
{
horizontal = 1;
place = "{587, 21}";
target = up;
type = BottomGhost;
},
{
horizontal = 1;
place = "{772, -20}";
target = down;
type = TopGhost;
}
);
layerId = "5489E6BA-21ED-4BE5-8B01-6EB821105F89";
paths = (
{
closed = 1;
nodes = (
"143 587 LINE",
"277 587 LINE",
"173 772 LINE",
"-4 715 LINE"
);
}
);
width = 339;
},
{
hints = (
{
horizontal = 1;
place = "{563, 21}";
target = up;
type = BottomGhost;
},
{
horizontal = 1;
place = "{712, -20}";
target = down;
type = TopGhost;
}
);
layerId = "1038C536-374A-461C-9C15-505D839D4AAF";
paths = (
{
closed = 1;
nodes = (
"149 563 LINE",
"212 563 LINE",
"117 712 LINE",
"23 692 LINE"
);
}
);
width = 310;
}
);
unicode = 0060;
},
{
color = (153, 255, 154, 255);
glyphname = a;
layers = (
{
hints = (
{
horizontal = 1;
place = "{-12, 119}";
type = Stem;
},
{
horizontal = 1;
place = "{235, 92}";
type = Stem;
},
{
horizontal = 1;
place = "{404, 145}";
type = Stem;
},
{
place = "{27, 183}";
type = Stem;
},
{
place = "{369, 187}";
type = Stem;
}
);
layerId = "5489E6BA-21ED-4BE5-8B01-6EB821105F89";
paths = (
{
closed = 1;
nodes = (
"371 139 LINE",
"344 117 OFFCURVE",
"314 107 OFFCURVE",
"284 107 CURVE SMOOTH",
"245 107 OFFCURVE",
"212 133 OFFCURVE",
"212 170 CURVE",
"212 206 OFFCURVE",
"244 235 OFFCURVE",
"300 235 CURVE SMOOTH",
"327 235 OFFCURVE",
"354 229 OFFCURVE",
"371 221 CURVE"
);
},
{
closed = 1;
nodes = (
"556 -12 LINE",
"556 311 LINE SMOOTH",
"556 466 OFFCURVE",
"477 549 OFFCURVE",
"288 549 CURVE SMOOTH",
"201 549 OFFCURVE",
"136 532 OFFCURVE",
"74 507 CURVE",
"74 373 LINE",
"133 395 OFFCURVE",
"185 404 OFFCURVE",
"238 404 CURVE SMOOTH",
"327 404 OFFCURVE",
"371 378 OFFCURVE",
"371 315 CURVE SMOOTH",
"371 306 LINE",
"340 317 OFFCURVE",
"291 327 OFFCURVE",
"239 327 CURVE SMOOTH",
"113 327 OFFCURVE",
"27 269 OFFCURVE",
"27 157 CURVE",
"27 49 OFFCURVE",
"107 -12 OFFCURVE",
"212 -12 CURVE SMOOTH",
"282 -12 OFFCURVE",
"333 15 OFFCURVE",
"370 56 CURVE"
);
}
);
width = 605;
},
{
hints = (
{
horizontal = 1;
place = "{-11, 68}";
type = Stem;
},
{
horizontal = 1;
place = "{266, 67}";
type = Stem;
},
{
horizontal = 1;
place = "{422, 70}";
type = Stem;
},
{
place = "{37, 82}";
type = Stem;
},
{
place = "{402, 80}";
type = Stem;
}
);
layerId = "1038C536-374A-461C-9C15-505D839D4AAF";
paths = (
{
closed = 1;
nodes = (
"400 122 LINE",
"367 82 OFFCURVE",
"320 57 OFFCURVE",
"255 57 CURVE SMOOTH",
"183 57 OFFCURVE",
"119 90 OFFCURVE",
"119 161 CURVE SMOOTH",
"119 238 OFFCURVE",
"195 266 OFFCURVE",
"260 266 CURVE SMOOTH",
"323 266 OFFCURVE",
"367 247 OFFCURVE",
"400 228 CURVE"
);
},
{
closed = 1;
nodes = (
"482 0 LINE",
"482 308 LINE SMOOTH",
"482 431 OFFCURVE",
"375 492 OFFCURVE",
"259 492 CURVE SMOOTH",
"185 492 OFFCURVE",
"114 470 OFFCURVE",
"69 450 CURVE",
"69 372 LINE",
"127 408 OFFCURVE",
"193 422 OFFCURVE",
"256 422 CURVE SMOOTH",
"340 422 OFFCURVE",
"400 394 OFFCURVE",
"400 318 CURVE SMOOTH",
"400 299 LINE",
"357 324 OFFCURVE",
"305 333 OFFCURVE",
"248 333 CURVE SMOOTH",
"148 333 OFFCURVE",
"37 296 OFFCURVE",
"37 171 CURVE SMOOTH",
"37 53 OFFCURVE",
"142 -11 OFFCURVE",
"237 -11 CURVE SMOOTH",
"303 -11 OFFCURVE",
"353 9 OFFCURVE",
"398 49 CURVE"
);
}
);
width = 546;
}
);
unicode = 0061;
},
{
color = (153, 255, 154, 255);
glyphname = b;
layers = (
{
hints = (
{
horizontal = 1;
place = "{-12, 159}";
type = Stem;
},
{
horizontal = 1;
place = "{394, 159}";
type = Stem;
},
{
horizontal = 1;
place = "{730, -20}";
target = down;
type = TopGhost;
},
{
place = "{53, 190}";
type = Stem;
},
{
place = "{460, 187}";
type = Stem;
}
);
layerId = "5489E6BA-21ED-4BE5-8B01-6EB821105F89";
paths = (
{
closed = 1;
nodes = (
"536 -12 OFFCURVE",
"647 95 OFFCURVE",
"647 271 CURVE SMOOTH",
"647 446 OFFCURVE",
"536 553 OFFCURVE",
"407 553 CURVE SMOOTH",
"326 553 OFFCURVE",
"280 514 OFFCURVE",
"243 469 CURVE",
"243 730 LINE",
"53 730 LINE",
"53 -12 LINE",
"243 66 LINE",
"278 25 OFFCURVE",
"326 -12 OFFCURVE",
"408 -12 CURVE SMOOTH"
);
},
{
closed = 1;
nodes = (
"460 197 OFFCURVE",
"411 147 OFFCURVE",
"349 147 CURVE SMOOTH",
"288 147 OFFCURVE",
"240 198 OFFCURVE",
"240 270 CURVE SMOOTH",
"240 343 OFFCURVE",
"288 394 OFFCURVE",
"349 394 CURVE SMOOTH",
"411 394 OFFCURVE",
"460 343 OFFCURVE",
"460 272 CURVE SMOOTH"
);
}
);
width = 678;
},
{
hints = (
{
horizontal = 1;
place = "{-10, 69}";
type = Stem;
},
{
horizontal = 1;
place = "{422, 72}";
type = Stem;
},
{
horizontal = 1;
place = "{732, -20}";
target = down;
type = TopGhost;
},
{
place = "{72, 82}";
type = Stem;
},
{
place = "{493, 84}";
type = Stem;
}
);
layerId = "1038C536-374A-461C-9C15-505D839D4AAF";
paths = (
{
closed = 1;
nodes = (
"470 -10 OFFCURVE",
"577 91 OFFCURVE",
"577 241 CURVE SMOOTH",
"577 393 OFFCURVE",
"470 494 OFFCURVE",
"340 494 CURVE SMOOTH",
"260 494 OFFCURVE",
"197 454 OFFCURVE",
"154 394 CURVE",
"154 732 LINE",
"72 732 LINE",
"72 1 LINE",
"163 71 LINE",
"200 25 OFFCURVE",
"260 -10 OFFCURVE",
"338 -10 CURVE SMOOTH"
);
},
{
closed = 1;
nodes = (
"495 134 OFFCURVE",
"422 59 OFFCURVE",
"323 59 CURVE SMOOTH",
"229 59 OFFCURVE",
"151 138 OFFCURVE",
"151 241 CURVE SMOOTH",
"151 346 OFFCURVE",
"229 422 OFFCURVE",
"323 422 CURVE SMOOTH",
"426 422 OFFCURVE",
"495 342 OFFCURVE",
"495 240 CURVE SMOOTH"
);
}
);
width = 616;
}
);
unicode = 0062;
},
{
color = (153, 255, 154, 255);
glyphname = c;
layers = (
{
hints = (
{
horizontal = 1;
place = "{-13, 160}";
type = Stem;
},
{
horizontal = 1;
place = "{392, 160}";
type = Stem;
},
{
place = "{32, 185}";
type = Stem;
}
);
layerId = "5489E6BA-21ED-4BE5-8B01-6EB821105F89";
paths = (
{
closed = 1;
nodes = (
"434 537 LINE",
"403 547 OFFCURVE",
"359 552 OFFCURVE",
"322 552 CURVE SMOOTH",
"151 552 OFFCURVE",
"32 422 OFFCURVE",
"32 270 CURVE SMOOTH",
"32 116 OFFCURVE",
"157 -13 OFFCURVE",
"320 -13 CURVE SMOOTH",
"360 -13 OFFCURVE",
"406 -6 OFFCURVE",
"439 6 CURVE",
"439 183 LINE",
"406 156 OFFCURVE",
"370 147 OFFCURVE",
"340 147 CURVE SMOOTH",
"271 147 OFFCURVE",
"217 200 OFFCURVE",
"217 270 CURVE SMOOTH",
"217 338 OFFCURVE",
"266 392 OFFCURVE",
"337 392 CURVE SMOOTH",
"375 392 OFFCURVE",
"405 378 OFFCURVE",
"434 355 CURVE"
);
}
);
width = 458;
},
{
hints = (
{
horizontal = 1;
place = "{-9, 67}";
type = Stem;
},
{
horizontal = 1;
place = "{423, 69}";
type = Stem;
},
{
place = "{40, 83}";
type = Stem;
}
);
layerId = "1038C536-374A-461C-9C15-505D839D4AAF";
paths = (
{
closed = 1;
nodes = (
"425 452 LINE",
"389 478 OFFCURVE",
"337 492 OFFCURVE",
"289 492 CURVE SMOOTH",
"140 492 OFFCURVE",
"40 379 OFFCURVE",
"40 240 CURVE SMOOTH",
"40 99 OFFCURVE",
"144 -9 OFFCURVE",
"282 -9 CURVE SMOOTH",
"342 -9 OFFCURVE",
"392 11 OFFCURVE",
"430 35 CURVE",
"430 125 LINE",
"394 87 OFFCURVE",
"346 60 OFFCURVE",
"291 60 CURVE SMOOTH",
"195 60 OFFCURVE",
"123 146 OFFCURVE",
"123 246 CURVE SMOOTH",
"123 347 OFFCURVE",
"192 423 OFFCURVE",
"288 423 CURVE SMOOTH",
"341 423 OFFCURVE",
"388 399 OFFCURVE",
"425 359 CURVE"
);
}
);
width = 459;
}
);
unicode = 0063;
},
{
color = (153, 255, 154, 255);
glyphname = d;
layers = (
{
hints = (
{
horizontal = 1;
place = "{-12, 159}";
type = Stem;
},
{
horizontal = 1;
place = "{394, 159}";
type = Stem;
},
{
horizontal = 1;
place = "{730, -20}";
target = down;
type = TopGhost;
},
{
place = "{31, 186}";
type = Stem;
},
{
place = "{435, 190}";
type = Stem;
}
);
layerId = "5489E6BA-21ED-4BE5-8B01-6EB821105F89";
paths = (
{
closed = 1;
nodes = (
"625 -12 LINE",
"625 730 LINE",
"435 730 LINE",
"435 475 LINE",
"399 516 OFFCURVE",
"351 553 OFFCURVE",
"270 553 CURVE SMOOTH",
"142 553 OFFCURVE",
"31 446 OFFCURVE",
"31 270 CURVE SMOOTH",
"31 95 OFFCURVE",
"143 -12 OFFCURVE",
"271 -12 CURVE SMOOTH",
"351 -12 OFFCURVE",
"398 27 OFFCURVE",
"435 72 CURVE"
);
},
{
closed = 1;
nodes = (
"218 344 OFFCURVE",
"268 394 OFFCURVE",
"328 394 CURVE SMOOTH",
"389 394 OFFCURVE",
"438 343 OFFCURVE",
"438 272 CURVE SMOOTH",
"438 198 OFFCURVE",
"389 147 OFFCURVE",
"328 147 CURVE SMOOTH",
"268 147 OFFCURVE",
"218 198 OFFCURVE",
"218 270 CURVE SMOOTH"
);
}
);
width = 680;
},
{
hints = (
{
horizontal = 1;
place = "{-10, 69}";
type = Stem;
},
{
horizontal = 1;
place = "{422, 72}";
type = Stem;
},
{
horizontal = 1;
place = "{732, -20}";
target = down;
type = TopGhost;
},
{
place = "{39, 83}";
type = Stem;
},
{
place = "{460, 82}";
type = Stem;
}
);
layerId = "1038C536-374A-461C-9C15-505D839D4AAF";
paths = (
{
closed = 1;
nodes = (
"542 1 LINE",
"542 732 LINE",
"460 732 LINE",
"460 398 LINE",
"419 456 OFFCURVE",
"356 494 OFFCURVE",
"275 494 CURVE SMOOTH",
"147 494 OFFCURVE",
"39 394 OFFCURVE",
"39 241 CURVE SMOOTH",
"39 88 OFFCURVE",
"148 -10 OFFCURVE",
"278 -10 CURVE SMOOTH",
"356 -10 OFFCURVE",
"406 24 OFFCURVE",
"450 77 CURVE"
);
},
{
closed = 1;
nodes = (
"122 351 OFFCURVE",
"196 424 OFFCURVE",
"288 424 CURVE SMOOTH",
"381 424 OFFCURVE",
"463 347 OFFCURVE",
"463 242 CURVE SMOOTH",
"463 137 OFFCURVE",
"383 60 OFFCURVE",
"288 60 CURVE SMOOTH",
"193 60 OFFCURVE",
"122 135 OFFCURVE",
"122 242 CURVE SMOOTH"
);
}
);
width = 615;
}
);
unicode = 0064;
},
{
color = (153, 255, 154, 255);
glyphname = e;
layers = (
{
layerId = "5489E6BA-21ED-4BE5-8B01-6EB821105F89";
paths = (
{
closed = 1;
nodes = (
"281 121 OFFCURVE",
"251 128 OFFCURVE",
"227 148 CURVE",
"582 240 LINE",
"582 401 OFFCURVE",
"490 548 OFFCURVE",
"314 548 CURVE SMOOTH",
"150 548 OFFCURVE",
"32 428 OFFCURVE",
"32 269 CURVE SMOOTH",
"32 104 OFFCURVE",
"147 -17 OFFCURVE",
"314 -17 CURVE SMOOTH",
"373 -17 OFFCURVE",
"460 -3 OFFCURVE",
"529 42 CURVE",
"529 190 LINE",
"478 144 OFFCURVE",
"383 121 OFFCURVE",
"317 121 CURVE SMOOTH"
);
},
{
closed = 1;
nodes = (
"212 275 LINE",
"212 334 OFFCURVE",
"234 407 OFFCURVE",
"303 407 CURVE SMOOTH",
"349 407 OFFCURVE",
"384 374 OFFCURVE",
"396 319 CURVE",
"212 272 LINE"
);
}
);
width = 610;
},
{
hints = (
{
horizontal = 1;
place = "{-11, 69}";
type = Stem;
},
{
horizontal = 1;
place = "{425, 70}";
type = Stem;
},
{
place = "{40, 80}";
type = Stem;
}
);
layerId = "1038C536-374A-461C-9C15-505D839D4AAF";
paths = (
{
closed = 1;
nodes = (
"208 59 OFFCURVE",
"151 108 OFFCURVE",
"129 175 CURVE",
"504 266 LINE",
"488 390 OFFCURVE",
"409 495 OFFCURVE",
"271 495 CURVE SMOOTH",
"130 495 OFFCURVE",
"40 382 OFFCURVE",
"40 239 CURVE SMOOTH",
"40 91 OFFCURVE",
"147 -11 OFFCURVE",
"290 -11 CURVE SMOOTH",
"361 -11 OFFCURVE",
"420 12 OFFCURVE",
"460 44 CURVE",
"460 132 LINE",
"422 95 OFFCURVE",
"370 59 OFFCURVE",
"295 59 CURVE SMOOTH"
);
},
{
closed = 1;
nodes = (
"120 247 LINE",
"120 337 OFFCURVE",
"175 425 OFFCURVE",
"274 425 CURVE SMOOTH",
"349 425 OFFCURVE",
"404 377 OFFCURVE",
"421 316 CURVE",
"124 240 LINE"
);
}
);
width = 542;
}
);
unicode = 0065;
},
{
color = (153, 255, 154, 255);
glyphname = f;
layers = (
{
layerId = "E76E8D8D-CF20-432F-9325-6C390ED5088C";
name = public.background;
paths = (
{
closed = 1;
nodes = (
"396 722 LINE",
"366 731 OFFCURVE",
"329 737 OFFCURVE",
"280 737 CURVE SMOOTH",
"159 737 OFFCURVE",
"85 681 OFFCURVE",
"85 550 CURVE SMOOTH",
"85 535 LINE",
"2 389 LINE",
"85 389 LINE",
"85 0 LINE",
"274 0 LINE",
"274 389 LINE",
"395 389 LINE",
"395 535 LINE",
"271 535 LINE",
"271 548 LINE SMOOTH",
"271 583 OFFCURVE",
"294 599 OFFCURVE",
"329 599 CURVE SMOOTH",
"352 599 OFFCURVE",
"374 595 OFFCURVE",
"396 588 CURVE"
);
}
);
width = 288;
},
{
hints = (
{
horizontal = 1;
place = "{389, 146}";
type = Stem;
},
{
horizontal = 1;
place = "{599, 138}";
type = Stem;
},
{
horizontal = 1;
place = "{0, 21}";
target = up;
type = BottomGhost;
},
{
place = "{98, 189}";
type = Stem;
}
);
layerId = "5489E6BA-21ED-4BE5-8B01-6EB821105F89";
paths = (
{
closed = 1;
nodes = (
"409 722 LINE",
"379 731 OFFCURVE",
"342 737 OFFCURVE",
"293 737 CURVE SMOOTH",
"172 737 OFFCURVE",
"98 681 OFFCURVE",
"98 550 CURVE SMOOTH",
"98 535 LINE",
"15 389 LINE",
"98 389 LINE",
"98 0 LINE",
"287 0 LINE",
"287 389 LINE",
"408 389 LINE",
"408 535 LINE",
"254 535 LINE",
"254 548 LINE SMOOTH",
"254 583 OFFCURVE",
"297 599 OFFCURVE",
"332 599 CURVE SMOOTH",
"355 599 OFFCURVE",
"387 595 OFFCURVE",
"409 588 CURVE"
);
}
);
width = 405;
},
{
hints = (
{
place = "{113, 79}";
type = Stem;
},
{
place = "{113, 216}";
type = Stem;
},
{
horizontal = 1;
place = "{413, 69}";
type = Stem;
},
{
horizontal = 1;
place = "{668, 68}";
type = Stem;
},
{
horizontal = 1;
place = "{0, 21}";
target = up;
type = BottomGhost;
}
);
layerId = "1038C536-374A-461C-9C15-505D839D4AAF";
paths = (
{
closed = 1;
nodes = (
"329 726 LINE",
"313 731 OFFCURVE",
"292 736 OFFCURVE",
"268 736 CURVE SMOOTH",
"173 736 OFFCURVE",
"113 685 OFFCURVE",
"113 557 CURVE SMOOTH",
"113 484 LINE",
"15 413 LINE",
"113 413 LINE",
"113 0 LINE",
"192 0 LINE",
"192 413 LINE",
"313 413 LINE",
"313 482 LINE",
"192 482 LINE",
"192 553 LINE SMOOTH",
"192 627 OFFCURVE",
"215 668 OFFCURVE",
"278 668 CURVE SMOOTH",
"295 668 OFFCURVE",
"312 664 OFFCURVE",
"329 658 CURVE"
);
}
);
width = 288;
}
);
unicode = 0066;
},
{
color = (153, 255, 154, 255);
glyphname = g;
layers = (
{
hints = (
{
horizontal = 1;
place = "{-162, 137}";
type = Stem;
},
{
horizontal = 1;
place = "{48, 146}";
type = Stem;
},
{
horizontal = 1;
place = "{405, 148}";
type = Stem;
},
{
place = "{32, 186}";
type = Stem;
},
{
place = "{439, 187}";
type = Stem;
}
);
layerId = "5489E6BA-21ED-4BE5-8B01-6EB821105F89";
paths = (
{
closed = 1;
nodes = (
"219 360 OFFCURVE",
"264 405 OFFCURVE",
"329 405 CURVE SMOOTH",
"393 405 OFFCURVE",
"439 361 OFFCURVE",
"439 302 CURVE SMOOTH",
"439 241 OFFCURVE",
"393 196 OFFCURVE",
"329 196 CURVE SMOOTH",
"264 196 OFFCURVE",
"219 240 OFFCURVE",
"219 299 CURVE SMOOTH"
);
},
{
closed = 1;
nodes = (
"194 -25 OFFCURVE",
"104 16 OFFCURVE",
"47 50 CURVE",
"47 -100 LINE",
"126 -140 OFFCURVE",
"189 -162 OFFCURVE",
"285 -162 CURVE SMOOTH",
"483 -162 OFFCURVE",
"626 -66 OFFCURVE",
"626 131 CURVE SMOOTH",
"626 541 LINE",
"436 477 LINE",
"395 520 OFFCURVE",
"348 553 OFFCURVE",
"272 553 CURVE SMOOTH",
"142 553 OFFCURVE",
"32 457 OFFCURVE",
"32 301 CURVE SMOOTH",
"32 145 OFFCURVE",
"140 48 OFFCURVE",
"271 48 CURVE SMOOTH",
"352 48 OFFCURVE",
"401 85 OFFCURVE",
"439 130 CURVE",
"439 109 LINE SMOOTH",
"439 22 OFFCURVE",
"380 -25 OFFCURVE",
"283 -25 CURVE SMOOTH"
);
}
);
width = 680;
},
{
hints = (
{
horizontal = 1;
place = "{-194, 70}";
type = Stem;
},
{
horizontal = 1;
place = "{19, 71}";
type = Stem;
},
{
horizontal = 1;
place = "{423, 71}";
type = Stem;
},
{
place = "{40, 84}";
type = Stem;
},
{
place = "{464, 79}";
type = Stem;
}
);
layerId = "1038C536-374A-461C-9C15-505D839D4AAF";
paths = (
{
closed = 1;
nodes = (
"124 356 OFFCURVE",
"194 424 OFFCURVE",
"290 424 CURVE SMOOTH",
"386 424 OFFCURVE",
"462 353 OFFCURVE",
"462 255 CURVE SMOOTH",
"462 158 OFFCURVE",
"385 89 OFFCURVE",
"291 89 CURVE SMOOTH",
"195 89 OFFCURVE",
"124 160 OFFCURVE",
"124 258 CURVE SMOOTH"
);
},
{
closed = 1;
nodes = (
"199 -124 OFFCURVE",
"138 -102 OFFCURVE",
"81 -57 CURVE",
"81 -147 LINE",
"129 -173 OFFCURVE",
"197 -194 OFFCURVE",
"275 -194 CURVE SMOOTH",
"433 -194 OFFCURVE",
"543 -109 OFFCURVE",
"543 56 CURVE SMOOTH",
"543 482 LINE",
"451 412 LINE",
"410 461 OFFCURVE",
"355 494 OFFCURVE",
"275 494 CURVE SMOOTH",
"147 494 OFFCURVE",
"40 398 OFFCURVE",
"40 253 CURVE SMOOTH",
"40 117 OFFCURVE",
"142 19 OFFCURVE",
"275 19 CURVE SMOOTH",
"356 19 OFFCURVE",
"416 57 OFFCURVE",
"462 115 CURVE",
"462 55 LINE SMOOTH",
"462 -72 OFFCURVE",
"396 -124 OFFCURVE",
"275 -124 CURVE SMOOTH"
);
}
);
width = 616;
}
);
unicode = 0067;
},
{
color = (153, 255, 154, 255);
glyphname = h;
layers = (
{
hints = (
{
horizontal = 1;
place = "{384, 169}";
type = Stem;
},
{
horizontal = 1;
place = "{730, -20}";
target = down;
type = TopGhost;
},
{
horizontal = 1;
place = "{0, 21}";
target = up;
type = BottomGhost;
},
{
place = "{58, 190}";
type = Stem;
},
{
place = "{404, 190}";
type = Stem;
}
);
layerId = "5489E6BA-21ED-4BE5-8B01-6EB821105F89";
paths = (
{
closed = 1;
nodes = (
"333 553 OFFCURVE",
"283 512 OFFCURVE",
"248 467 CURVE",
"248 730 LINE",
"58 730 LINE",
"58 0 LINE",
"248 0 LINE",
"248 293 LINE SMOOTH",
"248 352 OFFCURVE",
"286 384 OFFCURVE",
"328 384 CURVE SMOOTH",
"370 384 OFFCURVE",
"404 352 OFFCURVE",
"404 293 CURVE SMOOTH",
"404 0 LINE",
"594 0 LINE",
"594 354 LINE SMOOTH",
"594 477 OFFCURVE",
"518 553 OFFCURVE",
"410 553 CURVE SMOOTH"
);
}
);
width = 651;
},
{
hints = (
{
horizontal = 1;
place = "{412, 81}";
type = Stem;
},
{
horizontal = 1;
place = "{732, -20}";
target = down;
type = TopGhost;
},
{
horizontal = 1;
place = "{0, 21}";
target = up;
type = BottomGhost;
},
{
place = "{76, 74}";
type = Stem;
},
{
place = "{410, 80}";
type = Stem;
}
);
layerId = "1038C536-374A-461C-9C15-505D839D4AAF";
paths = (
{
closed = 1;
nodes = (
"245 493 OFFCURVE",
"184 458 OFFCURVE",
"150 416 CURVE",
"150 732 LINE",
"76 732 LINE",
"76 0 LINE",
"158 0 LINE",
"158 280 LINE SMOOTH",
"158 369 OFFCURVE",
"225 412 OFFCURVE",
"297 412 CURVE SMOOTH",
"371 412 OFFCURVE",
"408 368 OFFCURVE",
"408 280 CURVE SMOOTH",
"408 0 LINE",
"490 0 LINE",
"490 303 LINE SMOOTH",
"490 437 OFFCURVE",
"424 493 OFFCURVE",
"318 493 CURVE SMOOTH"
);
}
);
width = 563;
}
);
unicode = 0068;
},
{
color = (153, 255, 154, 255);
glyphname = i;
layers = (
{
hints = (
{
place = "{57, 215}";
type = Stem;
},
{
place = "{70, 190}";
type = Stem;
},
{
place = "{70, 202}";
type = Stem;
},
{
horizontal = 1;
place = "{587, 193}";
type = Stem;
},
{
horizontal = 1;
place = "{0, 21}";
target = up;
type = BottomGhost;
}
);
layerId = "5489E6BA-21ED-4BE5-8B01-6EB821105F89";
paths = (
{
closed = 1;
nodes = (
"260 541 LINE",
"70 541 LINE",
"70 0 LINE",
"260 0 LINE"
);
},
{
closed = 1;
nodes = (
"57 620 OFFCURVE",
"105 587 OFFCURVE",
"164 587 CURVE SMOOTH",
"224 587 OFFCURVE",
"272 620 OFFCURVE",
"272 684 CURVE SMOOTH",
"272 747 OFFCURVE",
"224 780 OFFCURVE",
"164 780 CURVE SMOOTH",
"105 780 OFFCURVE",
"57 747 OFFCURVE",
"57 684 CURVE SMOOTH"
);
}
);
width = 329;
},
{
hints = (
{
place = "{65, 121}";
type = Stem;
},
{
place = "{86, 81}";
type = Stem;
},
{
horizontal = 1;
place = "{578, 120}";
type = Stem;
},
{
horizontal = 1;
place = "{0, 21}";
target = up;
type = BottomGhost;
}
);
layerId = "1038C536-374A-461C-9C15-505D839D4AAF";
paths = (
{
closed = 1;
nodes = (
"167 482 LINE",
"86 482 LINE",
"86 0 LINE",
"167 0 LINE"
);
},
{
closed = 1;
nodes = (
"65 606 OFFCURVE",
"93 578 OFFCURVE",
"125 578 CURVE SMOOTH",
"159 578 OFFCURVE",
"186 606 OFFCURVE",
"186 637 CURVE SMOOTH",
"186 673 OFFCURVE",
"159 698 OFFCURVE",
"125 698 CURVE SMOOTH",
"93 698 OFFCURVE",
"65 673 OFFCURVE",
"65 637 CURVE SMOOTH"
);
}
);
width = 251;
}
);
unicode = 0069;
},
{
color = (153, 255, 154, 255);
glyphname = j;
layers = (
{
hints = (
{
place = "{29, 215}";
type = Stem;
},
{
place = "{42, 190}";
type = Stem;
},
{
horizontal = 1;
place = "{-163, 132}";
type = Stem;
},
{
horizontal = 1;
place = "{587, 193}";
type = Stem;
}
);
layerId = "5489E6BA-21ED-4BE5-8B01-6EB821105F89";
paths = (
{
closed = 1;
nodes = (
"-39 -156 LINE",
"-17 -160 OFFCURVE",
"9 -163 OFFCURVE",
"39 -163 CURVE SMOOTH",
"162 -163 OFFCURVE",
"232 -113 OFFCURVE",
"232 24 CURVE SMOOTH",
"232 541 LINE",
"42 541 LINE",
"42 32 LINE SMOOTH",
"42 -15 OFFCURVE",
"23 -31 OFFCURVE",
"-1 -31 CURVE SMOOTH",
"-13 -31 OFFCURVE",
"-24 -28 OFFCURVE",
"-39 -23 CURVE"
);
},
{
closed = 1;
nodes = (
"29 620 OFFCURVE",
"77 587 OFFCURVE",
"136 587 CURVE SMOOTH",
"196 587 OFFCURVE",
"244 620 OFFCURVE",
"244 684 CURVE SMOOTH",
"244 747 OFFCURVE",
"196 780 OFFCURVE",
"136 780 CURVE SMOOTH",
"77 780 OFFCURVE",
"29 747 OFFCURVE",
"29 684 CURVE SMOOTH"
);
}
);
width = 298;
},
{
hints = (
{
place = "{-47, 164}";
type = Stem;
},
{
place = "{12, 120}";
type = Stem;
},
{
place = "{36, 81}";
type = Stem;
},
{
horizontal = 1;
place = "{-194, 69}";
type = Stem;
},
{
horizontal = 1;
place = "{578, 120}";
type = Stem;
}
);
layerId = "1038C536-374A-461C-9C15-505D839D4AAF";
paths = (
{
closed = 1;
nodes = (
"-47 -187 LINE",
"-33 -191 OFFCURVE",
"-17 -194 OFFCURVE",
"3 -194 CURVE SMOOTH",
"105 -194 OFFCURVE",
"117 -122 OFFCURVE",
"117 -37 CURVE SMOOTH",
"117 482 LINE",
"36 482 LINE",
"36 -62 LINE SMOOTH",
"36 -94 OFFCURVE",
"28 -125 OFFCURVE",
"-14 -125 CURVE SMOOTH",
"-25 -125 OFFCURVE",
"-36 -123 OFFCURVE",
"-47 -119 CURVE"
);
},
{
closed = 1;
nodes = (
"12 606 OFFCURVE",
"39 578 OFFCURVE",
"72 578 CURVE SMOOTH",
"103 578 OFFCURVE",
"132 606 OFFCURVE",
"132 637 CURVE SMOOTH",
"132 673 OFFCURVE",
"103 698 OFFCURVE",
"72 698 CURVE SMOOTH",
"39 698 OFFCURVE",
"12 673 OFFCURVE",
"12 637 CURVE SMOOTH"
);
}
);
width = 195;
}
);
unicode = 006A;
},
{
color = (153, 255, 154, 255);
glyphname = k;
layers = (
{
hints = (
{
horizontal = 1;
place = "{730, -20}";
target = down;
type = TopGhost;
},
{
horizontal = 1;
place = "{0, 21}";
target = up;
type = BottomGhost;
},
{
place = "{58, 190}";
type = Stem;
}
);
layerId = "5489E6BA-21ED-4BE5-8B01-6EB821105F89";
paths = (
{
closed = 1;
nodes = (
"248 730 LINE",
"58 730 LINE",
"58 0 LINE",
"248 0 LINE",
"248 283 LINE",
"406 0 LINE",
"615 0 LINE",
"422 324 LINE",
"610 541 LINE",
"395 541 LINE",
"248 360 LINE"
);
}
);
width = 598;
},
{
hints = (
{
horizontal = 1;
place = "{732, -20}";
target = down;
type = TopGhost;
},
{
horizontal = 1;
place = "{0, 21}";
target = up;
type = BottomGhost;
},
{
place = "{76, 82}";
type = Stem;
}
);
layerId = "1038C536-374A-461C-9C15-505D839D4AAF";
paths = (
{
closed = 1;
nodes = (
"158 732 LINE",
"76 732 LINE",
"76 0 LINE",
"158 0 LINE",
"158 216 LINE",
"355 0 LINE",
"456 0 LINE",
"228 254 LINE",
"447 482 LINE",
"342 482 LINE",
"158 281 LINE"
);
}
);
width = 445;
}
);
unicode = 006B;
},
{
color = (153, 255, 154, 255);
glyphname = l;
layers = (
{
hints = (
{
horizontal = 1;
place = "{730, -20}";
target = down;
type = TopGhost;
},
{
horizontal = 1;
place = "{0, 21}";
target = up;
type = BottomGhost;
},
{
place = "{58, 190}";
type = Stem;
}
);
layerId = "5489E6BA-21ED-4BE5-8B01-6EB821105F89";
paths = (
{
closed = 1;
nodes = (
"248 730 LINE",
"58 730 LINE",
"58 0 LINE",
"248 0 LINE"
);
}
);
width = 307;
},
{
hints = (
{
horizontal = 1;
place = "{732, -20}";
target = down;
type = TopGhost;
},
{
horizontal = 1;
place = "{0, 21}";
target = up;
type = BottomGhost;
},
{
place = "{76, 81}";
type = Stem;
}
);
layerId = "1038C536-374A-461C-9C15-505D839D4AAF";
paths = (
{
closed = 1;
nodes = (
"157 732 LINE",
"76 732 LINE",
"76 0 LINE",
"157 0 LINE"
);
}
);
width = 235;
}
);
unicode = 006C;
},
{
color = (153, 255, 154, 255);
glyphname = m;
layers = (
{
hints = (
{
horizontal = 1;
place = "{384, 169}";
type = Stem;
},
{
horizontal = 1;
place = "{0, 21}";
target = up;
type = BottomGhost;
},
{
place = "{54, 190}";
type = Stem;
},
{
place = "{395, 190}";
type = Stem;
},
{
place = "{737, 190}";
type = Stem;
}
);
layerId = "5489E6BA-21ED-4BE5-8B01-6EB821105F89";
paths = (
{
closed = 1;
nodes = (
"927 0 LINE",
"927 355 LINE",
"927 462 OFFCURVE",
"858 553 OFFCURVE",
"743 553 CURVE",
"664 553 OFFCURVE",
"608 519 OFFCURVE",
"561 465 CURVE",
"532 524 OFFCURVE",
"470 553 OFFCURVE",
"407 553 CURVE SMOOTH",
"339 553 OFFCURVE",
"286 520 OFFCURVE",
"244 467 CURVE",
"54 541 LINE",
"54 0 LINE",
"244 0 LINE",
"244 294 LINE",
"244 353 OFFCURVE",
"278 384 OFFCURVE",
"321 384 CURVE",
"364 384 OFFCURVE",
"395 353 OFFCURVE",
"395 294 CURVE SMOOTH",
"395 0 LINE",
"585 0 LINE",
"585 294 LINE",
"585 341 OFFCURVE",
"612 384 OFFCURVE",
"663 384 CURVE",
"705 384 OFFCURVE",
"737 353 OFFCURVE",
"737 294 CURVE",
"737 0 LINE"
);
}
);
width = 983;
},
{
hints = (
{
horizontal = 1;
place = "{420, 72}";
type = Stem;
},
{
horizontal = 1;
place = "{0, 21}";
target = up;
type = BottomGhost;
},
{
place = "{72, 81}";
type = Stem;
},
{
place = "{386, 81}";
type = Stem;
},
{
place = "{699, 82}";
type = Stem;
}
);
layerId = "1038C536-374A-461C-9C15-505D839D4AAF";
paths = (
{
closed = 1;
nodes = (
"781 0 LINE",
"781 304 LINE",
"781 411 OFFCURVE",
"729 493 OFFCURVE",
"614 493 CURVE",
"544 493 OFFCURVE",
"480 461 OFFCURVE",
"449 404 CURVE",
"422 466 OFFCURVE",
"367 493 OFFCURVE",
"302 493 CURVE SMOOTH",
"245 493 OFFCURVE",
"185 472 OFFCURVE",
"151 424 CURVE",
"72 481 LINE",
"72 0 LINE",
"154 0 LINE",
"154 279 LINE",
"154 356 OFFCURVE",
"196 421 OFFCURVE",
"277 421 CURVE SMOOTH",
"358 421 OFFCURVE",
"385 359 OFFCURVE",
"385 279 CURVE SMOOTH",
"385 0 LINE",
"467 0 LINE",
"467 279 LINE",
"467 356 OFFCURVE",
"510 421 OFFCURVE",
"591 421 CURVE SMOOTH",
"658 421 OFFCURVE",
"699 379 OFFCURVE",
"699 279 CURVE",
"699 0 LINE"
);
}
);
width = 855;
}
);
unicode = 006D;
},
{
color = (153, 255, 154, 255);
glyphname = n;
layers = (
{
hints = (
{
horizontal = 1;
place = "{384, 169}";
type = Stem;
},
{
horizontal = 1;
place = "{0, 21}";
target = up;
type = BottomGhost;
},
{
place = "{53, 190}";
type = Stem;
},
{
place = "{399, 190}";
type = Stem;
}
);
layerId = "5489E6BA-21ED-4BE5-8B01-6EB821105F89";
paths = (
{
closed = 1;
nodes = (
"328 553 OFFCURVE",
"278 510 OFFCURVE",
"243 465 CURVE",
"53 541 LINE",
"53 0 LINE",
"243 0 LINE",
"243 293 LINE SMOOTH",
"243 352 OFFCURVE",
"280 384 OFFCURVE",
"323 384 CURVE SMOOTH",
"366 384 OFFCURVE",
"399 352 OFFCURVE",
"399 293 CURVE SMOOTH",
"399 0 LINE",
"589 0 LINE",
"589 354 LINE SMOOTH",
"589 477 OFFCURVE",
"510 553 OFFCURVE",
"405 553 CURVE SMOOTH"
);
}
);
width = 646;
},
{
hints = (
{
horizontal = 1;
place = "{421, 72}";
type = Stem;
},
{
horizontal = 1;
place = "{0, 21}";
target = up;
type = BottomGhost;
},
{
place = "{72, 82}";
type = Stem;
},
{
place = "{406, 80}";
type = Stem;
}
);
layerId = "1038C536-374A-461C-9C15-505D839D4AAF";
paths = (
{
closed = 1;
nodes = (
"242 493 OFFCURVE",
"192 464 OFFCURVE",
"156 421 CURVE",
"72 482 LINE",
"72 0 LINE",
"154 0 LINE",
"154 280 LINE SMOOTH",
"154 390 OFFCURVE",
"230 421 OFFCURVE",
"286 421 CURVE SMOOTH",
"343 421 OFFCURVE",
"404 388 OFFCURVE",
"404 280 CURVE SMOOTH",
"404 0 LINE",
"486 0 LINE",
"486 303 LINE SMOOTH",
"486 429 OFFCURVE",
"418 493 OFFCURVE",
"312 493 CURVE SMOOTH"
);
}
);
width = 559;
}
);
unicode = 006E;
},
{
color = (153, 255, 154, 255);
glyphname = o;
layers = (
{
layerId = "E76E8D8D-CF20-432F-9325-6C390ED5088C";
name = public.background;
paths = (
{
closed = 1;
nodes = (
"141 492 OFFCURVE",
"23 394 OFFCURVE",
"23 236 CURVE",
"23 82 OFFCURVE",
"145 -13 OFFCURVE",
"295 -13 CURVE",
"445 -13 OFFCURVE",
"566 82 OFFCURVE",
"566 236 CURVE",
"566 394 OFFCURVE",
"449 492 OFFCURVE",
"295 492 CURVE SMOOTH"
);
},
{
closed = 1;
nodes = (
"349 339 OFFCURVE",
"383 289 OFFCURVE",
"383 238 CURVE",
"383 187 OFFCURVE",
"347 140 OFFCURVE",
"295 140 CURVE",
"243 140 OFFCURVE",
"207 187 OFFCURVE",
"207 238 CURVE",
"207 289 OFFCURVE",
"242 339 OFFCURVE",
"295 339 CURVE SMOOTH"
);
}
);
width = 596;
},
{
hints = (
{
horizontal = 1;
place = "{-13, 161}";
type = Stem;
},
{
horizontal = 1;
place = "{392, 161}";
type = Stem;
},
{
place = "{32, 185}";
type = Stem;
},
{
place = "{445, 185}";
type = Stem;
}
);
layerId = "5489E6BA-21ED-4BE5-8B01-6EB821105F89";
paths = (
{
closed = 1;
nodes = (
"630 426 OFFCURVE",
"505 553 OFFCURVE",
"332 553 CURVE SMOOTH",
"158 553 OFFCURVE",
"32 424 OFFCURVE",
"32 270 CURVE",
"32 116 OFFCURVE",
"157 -13 OFFCURVE",
"330 -13 CURVE SMOOTH",
"504 -13 OFFCURVE",
"630 118 OFFCURVE",
"630 272 CURVE SMOOTH"
);
},
{
closed = 1;
nodes = (
"445 205 OFFCURVE",
"401 148 OFFCURVE",
"332 148 CURVE SMOOTH",
"265 148 OFFCURVE",
"217 206 OFFCURVE",
"217 272 CURVE",
"217 337 OFFCURVE",
"261 392 OFFCURVE",
"330 392 CURVE SMOOTH",
"397 392 OFFCURVE",
"445 336 OFFCURVE",
"445 270 CURVE SMOOTH"
);
}
);
width = 663;
},
{
hints = (
{
horizontal = 1;
place = "{-10, 69}";
type = Stem;
},
{
horizontal = 1;
place = "{423, 71}";
type = Stem;
},
{
place = "{40, 83}";
type = Stem;
},
{
place = "{472, 84}";
type = Stem;
}
);
layerId = "1038C536-374A-461C-9C15-505D839D4AAF";
paths = (
{
closed = 1;
nodes = (
"556 384 OFFCURVE",
"447 494 OFFCURVE",
"297 494 CURVE SMOOTH",
"148 494 OFFCURVE",
"40 382 OFFCURVE",
"40 240 CURVE SMOOTH",
"40 99 OFFCURVE",
"148 -10 OFFCURVE",
"296 -10 CURVE SMOOTH",
"446 -10 OFFCURVE",
"556 102 OFFCURVE",
"556 242 CURVE SMOOTH"
);
},
{
closed = 1;
nodes = (
"473 142 OFFCURVE",
"399 59 OFFCURVE",
"297 59 CURVE SMOOTH",
"198 59 OFFCURVE",
"123 138 OFFCURVE",
"123 242 CURVE SMOOTH",
"123 343 OFFCURVE",
"192 425 OFFCURVE",
"296 425 CURVE SMOOTH",
"399 425 OFFCURVE",
"473 343 OFFCURVE",
"473 241 CURVE SMOOTH"
);
}
);
width = 596;
}
);
unicode = 006F;
},
{
color = (153, 255, 154, 255);
glyphname = p;
layers = (
{
hints = (
{
horizontal = 1;
place = "{-12, 159}";
type = Stem;
},
{
horizontal = 1;
place = "{394, 159}";
type = Stem;
},
{
horizontal = 1;
place = "{-160, 21}";
target = up;
type = BottomGhost;
},
{
place = "{53, 190}";
type = Stem;
},
{
place = "{460, 187}";
type = Stem;
}
);
layerId = "5489E6BA-21ED-4BE5-8B01-6EB821105F89";
paths = (
{
closed = 1;
nodes = (
"243 66 LINE",
"278 25 OFFCURVE",
"326 -12 OFFCURVE",
"408 -12 CURVE SMOOTH",
"536 -12 OFFCURVE",
"647 95 OFFCURVE",
"647 271 CURVE SMOOTH",
"647 446 OFFCURVE",
"536 553 OFFCURVE",
"407 553 CURVE SMOOTH",
"326 553 OFFCURVE",
"280 514 OFFCURVE",
"243 469 CURVE",
"53 541 LINE",
"53 -160 LINE",
"243 -160 LINE"
);
},
{
closed = 1;
nodes = (
"460 197 OFFCURVE",
"411 147 OFFCURVE",
"349 147 CURVE SMOOTH",
"288 147 OFFCURVE",
"240 198 OFFCURVE",
"240 270 CURVE SMOOTH",
"240 343 OFFCURVE",
"288 394 OFFCURVE",
"349 394 CURVE SMOOTH",
"411 394 OFFCURVE",
"460 343 OFFCURVE",
"460 272 CURVE SMOOTH"
);
}
);
width = 680;
},
{
hints = (
{
place = "{72, 82}";
type = Stem;
},
{
place = "{493, 84}";
type = Stem;
},
{
horizontal = 1;
place = "{-188, 247}";
type = Stem;
},
{
horizontal = 1;
place = "{-10, 69}";
type = Stem;
},
{
horizontal = 1;
place = "{422, 72}";
type = Stem;
}
);
layerId = "1038C536-374A-461C-9C15-505D839D4AAF";
paths = (
{
closed = 1;
nodes = (
"154 84 LINE",
"198 25 OFFCURVE",
"259 -10 OFFCURVE",
"339 -10 CURVE SMOOTH",
"465 -10 OFFCURVE",
"577 89 OFFCURVE",
"577 242 CURVE SMOOTH",
"577 393 OFFCURVE",
"468 494 OFFCURVE",
"339 494 CURVE SMOOTH",
"259 494 OFFCURVE",
"209 458 OFFCURVE",
"164 406 CURVE",
"72 482 LINE",
"72 -188 LINE",
"154 -188 LINE"
);
},
{
closed = 1;
nodes = (
"495 131 OFFCURVE",
"420 59 OFFCURVE",
"326 59 CURVE SMOOTH",
"232 59 OFFCURVE",
"150 138 OFFCURVE",
"150 241 CURVE SMOOTH",
"150 346 OFFCURVE",
"229 422 OFFCURVE",
"323 422 CURVE SMOOTH",
"421 422 OFFCURVE",
"495 348 OFFCURVE",
"495 242 CURVE SMOOTH"
);
}
);
width = 617;
}
);
unicode = 0070;
},
{
color = (153, 255, 154, 255);
glyphname = q;
layers = (
{
hints = (
{
horizontal = 1;
place = "{-12, 159}";
type = Stem;
},
{
horizontal = 1;
place = "{394, 159}";
type = Stem;
},
{
horizontal = 1;
place = "{-160, 21}";
target = up;
type = BottomGhost;
},
{
place = "{32, 186}";
type = Stem;
},
{
place = "{436, 190}";
type = Stem;
}
);
layerId = "5489E6BA-21ED-4BE5-8B01-6EB821105F89";
paths = (
{
closed = 1;
nodes = (
"626 -160 LINE",
"626 541 LINE",
"436 475 LINE",
"400 516 OFFCURVE",
"352 553 OFFCURVE",
"271 553 CURVE SMOOTH",
"143 553 OFFCURVE",
"32 446 OFFCURVE",
"32 270 CURVE",
"32 97 OFFCURVE",
"144 -12 OFFCURVE",
"272 -12 CURVE SMOOTH",
"352 -12 OFFCURVE",
"399 27 OFFCURVE",
"436 72 CURVE",
"436 -160 LINE"
);
},
{
closed = 1;
nodes = (
"219 344 OFFCURVE",
"269 394 OFFCURVE",
"329 394 CURVE SMOOTH",
"390 394 OFFCURVE",
"439 343 OFFCURVE",
"439 272 CURVE",
"439 200 OFFCURVE",
"390 147 OFFCURVE",
"329 147 CURVE SMOOTH",
"269 147 OFFCURVE",
"219 200 OFFCURVE",
"219 272 CURVE SMOOTH"
);
}
);
width = 681;
},
{
hints = (
{
place = "{40, 83}";
type = Stem;
},
{
place = "{461, 82}";
type = Stem;
},
{
horizontal = 1;
place = "{-188, 247}";
type = Stem;
},
{
horizontal = 1;
place = "{-11, 70}";
type = Stem;
},
{
horizontal = 1;
place = "{422, 72}";
type = Stem;
}
);
layerId = "1038C536-374A-461C-9C15-505D839D4AAF";
paths = (
{
closed = 1;
nodes = (
"543 -188 LINE",
"543 482 LINE",
"451 410 LINE",
"407 459 OFFCURVE",
"358 494 OFFCURVE",
"279 494 CURVE SMOOTH",
"147 494 OFFCURVE",
"40 394 OFFCURVE",
"40 241 CURVE SMOOTH",
"40 93 OFFCURVE",
"145 -11 OFFCURVE",
"279 -11 CURVE SMOOTH",
"358 -11 OFFCURVE",
"416 27 OFFCURVE",
"461 87 CURVE",
"461 -188 LINE"
);
},
{
closed = 1;
nodes = (
"123 351 OFFCURVE",
"195 424 OFFCURVE",
"293 424 CURVE SMOOTH",
"386 424 OFFCURVE",
"466 347 OFFCURVE",
"466 242 CURVE SMOOTH",
"466 138 OFFCURVE",
"386 59 OFFCURVE",
"292 59 CURVE SMOOTH",
"195 59 OFFCURVE",
"123 138 OFFCURVE",
"123 243 CURVE SMOOTH"
);
}
);
width = 616;
}
);
unicode = 0071;
},
{
color = (153, 255, 154, 255);
glyphname = r;
layers = (
{
hints = (
{
horizontal = 1;
place = "{350, 200}";
type = Stem;
},
{
horizontal = 1;
place = "{0, 21}";
target = up;
type = BottomGhost;
},
{
place = "{53, 190}";
type = Stem;
}
);
layerId = "5489E6BA-21ED-4BE5-8B01-6EB821105F89";
paths = (
{
closed = 1;
nodes = (
"414 550 LINE",
"411 550 OFFCURVE",
"408 550 OFFCURVE",
"405 550 CURVE SMOOTH",
"320 550 OFFCURVE",
"273 503 OFFCURVE",
"243 432 CURVE",
"53 541 LINE",
"53 0 LINE",
"243 0 LINE",
"243 168 LINE SMOOTH",
"243 293 OFFCURVE",
"299 350 OFFCURVE",
"398 350 CURVE SMOOTH",
"404 350 OFFCURVE",
"411 350 OFFCURVE",
"414 350 CURVE"
);
}
);
width = 435;
},
{
hints = (
{
place = "{72, 82}";
type = Stem;
},
{
horizontal = 1;
place = "{419, 72}";
type = Stem;
},
{
horizontal = 1;
place = "{490, -20}";
target = down;
type = TopGhost;
},
{
horizontal = 1;
place = "{0, 21}";
target = up;
type = BottomGhost;
}
);
layerId = "1038C536-374A-461C-9C15-505D839D4AAF";
paths = (
{
closed = 1;
nodes = (
"346 486 LINE",
"333 489 OFFCURVE",
"320 491 OFFCURVE",
"304 491 CURVE SMOOTH",
"252 491 OFFCURVE",
"193 469 OFFCURVE",
"156 428 CURVE",
"72 482 LINE",
"72 0 LINE",
"154 0 LINE",
"154 271 LINE SMOOTH",
"154 378 OFFCURVE",
"238 419 OFFCURVE",
"302 419 CURVE SMOOTH",
"319 419 OFFCURVE",
"333 416 OFFCURVE",
"346 410 CURVE"
);
}
);
width = 362;
}
);
unicode = 0072;
},
{
color = (153, 255, 154, 255);
glyphname = s;
layers = (
{
hints = (
{
horizontal = 1;
place = "{-12, 133}";
type = Stem;
},
{
horizontal = 1;
place = "{419, 133}";
type = Stem;
},
{
place = "{30, 171}";
type = Stem;
},
{
place = "{309, 172}";
type = Stem;
}
);
layerId = "5489E6BA-21ED-4BE5-8B01-6EB821105F89";
paths = (
{
closed = 1;
nodes = (
"193 121 OFFCURVE",
"107 152 OFFCURVE",
"45 193 CURVE",
"45 38 LINE",
"119 8 OFFCURVE",
"186 -12 OFFCURVE",
"260 -12 CURVE SMOOTH",
"392 -12 OFFCURVE",
"481 53 OFFCURVE",
"481 164 CURVE SMOOTH",
"481 352 OFFCURVE",
"202 321 OFFCURVE",
"202 391 CURVE SMOOTH",
"202 408 OFFCURVE",
"217 419 OFFCURVE",
"246 419 CURVE SMOOTH",
"292 419 OFFCURVE",
"379 391 OFFCURVE",
"435 360 CURVE",
"435 513 LINE",
"373 536 OFFCURVE",
"326 552 OFFCURVE",
"248 552 CURVE SMOOTH",
"122 552 OFFCURVE",
"30 487 OFFCURVE",
"30 373 CURVE SMOOTH",
"30 180 OFFCURVE",
"309 212 OFFCURVE",
"309 152 CURVE SMOOTH",
"309 131 OFFCURVE",
"279 121 OFFCURVE",
"248 121 CURVE SMOOTH"
);
}
);
width = 510;
},
{
hints = (
{
place = "{54, 79}";
type = Stem;
},
{
place = "{293, 43}";
type = Stem;
},
{
place = "{293, 78}";
type = Stem;
},
{
horizontal = 1;
place = "{-10, 68}";
type = Stem;
},
{
horizontal = 1;
place = "{425, 68}";
type = Stem;
}
);
layerId = "1038C536-374A-461C-9C15-505D839D4AAF";
paths = (
{
closed = 1;
nodes = (
"140 58 OFFCURVE",
"83 95 OFFCURVE",
"41 134 CURVE",
"41 46 LINE",
"80 20 OFFCURVE",
"129 -10 OFFCURVE",
"205 -10 CURVE SMOOTH",
"308 -10 OFFCURVE",
"371 55 OFFCURVE",
"371 133 CURVE SMOOTH",
"371 286 OFFCURVE",
"133 287 OFFCURVE",
"133 373 CURVE SMOOTH",
"133 400 OFFCURVE",
"158 425 OFFCURVE",
"206 425 CURVE SMOOTH",
"255 425 OFFCURVE",
"297 398 OFFCURVE",
"336 363 CURVE",
"336 453 LINE",
"299 481 OFFCURVE",
"250 493 OFFCURVE",
"204 493 CURVE SMOOTH",
"110 493 OFFCURVE",
"54 447 OFFCURVE",
"54 376 CURVE SMOOTH",
"54 227 OFFCURVE",
"292 248 OFFCURVE",
"292 131 CURVE SMOOTH",
"292 80 OFFCURVE",
"251 58 OFFCURVE",
"203 58 CURVE SMOOTH"
);
}
);
width = 413;
}
);
unicode = 0073;
},
{
color = (153, 255, 154, 255);
glyphname = t;
layers = (
{
layerId = "E76E8D8D-CF20-432F-9325-6C390ED5088C";
name = public.background;
paths = (
{
closed = 1;
nodes = (
"84 168 LINE SMOOTH",
"84 39 OFFCURVE",
"156 -11 OFFCURVE",
"266 -11 CURVE SMOOTH",
"319 -11 OFFCURVE",
"364 1 OFFCURVE",
"398 20 CURVE",
"398 169 LINE",
"373 159 OFFCURVE",
"351 151 OFFCURVE",
"326 151 CURVE SMOOTH",
"291 151 OFFCURVE",
"274 167 OFFCURVE",
"274 205 CURVE SMOOTH",
"274 388 LINE",
"400 388 LINE",
"400 541 LINE",
"274 541 LINE",
"274 678 LINE",
"84 678 LINE",
"84 541 LINE",
"-20 388 LINE",
"84 388 LINE"
);
}
);
width = 353;
},
{
hints = (
{
horizontal = 1;
place = "{-11, 162}";
type = Stem;
},
{
horizontal = 1;
place = "{388, 153}";
type = Stem;
},
{
horizontal = 1;
place = "{678, -20}";
target = down;
type = TopGhost;
},
{
place = "{121, 190}";
type = Stem;
}
);
layerId = "5489E6BA-21ED-4BE5-8B01-6EB821105F89";
paths = (
{
closed = 1;
nodes = (
"121 168 LINE SMOOTH",
"121 39 OFFCURVE",
"193 -11 OFFCURVE",
"303 -11 CURVE SMOOTH",
"356 -11 OFFCURVE",
"401 1 OFFCURVE",
"435 20 CURVE",
"435 169 LINE",
"410 159 OFFCURVE",
"388 151 OFFCURVE",
"363 151 CURVE SMOOTH",
"328 151 OFFCURVE",
"311 167 OFFCURVE",
"311 205 CURVE SMOOTH",
"311 388 LINE",
"437 388 LINE",
"437 541 LINE",
"311 541 LINE",
"311 708 LINE",
"17 388 LINE",
"121 388 LINE"
);
}
);
width = 466;
},
{
hints = (
{
horizontal = 1;
place = "{-11, 71}";
type = Stem;
},
{
horizontal = 1;
place = "{412, 70}";
type = Stem;
},
{
horizontal = 1;
place = "{649, -20}";
target = down;
type = TopGhost;
},
{
place = "{117, 80}";
type = Stem;
}
);
layerId = "1038C536-374A-461C-9C15-505D839D4AAF";
paths = (
{
closed = 1;
nodes = (
"117 120 LINE SMOOTH",
"117 38 OFFCURVE",
"161 -11 OFFCURVE",
"231 -11 CURVE SMOOTH",
"249 -11 OFFCURVE",
"265 -7 OFFCURVE",
"280 -1 CURVE",
"280 68 LINE",
"265 62 OFFCURVE",
"252 59 OFFCURVE",
"241 59 CURVE SMOOTH",
"209 59 OFFCURVE",
"197 86 OFFCURVE",
"197 112 CURVE SMOOTH",
"197 412 LINE",
"325 412 LINE",
"325 482 LINE",
"197 482 LINE",
"197 649 LINE",
"19 412 LINE",
"117 412 LINE"
);
}
);
width = 353;
}
);
unicode = 0074;
},
{
color = (153, 255, 154, 255);
glyphname = u;
layers = (
{
hints = (
{
horizontal = 1;
place = "{-12, 169}";
type = Stem;
},
{
horizontal = 1;
place = "{541, -20}";
target = down;
type = TopGhost;
},
{
place = "{57, 190}";
type = Stem;
},
{
place = "{403, 190}";
type = Stem;
}
);
layerId = "5489E6BA-21ED-4BE5-8B01-6EB821105F89";
paths = (
{
closed = 1;
nodes = (
"318 -12 OFFCURVE",
"368 29 OFFCURVE",
"403 74 CURVE",
"593 0 LINE",
"593 541 LINE",
"403 541 LINE",
"403 248 LINE SMOOTH",
"403 189 OFFCURVE",
"369 157 OFFCURVE",
"324 157 CURVE",
"278 157 OFFCURVE",
"247 189 OFFCURVE",
"247 248 CURVE",
"247 541 LINE",
"57 541 LINE",
"57 187 LINE SMOOTH",
"57 64 OFFCURVE",
"126 -12 OFFCURVE",
"241 -12 CURVE SMOOTH"
);
}
);
width = 648;
},
{
hints = (
{
horizontal = 1;
place = "{-10, 71}";
type = Stem;
},
{
horizontal = 1;
place = "{483, -20}";
target = down;
type = TopGhost;
},
{
place = "{73, 82}";
type = Stem;
},
{
place = "{406, 81}";
type = Stem;
}
);
layerId = "1038C536-374A-461C-9C15-505D839D4AAF";
paths = (
{
closed = 1;
nodes = (
"317 -10 OFFCURVE",
"367 19 OFFCURVE",
"403 62 CURVE",
"487 1 LINE",
"487 483 LINE",
"405 483 LINE",
"405 203 LINE SMOOTH",
"405 93 OFFCURVE",
"329 62 OFFCURVE",
"273 62 CURVE SMOOTH",
"216 62 OFFCURVE",
"155 95 OFFCURVE",
"155 203 CURVE SMOOTH",
"155 483 LINE",
"73 483 LINE",
"73 180 LINE SMOOTH",
"73 54 OFFCURVE",
"141 -10 OFFCURVE",
"247 -10 CURVE SMOOTH"
);
}
);
width = 559;
}
);
unicode = 0075;
},
{
color = (153, 255, 154, 255);
glyphname = v;
layers = (
{
hints = (
{
horizontal = 1;
place = "{541, -20}";
target = down;
type = TopGhost;
},
{
horizontal = 1;
place = "{-4, 21}";
target = up;
type = BottomGhost;
}
);
layerId = "5489E6BA-21ED-4BE5-8B01-6EB821105F89";
paths = (
{
closed = 1;
nodes = (
"613 541 LINE",
"416 541 LINE",
"312 225 LINE",
"208 541 LINE",
"8 541 LINE",
"224 -4 LINE",
"397 -4 LINE"
);
}
);
width = 621;
},
{
hints = (
{
horizontal = 1;
place = "{481, -20}";
target = down;
type = TopGhost;
},
{
horizontal = 1;
place = "{0, 21}";
target = up;
type = BottomGhost;
}
);
layerId = "1038C536-374A-461C-9C15-505D839D4AAF";
paths = (
{
closed = 1;
nodes = (
"499 481 LINE",
"413 481 LINE",
"258 91 LINE",
"104 481 LINE",
"14 481 LINE",
"216 0 LINE",
"297 0 LINE"
);
}
);
width = 510;
}
);
unicode = 0076;
},
{
color = (153, 255, 154, 255);
glyphname = w;
layers = (
{
hints = (
{
horizontal = 1;
place = "{-4, 21}";
target = up;
type = BottomGhost;
},
{
horizontal = 1;
place = "{543, -20}";
target = down;
type = TopGhost;
}
);
layerId = "5489E6BA-21ED-4BE5-8B01-6EB821105F89";
paths = (
{
closed = 1;
nodes = (
"8 541 LINE",
"173 -4 LINE",
"336 -4 LINE",
"426 277 LINE",
"514 -4 LINE",
"678 -4 LINE",
"845 541 LINE",
"662 541 LINE",
"589 267 LINE",
"505 543 LINE",
"348 543 LINE",
"265 269 LINE",
"194 541 LINE"
);
}
);
width = 854;
},
{
layerId = "1038C536-374A-461C-9C15-505D839D4AAF";
paths = (
{
closed = 1;
nodes = (
"19 482 LINE",
"184 0 LINE",
"262 0 LINE",
"383 395 LINE",
"506 0 LINE",
"587 0 LINE",
"751 482 LINE",
"665 482 LINE",
"545 100 LINE",
"428 483 LINE",
"345 483 LINE",
"227 99 LINE",
"104 482 LINE"
);
}
);
width = 767;
}
);
unicode = 0077;
},
{
color = (153, 255, 154, 255);
glyphname = x;
layers = (
{
hints = (
{
horizontal = 1;
place = "{0, 21}";
target = up;
type = BottomGhost;
},
{
horizontal = 1;
place = "{541, -20}";
target = down;
type = TopGhost;
}
);
layerId = "5489E6BA-21ED-4BE5-8B01-6EB821105F89";
paths = (
{
closed = 1;
nodes = (
"1 0 LINE",
"201 0 LINE",
"286 139 LINE",
"370 0 LINE",
"574 0 LINE",
"392 274 LINE",
"570 541 LINE",
"369 541 LINE",
"289 408 LINE",
"209 541 LINE",
"4 541 LINE",
"183 273 LINE"
);
}
);
width = 575;
},
{
hints = (
{
horizontal = 1;
place = "{0, 21}";
target = up;
type = BottomGhost;
},
{
horizontal = 1;
place = "{481, -20}";
target = down;
type = TopGhost;
}
);
layerId = "1038C536-374A-461C-9C15-505D839D4AAF";
paths = (
{
closed = 1;
nodes = (
"8 0 LINE",
"100 0 LINE",
"246 192 LINE",
"393 0 LINE",
"486 0 LINE",
"294 251 LINE",
"472 481 LINE",
"382 481 LINE",
"248 307 LINE",
"115 481 LINE",
"21 481 LINE",
"202 249 LINE"
);
}
);
width = 499;
}
);
unicode = 0078;
},
{
color = (153, 255, 154, 255);
glyphname = y;
layers = (
{
layerId = "E76E8D8D-CF20-432F-9325-6C390ED5088C";
name = public.background;
paths = (
{
closed = 1;
nodes = (
"241 66 LINE",
"276 25 OFFCURVE",
"324 -12 OFFCURVE",
"406 -12 CURVE SMOOTH",
"534 -12 OFFCURVE",
"645 95 OFFCURVE",
"645 271 CURVE SMOOTH",
"645 446 OFFCURVE",
"534 553 OFFCURVE",
"405 553 CURVE SMOOTH",
"324 553 OFFCURVE",
"278 514 OFFCURVE",
"241 469 CURVE",
"51 541 LINE",
"51 -160 LINE",
"241 -160 LINE"
);
},
{
closed = 1;
nodes = (
"458 197 OFFCURVE",
"409 147 OFFCURVE",
"347 147 CURVE SMOOTH",
"286 147 OFFCURVE",
"238 198 OFFCURVE",
"238 270 CURVE SMOOTH",
"238 343 OFFCURVE",
"286 394 OFFCURVE",
"347 394 CURVE SMOOTH",
"409 394 OFFCURVE",
"458 343 OFFCURVE",
"458 272 CURVE SMOOTH"
);
},
{
nodes = (
"386 431 LINE",
"199 -165 LINE"
);
},
{
closed = 1;
nodes = (
"615 541 LINE",
"420 541 LINE",
"318 215 LINE",
"210 541 LINE",
"11 541 LINE",
"223 10 LINE",
"168 -160 LINE",
"351 -160 LINE"
);
}
);
width = 505;
},
{
hints = (
{
horizontal = 1;
place = "{-163, 151}";
type = Stem;
},
{
horizontal = 1;
place = "{541, -20}";
target = down;
type = TopGhost;
}
);
layerId = "5489E6BA-21ED-4BE5-8B01-6EB821105F89";
paths = (
{
closed = 1;
nodes = (
"227 -6 LINE",
"178 -160 LINE",
"339 -160 LINE",
"603 541 LINE",
"408 541 LINE",
"306 195 LINE",
"198 541 LINE",
"-1 541 LINE"
);
}
);
width = 610;
},
{
hints = (
{
horizontal = 1;
place = "{-195, 63}";
type = Stem;
},
{
horizontal = 1;
place = "{481, -20}";
target = down;
type = TopGhost;
}
);
layerId = "1038C536-374A-461C-9C15-505D839D4AAF";
paths = (
{
closed = 1;
nodes = (
"214 0 LINE",
"139 -188 LINE",
"217 -188 LINE",
"485 481 LINE",
"399 481 LINE",
"250 98 LINE",
"85 481 LINE",
"-4 481 LINE"
);
}
);
width = 505;
}
);
unicode = 0079;
},
{
color = (153, 255, 154, 255);
glyphname = z;
layers = (
{
hints = (
{
horizontal = 1;
place = "{0, 151}";
type = Stem;
},
{
horizontal = 1;
place = "{390, 151}";
type = Stem;
}
);
layerId = "5489E6BA-21ED-4BE5-8B01-6EB821105F89";
paths = (
{
closed = 1;
nodes = (
"527 416 LINE",
"527 541 LINE",
"34 541 LINE",
"34 390 LINE",
"275 390 LINE",
"25 125 LINE",
"25 0 LINE",
"527 0 LINE",
"527 151 LINE",
"276 151 LINE"
);
}
);
width = 551;
},
{
hints = (
{
horizontal = 1;
place = "{0, 70}";
type = Stem;
},
{
horizontal = 1;
place = "{414, 68}";
type = Stem;
}
);
layerId = "1038C536-374A-461C-9C15-505D839D4AAF";
paths = (
{
closed = 1;
nodes = (
"486 414 LINE",
"486 482 LINE",
"40 482 LINE",
"40 414 LINE",
"388 414 LINE",
"19 69 LINE",
"19 0 LINE",
"480 0 LINE",
"480 70 LINE",
"117 70 LINE"
);
}
);
width = 503;
}
);
unicode = 007A;
},
{
color = (153, 255, 154, 255);
glyphname = braceleft;
layers = (
{
layerId = "E76E8D8D-CF20-432F-9325-6C390ED5088C";
name = public.background;
paths = (
{
closed = 1;
nodes = (
"32 350 LINE",
"32 224 LINE",
"48 224 LINE SMOOTH",
"126 224 OFFCURVE",
"166 202 OFFCURVE",
"166 126 CURVE",
"163 52 LINE",
"163 -61 OFFCURVE",
"226 -114 OFFCURVE",
"427 -141 CURVE",
"427 -24 LINE",
"344 -10 OFFCURVE",
"332 27 OFFCURVE",
"332 83 CURVE",
"335 153 LINE",
"335 226 OFFCURVE",
"295 267 OFFCURVE",
"223 287 CURVE",
"295 307 OFFCURVE",
"338 348 OFFCURVE",
"335 421 CURVE SMOOTH",
"332 491 LINE SMOOTH",
"330 547 OFFCURVE",
"344 584 OFFCURVE",
"427 598 CURVE",
"427 715 LINE",
"226 688 OFFCURVE",
"158 635 OFFCURVE",
"163 522 CURVE SMOOTH",
"166 448 LINE SMOOTH",
"169 372 OFFCURVE",
"126 350 OFFCURVE",
"48 350 CURVE SMOOTH"
);
}
);
width = 465;
},
{
hints = (
{
horizontal = 1;
place = "{224, 126}";
type = Stem;
},
{
horizontal = 1;
place = "{-141, 21}";
target = up;
type = BottomGhost;
},
{
horizontal = 1;
place = "{715, -20}";
target = down;
type = TopGhost;
},
{
place = "{163, 169}";
type = Stem;
}
);
layerId = "5489E6BA-21ED-4BE5-8B01-6EB821105F89";
paths = (
{
closed = 1;
nodes = (
"32 224 LINE",
"105 224 OFFCURVE",
"170 217 OFFCURVE",
"166 126 CURVE SMOOTH",
"157 -81 OFFCURVE",
"222 -113 OFFCURVE",
"427 -141 CURVE",
"427 -24 LINE",
"313 -4 OFFCURVE",
"331 65 OFFCURVE",
"335 153 CURVE SMOOTH",
"338 227 OFFCURVE",
"289 269 OFFCURVE",
"223 287 CURVE",
"355 324 OFFCURVE",
"332 397 OFFCURVE",
"332 500 CURVE SMOOTH",
"332 566 OFFCURVE",
"366 588 OFFCURVE",
"427 598 CURVE",
"427 715 LINE",
"315 700 OFFCURVE",
"163 676 OFFCURVE",
"163 533 CURVE SMOOTH",
"163 416 OFFCURVE",
"197 350 OFFCURVE",
"32 350 CURVE"
);
}
);
width = 465;
},
{
layerId = "E76E8D8D-CF20-432F-9325-6C390ED5088C";
name = public.background;
paths = (
{
closed = 1;
nodes = (
"29 252 LINE",
"109 252 OFFCURVE",
"138 215 OFFCURVE",
"138 147 CURVE SMOOTH",
"138 130 LINE",
"136 51 LINE SMOOTH",
"136 -93 OFFCURVE",
"165 -147 OFFCURVE",
"338 -155 CURVE",
"350 -97 LINE",
"252 -78 OFFCURVE",
"220 -53 OFFCURVE",
"220 23 CURVE SMOOTH",
"220 135 LINE SMOOTH",
"220 229 OFFCURVE",
"186 261 OFFCURVE",
"126 289 CURVE",
"186 317 OFFCURVE",
"220 349 OFFCURVE",
"220 443 CURVE SMOOTH",
"220 555 LINE SMOOTH",
"220 631 OFFCURVE",
"252 656 OFFCURVE",
"350 675 CURVE",
"338 733 LINE",
"165 725 OFFCURVE",
"136 671 OFFCURVE",
"136 527 CURVE SMOOTH",
"136 502 OFFCURVE",
"138 474 OFFCURVE",
"138 448 CURVE SMOOTH",
"138 431 LINE SMOOTH",
"138 363 OFFCURVE",
"109 325 OFFCURVE",
"29 325 CURVE"
);
}
);
width = 376;
},
{
hints = (
{
place = "{29, 187}";
type = Stem;
},
{
place = "{136, 80}";
type = Stem;
},
{
horizontal = 1;
place = "{-155, 21}";
target = up;
type = BottomGhost;
},
{
horizontal = 1;
place = "{736, -20}";
target = down;
type = TopGhost;
}
);
layerId = "1038C536-374A-461C-9C15-505D839D4AAF";
paths = (
{
closed = 1;
nodes = (
"29 252 LINE",
"164 253 OFFCURVE",
"136 145 OFFCURVE",
"136 51 CURVE SMOOTH",
"136 -107 OFFCURVE",
"179 -148 OFFCURVE",
"338 -155 CURVE",
"350 -97 LINE",
"272 -82 OFFCURVE",
"220 -66 OFFCURVE",
"220 23 CURVE SMOOTH",
"220 137 OFFCURVE",
"245 234 OFFCURVE",
"126 289 CURVE",
"245 344 OFFCURVE",
"220 441 OFFCURVE",
"220 555 CURVE SMOOTH",
"220 644 OFFCURVE",
"272 660 OFFCURVE",
"350 675 CURVE",
"338 733 LINE",
"107 722 OFFCURVE",
"138 616 OFFCURVE",
"138 431 CURVE SMOOTH",
"138 356 OFFCURVE",
"101 325 OFFCURVE",
"29 325 CURVE"
);
}
);
width = 376;
}
);
unicode = 007B;
},
{
color = (153, 255, 154, 255);
glyphname = bar;
layers = (
{
hints = (
{
horizontal = 1;
place = "{798, -20}";
target = down;
type = TopGhost;
},
{
horizontal = 1;
place = "{-128, 21}";
target = up;
type = BottomGhost;
},
{
place = "{93, 145}";
type = Stem;
}
);
layerId = "5489E6BA-21ED-4BE5-8B01-6EB821105F89";
paths = (
{
closed = 1;
nodes = (
"93 798 LINE",
"93 -128 LINE",
"238 -128 LINE",
"238 798 LINE"
);
}
);
width = 332;
},
{
hints = (
{
horizontal = 1;
place = "{767, -20}";
target = down;
type = TopGhost;
},
{
horizontal = 1;
place = "{-168, 21}";
target = up;
type = BottomGhost;
},
{
place = "{90, 73}";
type = Stem;
}
);
layerId = "1038C536-374A-461C-9C15-505D839D4AAF";
paths = (
{
closed = 1;
nodes = (
"90 767 LINE",
"90 -168 LINE",
"163 -168 LINE",
"163 767 LINE"
);
}
);
width = 253;
}
);
unicode = 007C;
},
{
color = (153, 255, 154, 255);
glyphname = braceright;
layers = (
{
layerId = "E76E8D8D-CF20-432F-9325-6C390ED5088C";
name = public.background;
paths = (
{
closed = 1;
nodes = (
"432 350 LINE",
"416 350 LINE SMOOTH",
"338 350 OFFCURVE",
"295 372 OFFCURVE",
"298 448 CURVE SMOOTH",
"301 522 LINE SMOOTH",
"306 635 OFFCURVE",
"238 688 OFFCURVE",
"37 715 CURVE",
"37 598 LINE",
"120 584 OFFCURVE",
"134 547 OFFCURVE",
"132 491 CURVE SMOOTH",
"129 421 LINE SMOOTH",
"126 348 OFFCURVE",
"169 307 OFFCURVE",
"241 287 CURVE",
"169 267 OFFCURVE",
"129 226 OFFCURVE",
"129 153 CURVE",
"132 83 LINE",
"132 27 OFFCURVE",
"120 -10 OFFCURVE",
"37 -24 CURVE",
"37 -141 LINE",
"238 -114 OFFCURVE",
"301 -61 OFFCURVE",
"301 52 CURVE",
"298 126 LINE",
"298 202 OFFCURVE",
"338 224 OFFCURVE",
"416 224 CURVE SMOOTH",
"432 224 LINE"
);
},
{
closed = 1;
nodes = (
"432 350 LINE",
"416 350 LINE SMOOTH",
"338 350 OFFCURVE",
"295 372 OFFCURVE",
"298 448 CURVE SMOOTH",
"301 522 LINE SMOOTH",
"306 635 OFFCURVE",
"238 688 OFFCURVE",
"37 715 CURVE",
"37 598 LINE",
"120 584 OFFCURVE",
"134 547 OFFCURVE",
"132 491 CURVE SMOOTH",
"129 421 LINE SMOOTH",
"126 348 OFFCURVE",
"169 307 OFFCURVE",
"241 287 CURVE",
"169 267 OFFCURVE",
"129 226 OFFCURVE",
"129 153 CURVE",
"132 83 LINE",
"132 27 OFFCURVE",
"120 -10 OFFCURVE",
"37 -24 CURVE",
"37 -141 LINE",
"238 -114 OFFCURVE",
"301 -61 OFFCURVE",
"301 52 CURVE",
"298 126 LINE",
"298 202 OFFCURVE",
"338 224 OFFCURVE",
"416 224 CURVE SMOOTH",
"432 224 LINE"
);
}
);
width = 465;
},
{
hints = (
{
horizontal = 1;
place = "{224, 126}";
type = Stem;
},
{
horizontal = 1;
place = "{715, -20}";
target = down;
type = TopGhost;
},
{
horizontal = 1;
place = "{-141, 21}";
target = up;
type = BottomGhost;
},
{
place = "{132, 169}";
type = Stem;
}
);
layerId = "5489E6BA-21ED-4BE5-8B01-6EB821105F89";
paths = (
{
closed = 1;
nodes = (
"432 350 LINE",
"270 350 OFFCURVE",
"301 417 OFFCURVE",
"301 533 CURVE SMOOTH",
"301 676 OFFCURVE",
"149 700 OFFCURVE",
"37 715 CURVE",
"37 598 LINE",
"153 579 OFFCURVE",
"132 509 OFFCURVE",
"129 421 CURVE SMOOTH",
"126 345 OFFCURVE",
"173 306 OFFCURVE",
"241 287 CURVE",
"175 268 OFFCURVE",
"126 227 OFFCURVE",
"129 153 CURVE SMOOTH",
"133 65 OFFCURVE",
"151 -4 OFFCURVE",
"37 -24 CURVE",
"37 -141 LINE",
"159 -125 OFFCURVE",
"301 -100 OFFCURVE",
"301 52 CURVE SMOOTH",
"301 166 OFFCURVE",
"275 224 OFFCURVE",
"432 224 CURVE"
);
}
);
width = 465;
},
{
layerId = "E76E8D8D-CF20-432F-9325-6C390ED5088C";
name = public.background;
paths = (
{
closed = 1;
nodes = (
"347 325 LINE",
"267 325 OFFCURVE",
"238 363 OFFCURVE",
"238 431 CURVE SMOOTH",
"238 448 LINE SMOOTH",
"238 474 OFFCURVE",
"240 502 OFFCURVE",
"240 527 CURVE SMOOTH",
"240 671 OFFCURVE",
"211 725 OFFCURVE",
"38 733 CURVE",
"26 675 LINE",
"124 656 OFFCURVE",
"156 631 OFFCURVE",
"156 555 CURVE SMOOTH",
"156 443 LINE SMOOTH",
"156 349 OFFCURVE",
"190 317 OFFCURVE",
"250 289 CURVE",
"190 261 OFFCURVE",
"156 229 OFFCURVE",
"156 135 CURVE SMOOTH",
"156 23 LINE SMOOTH",
"156 -53 OFFCURVE",
"124 -78 OFFCURVE",
"26 -97 CURVE",
"38 -155 LINE",
"211 -147 OFFCURVE",
"244 -93 OFFCURVE",
"240 51 CURVE SMOOTH",
"238 130 LINE",
"238 147 LINE SMOOTH",
"238 215 OFFCURVE",
"267 252 OFFCURVE",
"347 252 CURVE"
);
},
{
closed = 1;
nodes = (
"347 325 LINE",
"267 325 OFFCURVE",
"238 363 OFFCURVE",
"238 431 CURVE SMOOTH",
"238 448 LINE SMOOTH",
"238 474 OFFCURVE",
"240 502 OFFCURVE",
"240 527 CURVE SMOOTH",
"240 671 OFFCURVE",
"211 725 OFFCURVE",
"38 733 CURVE",
"26 675 LINE",
"124 656 OFFCURVE",
"156 631 OFFCURVE",
"156 555 CURVE SMOOTH",
"156 443 LINE SMOOTH",
"156 349 OFFCURVE",
"190 317 OFFCURVE",
"250 289 CURVE",
"190 261 OFFCURVE",
"156 229 OFFCURVE",
"156 135 CURVE SMOOTH",
"156 23 LINE SMOOTH",
"156 -53 OFFCURVE",
"124 -78 OFFCURVE",
"26 -97 CURVE",
"38 -155 LINE",
"211 -147 OFFCURVE",
"244 -93 OFFCURVE",
"240 51 CURVE SMOOTH",
"238 130 LINE",
"238 147 LINE SMOOTH",
"238 215 OFFCURVE",
"267 252 OFFCURVE",
"347 252 CURVE"
);
}
);
width = 376;
},
{
hints = (
{
place = "{160, 80}";
type = Stem;
},
{
place = "{160, 187}";
type = Stem;
},
{
horizontal = 1;
place = "{736, -20}";
target = down;
type = TopGhost;
},
{
horizontal = 1;
place = "{-155, 21}";
target = up;
type = BottomGhost;
}
);
layerId = "1038C536-374A-461C-9C15-505D839D4AAF";
paths = (
{
closed = 1;
nodes = (
"347 325 LINE",
"213 323 OFFCURVE",
"240 435 OFFCURVE",
"240 527 CURVE SMOOTH",
"240 685 OFFCURVE",
"197 726 OFFCURVE",
"38 733 CURVE",
"26 675 LINE",
"104 660 OFFCURVE",
"156 644 OFFCURVE",
"156 555 CURVE SMOOTH",
"156 441 OFFCURVE",
"131 344 OFFCURVE",
"250 289 CURVE",
"131 234 OFFCURVE",
"156 137 OFFCURVE",
"156 23 CURVE SMOOTH",
"156 -66 OFFCURVE",
"104 -82 OFFCURVE",
"26 -97 CURVE",
"38 -155 LINE",
"270 -144 OFFCURVE",
"238 -46 OFFCURVE",
"238 147 CURVE SMOOTH",
"238 221 OFFCURVE",
"274 253 OFFCURVE",
"347 252 CURVE"
);
}
);
width = 376;
}
);
unicode = 007D;
},
{
color = (153, 255, 154, 255);
glyphname = asciitilde;
layers = (
{
hints = (
{
horizontal = 1;
place = "{227, 128}";
type = Stem;
},
{
horizontal = 1;
place = "{266, 89}";
type = Stem;
},
{
horizontal = 1;
place = "{266, 128}";
type = Stem;
},
{
horizontal = 1;
place = "{401, -20}";
target = down;
type = TopGhost;
},
{
horizontal = 1;
place = "{220, 21}";
target = up;
type = BottomGhost;
}
);
layerId = "5489E6BA-21ED-4BE5-8B01-6EB821105F89";
paths = (
{
closed = 1;
nodes = (
"369 401 LINE",
"356 370 OFFCURVE",
"344 355 OFFCURVE",
"318 355 CURVE SMOOTH",
"276 355 OFFCURVE",
"226 394 OFFCURVE",
"162 394 CURVE SMOOTH",
"101 394 OFFCURVE",
"64 359 OFFCURVE",
"42 260 CURVE",
"130 220 LINE",
"143 251 OFFCURVE",
"154 266 OFFCURVE",
"180 266 CURVE SMOOTH",
"222 266 OFFCURVE",
"277 227 OFFCURVE",
"337 227 CURVE SMOOTH",
"390 227 OFFCURVE",
"434 258 OFFCURVE",
"456 357 CURVE"
);
}
);
width = 491;
},
{
hints = (
{
horizontal = 1;
place = "{235, 73}";
type = Stem;
},
{
horizontal = 1;
place = "{290, 74}";
type = Stem;
},
{
horizontal = 1;
place = "{369, -20}";
target = down;
type = TopGhost;
},
{
horizontal = 1;
place = "{229, 21}";
target = up;
type = BottomGhost;
}
);
layerId = "1038C536-374A-461C-9C15-505D839D4AAF";
paths = (
{
closed = 1;
nodes = (
"413 369 LINE",
"396 332 OFFCURVE",
"368 309 OFFCURVE",
"336 309 CURVE SMOOTH",
"285 309 OFFCURVE",
"241 364 OFFCURVE",
"171 364 CURVE SMOOTH",
"112 364 OFFCURVE",
"76 325 OFFCURVE",
"47 253 CURVE",
"96 229 LINE",
"114 268 OFFCURVE",
"138 290 OFFCURVE",
"172 290 CURVE SMOOTH",
"227 290 OFFCURVE",
"284 235 OFFCURVE",
"345 235 CURVE SMOOTH",
"400 235 OFFCURVE",
"436 279 OFFCURVE",
"463 347 CURVE"
);
}
);
width = 508;
}
);
unicode = 007E;
},
{
color = (153, 255, 154, 255);
glyphname = Euro;
layers = (
{
layerId = "E76E8D8D-CF20-432F-9325-6C390ED5088C";
name = public.background;
paths = (
{
closed = 1;
nodes = (
"369 300 LINE",
"369 401 LINE",
"192 401 LINE",
"200 526 OFFCURVE",
"275 548 OFFCURVE",
"322 548 CURVE SMOOTH",
"359 548 OFFCURVE",
"398 534 OFFCURVE",
"427 497 CURVE",
"561 601 LINE",
"508 669 OFFCURVE",
"430 714 OFFCURVE",
"321 714 CURVE SMOOTH",
"106 714 OFFCURVE",
"3 535 OFFCURVE",
"3 348 CURVE SMOOTH",
"3 95 OFFCURVE",
"154 -14 OFFCURVE",
"320 -14 CURVE SMOOTH",
"430 -14 OFFCURVE",
"507 31 OFFCURVE",
"564 105 CURVE",
"433 205 LINE",
"400 165 OFFCURVE",
"364 152 OFFCURVE",
"331 152 CURVE SMOOTH",
"252 152 OFFCURVE",
"212 230 OFFCURVE",
"199 300 CURVE"
);
}
);
width = 599;
},
{
hints = (
{
horizontal = 1;
place = "{-14, 166}";
type = Stem;
},
{
horizontal = 1;
place = "{300, 101}";
type = Stem;
},
{
horizontal = 1;
place = "{548, 166}";
type = Stem;
},
{
place = "{3, 189}";
type = Stem;
}
);
layerId = "5489E6BA-21ED-4BE5-8B01-6EB821105F89";
paths = (
{
closed = 1;
nodes = (
"192 401 LINE",
"200 526 OFFCURVE",
"275 548 OFFCURVE",
"322 548 CURVE SMOOTH",
"359 548 OFFCURVE",
"398 534 OFFCURVE",
"427 497 CURVE",
"561 601 LINE",
"508 669 OFFCURVE",
"430 714 OFFCURVE",
"321 714 CURVE SMOOTH",
"106 714 OFFCURVE",
"3 535 OFFCURVE",
"3 348 CURVE SMOOTH",
"3 95 OFFCURVE",
"154 -14 OFFCURVE",
"320 -14 CURVE SMOOTH",
"430 -14 OFFCURVE",
"507 31 OFFCURVE",
"564 105 CURVE",
"433 205 LINE",
"400 165 OFFCURVE",
"364 152 OFFCURVE",
"331 152 CURVE SMOOTH",
"252 152 OFFCURVE",
"212 230 OFFCURVE",
"199 300 CURVE",
"369 300 LINE",
"369 401 LINE"
);
}
);
width = 599;
},
{
layerId = "E76E8D8D-CF20-432F-9325-6C390ED5088C";
name = public.background;
paths = (
{
closed = 1;
nodes = (
"341 356 LINE",
"92 356 LINE",
"92 471 OFFCURVE",
"150 648 OFFCURVE",
"315 648 CURVE SMOOTH",
"381 648 OFFCURVE",
"422 618 OFFCURVE",
"460 575 CURVE",
"492 602 OFFCURVE",
"486 600 OFFCURVE",
"517 627 CURVE",
"469 686 OFFCURVE",
"413 723 OFFCURVE",
"317 723 CURVE SMOOTH",
"99 723 OFFCURVE",
"10 535 OFFCURVE",
"10 347 CURVE SMOOTH",
"10 180 OFFCURVE",
"91 -17 OFFCURVE",
"301 -17 CURVE SMOOTH",
"395 -17 OFFCURVE",
"469 19 OFFCURVE",
"517 80 CURVE",
"460 133 LINE",
"424 89 OFFCURVE",
"373 58 OFFCURVE",
"305 58 CURVE SMOOTH",
"165 58 OFFCURVE",
"105 174 OFFCURVE",
"96 289 CURVE",
"341 289 LINE"
);
}
);
width = 534;
},
{
hints = (
{
horizontal = 1;
place = "{-17, 74}";
type = Stem;
},
{
horizontal = 1;
place = "{289, 67}";
type = Stem;
},
{
horizontal = 1;
place = "{648, 75}";
type = Stem;
},
{
place = "{10, 86}";
type = Stem;
}
);
layerId = "1038C536-374A-461C-9C15-505D839D4AAF";
paths = (
{
closed = 1;
nodes = (
"92 356 LINE",
"92 471 OFFCURVE",
"150 648 OFFCURVE",
"315 648 CURVE SMOOTH",
"381 648 OFFCURVE",
"422 618 OFFCURVE",
"460 575 CURVE",
"492 602 OFFCURVE",
"486 600 OFFCURVE",
"517 627 CURVE",
"469 686 OFFCURVE",
"413 723 OFFCURVE",
"317 723 CURVE SMOOTH",
"99 723 OFFCURVE",
"10 535 OFFCURVE",
"10 347 CURVE SMOOTH",
"10 180 OFFCURVE",
"91 -17 OFFCURVE",
"301 -17 CURVE SMOOTH",
"395 -17 OFFCURVE",
"469 19 OFFCURVE",
"517 80 CURVE",
"460 133 LINE",
"424 89 OFFCURVE",
"373 58 OFFCURVE",
"305 58 CURVE SMOOTH",
"165 58 OFFCURVE",
"105 174 OFFCURVE",
"96 289 CURVE",
"341 289 LINE",
"341 356 LINE"
);
}
);
width = 534;
}
);
unicode = 20AC;
},
{
color = (153, 255, 154, 255);
glyphname = quotesinglbase;
layers = (
{
hints = (
{
horizontal = 1;
place = "{195, -20}";
target = down;
type = TopGhost;
},
{
horizontal = 1;
place = "{-167, 21}";
target = up;
type = BottomGhost;
}
);
layerId = "5489E6BA-21ED-4BE5-8B01-6EB821105F89";
paths = (
{
closed = 1;
nodes = (
"257 195 LINE",
"59 195 LINE",
"15 -167 LINE",
"144 -167 LINE"
);
}
);
width = 288;
},
{
hints = (
{
horizontal = 1;
place = "{-140, 246}";
type = Stem;
}
);
layerId = "1038C536-374A-461C-9C15-505D839D4AAF";
paths = (
{
closed = 1;
nodes = (
"158 106 LINE",
"75 106 LINE",
"22 -140 LINE",
"87 -140 LINE"
);
}
);
width = 197;
}
);
unicode = 201A;
},
{
color = (153, 255, 154, 255);
glyphname = florin;
layers = (
{
hints = (
{
horizontal = 1;
place = "{329, 144}";
type = Stem;
},
{
horizontal = 1;
place = "{599, 144}";
type = Stem;
},
{
horizontal = 1;
place = "{-163, 21}";
target = up;
type = BottomGhost;
}
);
layerId = "5489E6BA-21ED-4BE5-8B01-6EB821105F89";
paths = (
{
closed = 1;
nodes = (
"36 -163 LINE",
"226 -163 LINE",
"317 329 LINE",
"427 329 LINE",
"457 473 LINE",
"343 473 LINE",
"358 536 LINE SMOOTH",
"369 580 OFFCURVE",
"389 599 OFFCURVE",
"436 599 CURVE SMOOTH",
"447 599 OFFCURVE",
"460 598 OFFCURVE",
"474 596 CURVE",
"499 731 LINE",
"471 738 OFFCURVE",
"432 743 OFFCURVE",
"393 743 CURVE SMOOTH",
"263 743 OFFCURVE",
"202 686 OFFCURVE",
"175 571 CURVE SMOOTH",
"152 473 LINE",
"96 473 LINE",
"66 329 LINE",
"127 329 LINE"
);
}
);
width = 552;
},
{
hints = (
{
horizontal = 1;
place = "{371, 68}";
type = Stem;
},
{
horizontal = 1;
place = "{641, 72}";
type = Stem;
},
{
horizontal = 1;
place = "{-103, 21}";
target = up;
type = BottomGhost;
}
);
layerId = "1038C536-374A-461C-9C15-505D839D4AAF";
paths = (
{
closed = 1;
nodes = (
"12 -103 LINE",
"90 -103 LINE",
"197 371 LINE",
"299 371 LINE",
"311 439 LINE",
"210 439 LINE",
"222 500 LINE SMOOTH",
"244 611 OFFCURVE",
"279 641 OFFCURVE",
"334 641 CURVE SMOOTH",
"350 641 OFFCURVE",
"367 638 OFFCURVE",
"379 631 CURVE",
"393 703 LINE",
"373 709 OFFCURVE",
"352 713 OFFCURVE",
"329 713 CURVE SMOOTH",
"260 713 OFFCURVE",
"177 675 OFFCURVE",
"147 531 CURVE SMOOTH",
"128 439 LINE",
"44 439 LINE",
"31 371 LINE",
"114 371 LINE"
);
}
);
width = 432;
}
);
unicode = 0192;
},
{
color = (153, 255, 154, 255);
glyphname = quotedblbase;
layers = (
{
hints = (
{
horizontal = 1;
place = "{195, -20}";
target = down;
type = TopGhost;
},
{
horizontal = 1;
place = "{-167, 21}";
target = up;
type = BottomGhost;
}
);
layerId = "5489E6BA-21ED-4BE5-8B01-6EB821105F89";
paths = (
{
closed = 1;
nodes = (
"256 195 LINE",
"58 195 LINE",
"14 -167 LINE",
"143 -167 LINE"
);
},
{
closed = 1;
nodes = (
"522 195 LINE",
"324 195 LINE",
"280 -167 LINE",
"409 -167 LINE"
);
}
);
width = 558;
},
{
hints = (
{
horizontal = 1;
place = "{-140, 246}";
type = Stem;
}
);
layerId = "1038C536-374A-461C-9C15-505D839D4AAF";
paths = (
{
closed = 1;
nodes = (
"157 106 LINE",
"75 106 LINE",
"21 -140 LINE",
"86 -140 LINE"
);
},
{
closed = 1;
nodes = (
"324 106 LINE",
"244 106 LINE",
"190 -140 LINE",
"255 -140 LINE"
);
}
);
width = 364;
}
);
unicode = 201E;
},
{
color = (153, 255, 154, 255);
glyphname = ellipsis;
layers = (
{
hints = (
{
horizontal = 1;
place = "{-7, 203}";
type = Stem;
},
{
place = "{66, 216}";
type = Stem;
},
{
place = "{347, 216}";
type = Stem;
},
{
place = "{627, 216}";
type = Stem;
}
);
layerId = "5489E6BA-21ED-4BE5-8B01-6EB821105F89";
paths = (
{
closed = 1;
nodes = (
"66 28 OFFCURVE",
"114 -7 OFFCURVE",
"173 -7 CURVE",
"234 -7 OFFCURVE",
"282 28 OFFCURVE",
"282 95 CURVE",
"282 161 OFFCURVE",
"234 196 OFFCURVE",
"173 196 CURVE",
"114 196 OFFCURVE",
"66 161 OFFCURVE",
"66 95 CURVE SMOOTH"
);
},
{
closed = 1;
nodes = (
"347 28 OFFCURVE",
"395 -7 OFFCURVE",
"454 -7 CURVE",
"515 -7 OFFCURVE",
"563 28 OFFCURVE",
"563 95 CURVE",
"563 161 OFFCURVE",
"515 196 OFFCURVE",
"454 196 CURVE",
"395 196 OFFCURVE",
"347 161 OFFCURVE",
"347 95 CURVE SMOOTH"
);
},
{
closed = 1;
nodes = (
"627 28 OFFCURVE",
"675 -7 OFFCURVE",
"734 -7 CURVE",
"795 -7 OFFCURVE",
"843 28 OFFCURVE",
"843 95 CURVE",
"843 161 OFFCURVE",
"795 196 OFFCURVE",
"734 196 CURVE",
"675 196 OFFCURVE",
"627 161 OFFCURVE",
"627 95 CURVE SMOOTH"
);
}
);
width = 909;
},
{
hints = (
{
horizontal = 1;
place = "{-9, 118}";
type = Stem;
},
{
place = "{112, 121}";
type = Stem;
},
{
place = "{359, 120}";
type = Stem;
},
{
place = "{607, 118}";
type = Stem;
}
);
layerId = "1038C536-374A-461C-9C15-505D839D4AAF";
paths = (
{
closed = 1;
nodes = (
"112 17 OFFCURVE",
"140 -9 OFFCURVE",
"172 -9 CURVE SMOOTH",
"204 -9 OFFCURVE",
"233 17 OFFCURVE",
"233 51 CURVE SMOOTH",
"233 86 OFFCURVE",
"204 109 OFFCURVE",
"172 109 CURVE SMOOTH",
"140 109 OFFCURVE",
"112 86 OFFCURVE",
"112 51 CURVE SMOOTH"
);
},
{
closed = 1;
nodes = (
"359 17 OFFCURVE",
"386 -9 OFFCURVE",
"420 -9 CURVE SMOOTH",
"453 -9 OFFCURVE",
"480 17 OFFCURVE",
"480 51 CURVE SMOOTH",
"480 86 OFFCURVE",
"453 109 OFFCURVE",
"420 109 CURVE SMOOTH",
"386 109 OFFCURVE",
"359 86 OFFCURVE",
"359 51 CURVE SMOOTH"
);
},
{
closed = 1;
nodes = (
"607 17 OFFCURVE",
"633 -9 OFFCURVE",
"667 -9 CURVE SMOOTH",
"700 -9 OFFCURVE",
"725 17 OFFCURVE",
"725 51 CURVE SMOOTH",
"725 86 OFFCURVE",
"700 109 OFFCURVE",
"667 109 CURVE SMOOTH",
"633 109 OFFCURVE",
"607 86 OFFCURVE",
"607 51 CURVE SMOOTH"
);
}
);
width = 837;
}
);
unicode = 2026;
},
{
color = (153, 255, 154, 255);
glyphname = dagger;
layers = (
{
layerId = "E76E8D8D-CF20-432F-9325-6C390ED5088C";
name = public.background;
paths = (
{
closed = 1;
nodes = (
"240 708 LINE",
"169 708 LINE",
"175 541 LINE",
"33 546 LINE",
"33 483 LINE",
"177 489 LINE",
"169 63 LINE",
"240 63 LINE",
"232 489 LINE",
"378 483 LINE",
"378 546 LINE",
"234 541 LINE"
);
}
);
width = 435;
},
{
hints = (
{
place = "{32, 210}";
type = Stem;
},
{
place = "{152, 90}";
type = Stem;
},
{
place = "{152, 210}";
type = Stem;
},
{
horizontal = 1;
place = "{700, -20}";
target = down;
type = TopGhost;
},
{
horizontal = 1;
place = "{223, 21}";
target = up;
type = BottomGhost;
}
);
layerId = "5489E6BA-21ED-4BE5-8B01-6EB821105F89";
paths = (
{
closed = 1;
nodes = (
"253 708 LINE",
"141 708 LINE",
"156 555 LINE",
"32 568 LINE",
"32 464 LINE",
"157 477 LINE",
"147 63 LINE",
"247 63 LINE",
"237 477 LINE",
"362 464 LINE",
"362 568 LINE",
"238 555 LINE"
);
}
);
width = 393;
},
{
hints = (
{
place = "{45, 201}";
type = Stem;
},
{
place = "{187, 59}";
type = Stem;
},
{
place = "{187, 203}";
type = Stem;
},
{
horizontal = 1;
place = "{483, 63}";
type = Stem;
},
{
horizontal = 1;
place = "{708, -20}";
target = down;
type = TopGhost;
},
{
horizontal = 1;
place = "{63, 21}";
target = up;
type = BottomGhost;
}
);
layerId = "1038C536-374A-461C-9C15-505D839D4AAF";
paths = (
{
closed = 1;
nodes = (
"252 708 LINE",
"181 708 LINE",
"187 541 LINE",
"45 546 LINE",
"45 483 LINE",
"189 489 LINE",
"181 63 LINE",
"252 63 LINE",
"244 489 LINE",
"390 483 LINE",
"390 546 LINE",
"246 541 LINE"
);
}
);
width = 435;
}
);
unicode = 2020;
},
{
color = (153, 255, 154, 255);
glyphname = daggerdbl;
layers = (
{
layerId = "E76E8D8D-CF20-432F-9325-6C390ED5088C";
name = public.background;
paths = (
{
closed = 1;
nodes = (
"386 485 LINE",
"386 549 LINE",
"246 545 LINE",
"251 708 LINE",
"183 708 LINE",
"185 545 LINE",
"46 549 LINE",
"46 485 LINE",
"186 491 LINE",
"182 377 OFFCURVE",
"182 263 OFFCURVE",
"186 149 CURVE",
"46 154 LINE",
"46 90 LINE",
"185 94 LINE",
"183 -61 LINE",
"251 -61 LINE",
"246 94 LINE",
"386 90 LINE",
"386 154 LINE",
"246 149 LINE",
"250 263 OFFCURVE",
"250 377 OFFCURVE",
"246 491 CURVE"
);
}
);
width = 430;
},
{
hints = (
{
place = "{31, 204}";
type = Stem;
},
{
place = "{157, 78}";
type = Stem;
},
{
place = "{157, 204}";
type = Stem;
},
{
horizontal = 1;
place = "{700, -20}";
target = down;
type = TopGhost;
},
{
horizontal = 1;
place = "{0, 21}";
target = up;
type = BottomGhost;
}
);
layerId = "5489E6BA-21ED-4BE5-8B01-6EB821105F89";
paths = (
{
closed = 1;
nodes = (
"140 -60 LINE",
"252 -60 LINE",
"237 83 LINE",
"361 70 LINE",
"361 174 LINE",
"235 161 LINE",
"235 480 LINE",
"361 467 LINE",
"361 571 LINE",
"237 558 LINE",
"252 709 LINE",
"140 709 LINE",
"155 558 LINE",
"31 571 LINE",
"31 467 LINE",
"157 480 LINE",
"157 161 LINE",
"31 174 LINE",
"31 70 LINE",
"155 83 LINE"
);
}
);
width = 392;
},
{
hints = (
{
place = "{45, 199}";
type = Stem;
},
{
place = "{182, 62}";
type = Stem;
},
{
place = "{182, 203}";
type = Stem;
},
{
horizontal = 1;
place = "{-61, 210}";
type = Stem;
},
{
horizontal = 1;
place = "{92, 57}";
type = Stem;
},
{
horizontal = 1;
place = "{485, 60}";
type = Stem;
},
{
horizontal = 1;
place = "{485, 223}";
type = Stem;
}
);
layerId = "1038C536-374A-461C-9C15-505D839D4AAF";
paths = (
{
closed = 1;
nodes = (
"182 -61 LINE",
"250 -61 LINE",
"245 94 LINE",
"385 90 LINE",
"385 154 LINE",
"245 149 LINE",
"249 263 OFFCURVE",
"249 377 OFFCURVE",
"245 491 CURVE",
"385 485 LINE",
"385 549 LINE",
"245 545 LINE",
"250 708 LINE",
"182 708 LINE",
"184 545 LINE",
"45 549 LINE",
"45 485 LINE",
"185 491 LINE",
"181 377 OFFCURVE",
"181 263 OFFCURVE",
"185 149 CURVE",
"45 154 LINE",
"45 90 LINE",
"184 94 LINE"
);
}
);
width = 430;
}
);
unicode = 2021;
},
{
color = (153, 255, 154, 255);
glyphname = circumflex;
layers = (
{
hints = (
{
horizontal = 1;
place = "{699, -20}";
target = down;
type = TopGhost;
},
{
horizontal = 1;
place = "{513, 21}";
target = up;
type = BottomGhost;
}
);
layerId = "5489E6BA-21ED-4BE5-8B01-6EB821105F89";
paths = (
{
closed = 1;
nodes = (
"227 699 LINE",
"128 699 LINE",
"-12 513 LINE",
"119 513 LINE",
"178 574 LINE",
"237 513 LINE",
"367 513 LINE"
);
}
);
width = 354;
},
{
hints = (
{
horizontal = 1;
place = "{699, -20}";
target = down;
type = TopGhost;
},
{
horizontal = 1;
place = "{558, 21}";
target = up;
type = BottomGhost;
}
);
layerId = "1038C536-374A-461C-9C15-505D839D4AAF";
paths = (
{
closed = 1;
nodes = (
"206 699 LINE",
"133 699 LINE",
"26 558 LINE",
"92 558 LINE",
"168 640 LINE",
"246 558 LINE",
"312 558 LINE"
);
}
);
width = 337;
}
);
unicode = 02C6;
},
{
color = (153, 255, 154, 255);
glyphname = perthousand;
layers = (
{
layerId = "E76E8D8D-CF20-432F-9325-6C390ED5088C";
name = public.background;
paths = (
{
closed = 1;
nodes = (
"366 633 OFFCURVE",
"301 710 OFFCURVE",
"207 710 CURVE",
"112 710 OFFCURVE",
"44 631 OFFCURVE",
"44 534 CURVE",
"44 438 OFFCURVE",
"107 358 OFFCURVE",
"206 358 CURVE",
"299 358 OFFCURVE",
"366 439 OFFCURVE",
"366 535 CURVE SMOOTH"
);
},
{
closed = 1;
nodes = (
"300 467 OFFCURVE",
"262 417 OFFCURVE",
"207 417 CURVE",
"151 417 OFFCURVE",
"110 466 OFFCURVE",
"110 535 CURVE",
"110 604 OFFCURVE",
"145 651 OFFCURVE",
"202 651 CURVE",
"261 651 OFFCURVE",
"300 602 OFFCURVE",
"300 534 CURVE SMOOTH"
);
},
{
closed = 1;
nodes = (
"744 261 OFFCURVE",
"678 339 OFFCURVE",
"585 339 CURVE",
"491 339 OFFCURVE",
"423 263 OFFCURVE",
"423 163 CURVE",
"423 66 OFFCURVE",
"489 -11 OFFCURVE",
"584 -11 CURVE",
"678 -11 OFFCURVE",
"744 67 OFFCURVE",
"744 166 CURVE SMOOTH"
);
},
{
closed = 1;
nodes = (
"678 93 OFFCURVE",
"645 48 OFFCURVE",
"585 48 CURVE",
"530 48 OFFCURVE",
"489 95 OFFCURVE",
"489 165 CURVE",
"489 233 OFFCURVE",
"528 280 OFFCURVE",
"584 280 CURVE",
"640 280 OFFCURVE",
"678 234 OFFCURVE",
"678 160 CURVE SMOOTH"
);
},
{
closed = 1;
nodes = (
"1117 261 OFFCURVE",
"1051 339 OFFCURVE",
"958 339 CURVE",
"864 339 OFFCURVE",
"795 263 OFFCURVE",
"795 163 CURVE",
"795 66 OFFCURVE",
"863 -11 OFFCURVE",
"957 -11 CURVE",
"1051 -11 OFFCURVE",
"1117 67 OFFCURVE",
"1117 166 CURVE SMOOTH"
);
},
{
closed = 1;
nodes = (
"1051 93 OFFCURVE",
"1018 48 OFFCURVE",
"958 48 CURVE",
"902 48 OFFCURVE",
"861 95 OFFCURVE",
"861 165 CURVE",
"861 231 OFFCURVE",
"900 280 OFFCURVE",
"957 280 CURVE",
"1011 280 OFFCURVE",
"1051 234 OFFCURVE",
"1051 160 CURVE SMOOTH"
);
},
{
closed = 1;
nodes = (
"603 701 LINE",
"117 0 LINE",
"203 0 LINE",
"366 248 OFFCURVE",
"518 453 OFFCURVE",
"687 701 CURVE"
);
}
);
width = 1136;
},
{
hints = (
{
place = "{27, 122}";
type = Stem;
},
{
place = "{266, 122}";
type = Stem;
},
{
place = "{495, 122}";
type = Stem;
},
{
place = "{734, 122}";
type = Stem;
},
{
place = "{891, 122}";
type = Stem;
},
{
place = "{1130, 122}";
type = Stem;
},
{
horizontal = 1;
place = "{-10, 110}";
type = Stem;
},
{
horizontal = 1;
place = "{257, 110}";
type = Stem;
},
{
horizontal = 1;
place = "{333, 34}";
type = Stem;
},
{
horizontal = 1;
place = "{600, 110}";
type = Stem;
},
{
horizontal = 1;
place = "{333, 110}";
type = Stem;
},
{
horizontal = 1;
place = "{0, 21}";
target = up;
type = BottomGhost;
},
{
horizontal = 1;
place = "{700, -20}";
target = down;
type = TopGhost;
}
);
layerId = "5489E6BA-21ED-4BE5-8B01-6EB821105F89";
paths = (
{
closed = 1;
nodes = (
"388 625 OFFCURVE",
"317 710 OFFCURVE",
"208 710 CURVE SMOOTH",
"98 710 OFFCURVE",
"27 625 OFFCURVE",
"27 522 CURVE",
"27 419 OFFCURVE",
"99 333 OFFCURVE",
"207 333 CURVE SMOOTH",
"315 333 OFFCURVE",
"388 420 OFFCURVE",
"388 523 CURVE SMOOTH"
);
},
{
closed = 1;
nodes = (
"266 478 OFFCURVE",
"242 443 OFFCURVE",
"208 443 CURVE SMOOTH",
"175 443 OFFCURVE",
"149 478 OFFCURVE",
"149 523 CURVE",
"149 567 OFFCURVE",
"172 600 OFFCURVE",
"207 600 CURVE SMOOTH",
"241 600 OFFCURVE",
"266 566 OFFCURVE",
"266 522 CURVE SMOOTH"
);
},
{
closed = 1;
nodes = (
"856 283 OFFCURVE",
"785 367 OFFCURVE",
"676 367 CURVE SMOOTH",
"566 367 OFFCURVE",
"495 282 OFFCURVE",
"495 179 CURVE",
"495 77 OFFCURVE",
"567 -10 OFFCURVE",
"675 -10 CURVE SMOOTH",
"783 -10 OFFCURVE",
"856 78 OFFCURVE",
"856 180 CURVE SMOOTH"
);
},
{
closed = 1;
nodes = (
"734 135 OFFCURVE",
"710 100 OFFCURVE",
"676 100 CURVE SMOOTH",
"643 100 OFFCURVE",
"617 136 OFFCURVE",
"617 180 CURVE",
"617 225 OFFCURVE",
"639 257 OFFCURVE",
"675 257 CURVE SMOOTH",
"709 257 OFFCURVE",
"734 224 OFFCURVE",
"734 179 CURVE SMOOTH"
);
},
{
closed = 1;
nodes = (
"1252 283 OFFCURVE",
"1181 367 OFFCURVE",
"1072 367 CURVE SMOOTH",
"962 367 OFFCURVE",
"891 282 OFFCURVE",
"891 179 CURVE",
"891 77 OFFCURVE",
"963 -10 OFFCURVE",
"1071 -10 CURVE SMOOTH",
"1179 -10 OFFCURVE",
"1252 78 OFFCURVE",
"1252 180 CURVE SMOOTH"
);
},
{
closed = 1;
nodes = (
"1130 135 OFFCURVE",
"1106 100 OFFCURVE",
"1072 100 CURVE SMOOTH",
"1039 100 OFFCURVE",
"1013 136 OFFCURVE",
"1013 180 CURVE",
"1013 225 OFFCURVE",
"1035 257 OFFCURVE",
"1071 257 CURVE SMOOTH",
"1105 257 OFFCURVE",
"1130 224 OFFCURVE",
"1130 179 CURVE SMOOTH"
);
},
{
closed = 1;
nodes = (
"644 700 LINE",
"104 0 LINE",
"239 0 LINE",
"779 700 LINE"
);
}
);
width = 1281;
},
{
hints = (
{
horizontal = 1;
place = "{-11, 59}";
type = Stem;
},
{
horizontal = 1;
place = "{279, 60}";
type = Stem;
},
{
horizontal = 1;
place = "{371, 59}";
type = Stem;
},
{
horizontal = 1;
place = "{662, 61}";
type = Stem;
},
{
horizontal = 1;
place = "{724, -20}";
target = down;
type = TopGhost;
},
{
horizontal = 1;
place = "{-19, 21}";
target = up;
type = BottomGhost;
},
{
place = "{31, 66}";
type = Stem;
},
{
place = "{287, 66}";
type = Stem;
},
{
place = "{410, 66}";
type = Stem;
},
{
place = "{663, 68}";
type = Stem;
},
{
place = "{783, 65}";
type = Stem;
},
{
place = "{1037, 67}";
type = Stem;
}
);
layerId = "1038C536-374A-461C-9C15-505D839D4AAF";
paths = (
{
closed = 1;
nodes = (
"353 633 OFFCURVE",
"288 710 OFFCURVE",
"194 710 CURVE SMOOTH",
"99 710 OFFCURVE",
"31 631 OFFCURVE",
"31 534 CURVE SMOOTH",
"31 438 OFFCURVE",
"94 358 OFFCURVE",
"193 358 CURVE SMOOTH",
"286 358 OFFCURVE",
"353 439 OFFCURVE",
"353 535 CURVE SMOOTH"
);
},
{
closed = 1;
nodes = (
"287 467 OFFCURVE",
"249 417 OFFCURVE",
"194 417 CURVE SMOOTH",
"138 417 OFFCURVE",
"97 466 OFFCURVE",
"97 535 CURVE SMOOTH",
"97 604 OFFCURVE",
"132 651 OFFCURVE",
"189 651 CURVE SMOOTH",
"248 651 OFFCURVE",
"287 602 OFFCURVE",
"287 534 CURVE SMOOTH"
);
},
{
closed = 1;
nodes = (
"731 261 OFFCURVE",
"665 339 OFFCURVE",
"572 339 CURVE SMOOTH",
"478 339 OFFCURVE",
"410 263 OFFCURVE",
"410 163 CURVE SMOOTH",
"410 66 OFFCURVE",
"476 -11 OFFCURVE",
"571 -11 CURVE SMOOTH",
"665 -11 OFFCURVE",
"731 67 OFFCURVE",
"731 166 CURVE SMOOTH"
);
},
{
closed = 1;
nodes = (
"665 93 OFFCURVE",
"632 48 OFFCURVE",
"572 48 CURVE SMOOTH",
"517 48 OFFCURVE",
"476 95 OFFCURVE",
"476 165 CURVE SMOOTH",
"476 233 OFFCURVE",
"515 280 OFFCURVE",
"571 280 CURVE SMOOTH",
"627 280 OFFCURVE",
"665 234 OFFCURVE",
"665 160 CURVE SMOOTH"
);
},
{
closed = 1;
nodes = (
"1104 261 OFFCURVE",
"1038 339 OFFCURVE",
"945 339 CURVE SMOOTH",
"851 339 OFFCURVE",
"782 263 OFFCURVE",
"782 163 CURVE SMOOTH",
"782 66 OFFCURVE",
"850 -11 OFFCURVE",
"944 -11 CURVE SMOOTH",
"1038 -11 OFFCURVE",
"1104 67 OFFCURVE",
"1104 166 CURVE SMOOTH"
);
},
{
closed = 1;
nodes = (
"1038 93 OFFCURVE",
"1005 48 OFFCURVE",
"945 48 CURVE SMOOTH",
"889 48 OFFCURVE",
"848 95 OFFCURVE",
"848 165 CURVE SMOOTH",
"848 231 OFFCURVE",
"887 280 OFFCURVE",
"944 280 CURVE SMOOTH",
"998 280 OFFCURVE",
"1038 234 OFFCURVE",
"1038 160 CURVE SMOOTH"
);
},
{
closed = 1;
nodes = (
"590 701 LINE",
"104 0 LINE",
"190 0 LINE",
"353 248 OFFCURVE",
"505 453 OFFCURVE",
"674 701 CURVE"
);
}
);
width = 1136;
}
);
unicode = 2030;
},
{
color = (153, 255, 154, 255);
glyphname = guilsinglleft;
layers = (
{
hints = (
{
horizontal = 1;
place = "{500, -20}";
target = down;
type = TopGhost;
},
{
horizontal = 1;
place = "{37, 21}";
target = up;
type = BottomGhost;
}
);
layerId = "5489E6BA-21ED-4BE5-8B01-6EB821105F89";
paths = (
{
closed = 1;
nodes = (
"212 268 LINE",
"342 439 LINE",
"201 500 LINE",
"27 268 LINE",
"200 37 LINE",
"342 98 LINE"
);
}
);
width = 365;
},
{
hints = (
{
horizontal = 1;
place = "{457, -20}";
target = down;
type = TopGhost;
},
{
horizontal = 1;
place = "{39, 21}";
target = up;
type = BottomGhost;
}
);
layerId = "1038C536-374A-461C-9C15-505D839D4AAF";
paths = (
{
closed = 1;
nodes = (
"121 249 LINE",
"251 433 LINE",
"182 457 LINE",
"30 246 LINE",
"182 39 LINE",
"249 68 LINE"
);
}
);
width = 275;
}
);
unicode = 2039;
},
{
color = (153, 255, 154, 255);
glyphname = quoteleft;
layers = (
{
hints = (
{
horizontal = 1;
place = "{343, 21}";
target = up;
type = BottomGhost;
},
{
horizontal = 1;
place = "{705, -20}";
target = down;
type = TopGhost;
}
);
layerId = "5489E6BA-21ED-4BE5-8B01-6EB821105F89";
paths = (
{
closed = 1;
nodes = (
"24 343 LINE",
"222 343 LINE",
"266 705 LINE",
"137 705 LINE"
);
}
);
width = 288;
},
{
hints = (
{
horizontal = 1;
place = "{461, 21}";
target = up;
type = BottomGhost;
},
{
horizontal = 1;
place = "{707, -20}";
target = down;
type = TopGhost;
}
);
layerId = "1038C536-374A-461C-9C15-505D839D4AAF";
paths = (
{
closed = 1;
nodes = (
"37 461 LINE",
"119 461 LINE",
"173 707 LINE",
"107 707 LINE"
);
}
);
width = 197;
}
);
unicode = 2018;
},
{
color = (153, 255, 154, 255);
glyphname = quoteright;
layers = (
{
hints = (
{
horizontal = 1;
place = "{700, -20}";
target = down;
type = TopGhost;
},
{
horizontal = 1;
place = "{338, 21}";
target = up;
type = BottomGhost;
}
);
layerId = "5489E6BA-21ED-4BE5-8B01-6EB821105F89";
paths = (
{
closed = 1;
nodes = (
"265 700 LINE",
"67 700 LINE",
"23 338 LINE",
"152 338 LINE"
);
}
);
width = 288;
},
{
hints = (
{
horizontal = 1;
place = "{705, -20}";
target = down;
type = TopGhost;
},
{
horizontal = 1;
place = "{459, 21}";
target = up;
type = BottomGhost;
}
);
layerId = "1038C536-374A-461C-9C15-505D839D4AAF";
paths = (
{
closed = 1;
nodes = (
"172 705 LINE",
"90 705 LINE",
"36 459 LINE",
"101 459 LINE"
);
}
);
width = 196;
}
);
unicode = 2019;
},
{
color = (153, 255, 154, 255);
glyphname = quotedblleft;
layers = (
{
hints = (
{
horizontal = 1;
place = "{343, 21}";
target = up;
type = BottomGhost;
},
{
horizontal = 1;
place = "{705, -20}";
target = down;
type = TopGhost;
}
);
layerId = "5489E6BA-21ED-4BE5-8B01-6EB821105F89";
paths = (
{
closed = 1;
nodes = (
"23 343 LINE",
"221 343 LINE",
"265 705 LINE",
"136 705 LINE"
);
},
{
closed = 1;
nodes = (
"289 343 LINE",
"487 343 LINE",
"531 705 LINE",
"402 705 LINE"
);
}
);
width = 551;
},
{
hints = (
{
horizontal = 1;
place = "{461, 246}";
type = Stem;
}
);
layerId = "1038C536-374A-461C-9C15-505D839D4AAF";
paths = (
{
closed = 1;
nodes = (
"36 461 LINE",
"118 461 LINE",
"172 707 LINE",
"106 707 LINE"
);
},
{
closed = 1;
nodes = (
"205 461 LINE",
"286 461 LINE",
"339 707 LINE",
"274 707 LINE"
);
}
);
width = 362;
}
);
unicode = 201C;
},
{
color = (153, 255, 154, 255);
glyphname = quotedblright;
layers = (
{
hints = (
{
horizontal = 1;
place = "{700, -20}";
target = down;
type = TopGhost;
},
{
horizontal = 1;
place = "{338, 21}";
target = up;
type = BottomGhost;
}
);
layerId = "5489E6BA-21ED-4BE5-8B01-6EB821105F89";
paths = (
{
closed = 1;
nodes = (
"263 700 LINE",
"65 700 LINE",
"21 338 LINE",
"150 338 LINE"
);
},
{
closed = 1;
nodes = (
"529 700 LINE",
"331 700 LINE",
"287 338 LINE",
"416 338 LINE"
);
}
);
width = 551;
},
{
hints = (
{
horizontal = 1;
place = "{459, 246}";
type = Stem;
}
);
layerId = "1038C536-374A-461C-9C15-505D839D4AAF";
paths = (
{
closed = 1;
nodes = (
"172 705 LINE",
"90 705 LINE",
"36 459 LINE",
"101 459 LINE"
);
},
{
closed = 1;
nodes = (
"339 705 LINE",
"259 705 LINE",
"205 459 LINE",
"270 459 LINE"
);
}
);
width = 363;
}
);
unicode = 201D;
},
{
color = (153, 255, 154, 255);
glyphname = bullet;
layers = (
{
hints = (
{
horizontal = 1;
place = "{183, 21}";
target = up;
type = BottomGhost;
},
{
horizontal = 1;
place = "{521, -20}";
target = down;
type = TopGhost;
}
);
layerId = "5489E6BA-21ED-4BE5-8B01-6EB821105F89";
paths = (
{
closed = 1;
nodes = (
"41 258 OFFCURVE",
"117 183 OFFCURVE",
"210 183 CURVE SMOOTH",
"303 183 OFFCURVE",
"379 258 OFFCURVE",
"379 351 CURVE",
"379 444 OFFCURVE",
"303 521 OFFCURVE",
"210 521 CURVE SMOOTH",
"117 521 OFFCURVE",
"41 444 OFFCURVE",
"41 351 CURVE"
);
}
);
width = 421;
},
{
hints = (
{
horizontal = 1;
place = "{207, 21}";
target = up;
type = BottomGhost;
},
{
horizontal = 1;
place = "{502, -20}";
target = down;
type = TopGhost;
}
);
layerId = "1038C536-374A-461C-9C15-505D839D4AAF";
paths = (
{
closed = 1;
nodes = (
"37 273 OFFCURVE",
"104 207 OFFCURVE",
"184 207 CURVE SMOOTH",
"266 207 OFFCURVE",
"332 273 OFFCURVE",
"332 355 CURVE SMOOTH",
"332 437 OFFCURVE",
"265 502 OFFCURVE",
"184 502 CURVE SMOOTH",
"102 502 OFFCURVE",
"37 434 OFFCURVE",
"37 353 CURVE SMOOTH"
);
}
);
width = 369;
}
);
unicode = 2022;
},
{
color = (153, 255, 154, 255);
glyphname = endash;
layers = (
{
hints = (
{
horizontal = 1;
place = "{231, 163}";
type = Stem;
}
);
layerId = "5489E6BA-21ED-4BE5-8B01-6EB821105F89";
paths = (
{
closed = 1;
nodes = (
"479 394 LINE",
"31 394 LINE",
"31 231 LINE",
"479 231 LINE"
);
}
);
width = 511;
},
{
hints = (
{
horizontal = 1;
place = "{246, 76}";
type = Stem;
}
);
layerId = "1038C536-374A-461C-9C15-505D839D4AAF";
paths = (
{
closed = 1;
nodes = (
"469 322 LINE",
"31 322 LINE",
"31 246 LINE",
"469 246 LINE"
);
}
);
width = 501;
}
);
unicode = 2013;
},
{
color = (153, 255, 154, 255);
glyphname = emdash;
layers = (
{
hints = (
{
horizontal = 1;
place = "{231, 163}";
type = Stem;
}
);
layerId = "5489E6BA-21ED-4BE5-8B01-6EB821105F89";
paths = (
{
closed = 1;
nodes = (
"849 394 LINE",
"31 394 LINE",
"31 231 LINE",
"849 231 LINE"
);
}
);
width = 880;
},
{
hints = (
{
horizontal = 1;
place = "{246, 76}";
type = Stem;
}
);
layerId = "1038C536-374A-461C-9C15-505D839D4AAF";
paths = (
{
closed = 1;
nodes = (
"714 322 LINE",
"31 322 LINE",
"31 246 LINE",
"714 246 LINE"
);
}
);
width = 745;
}
);
unicode = 2014;
},
{
color = (153, 255, 154, 255);
glyphname = tilde;
layers = (
{
hints = (
{
horizontal = 1;
place = "{521, 154}";
type = Stem;
},
{
horizontal = 1;
place = "{509, 21}";
target = up;
type = BottomGhost;
},
{
horizontal = 1;
place = "{685, -20}";
target = down;
type = TopGhost;
}
);
layerId = "5489E6BA-21ED-4BE5-8B01-6EB821105F89";
paths = (
{
closed = 1;
nodes = (
"99 509 LINE",
"109 545 OFFCURVE",
"118 556 OFFCURVE",
"133 556 CURVE SMOOTH",
"160 556 OFFCURVE",
"199 521 OFFCURVE",
"248 521 CURVE SMOOTH",
"311 521 OFFCURVE",
"350 581 OFFCURVE",
"374 666 CURVE",
"272 685 LINE",
"264 652 OFFCURVE",
"254 640 OFFCURVE",
"241 640 CURVE SMOOTH",
"215 640 OFFCURVE",
"169 675 OFFCURVE",
"122 675 CURVE SMOOTH",
"60 675 OFFCURVE",
"19 613 OFFCURVE",
"-4 527 CURVE"
);
}
);
width = 367;
},
{
hints = (
{
horizontal = 1;
place = "{604, 68}";
type = Stem;
},
{
horizontal = 1;
place = "{558, 21}";
target = up;
type = BottomGhost;
},
{
horizontal = 1;
place = "{680, -20}";
target = down;
type = TopGhost;
}
);
layerId = "1038C536-374A-461C-9C15-505D839D4AAF";
paths = (
{
closed = 1;
nodes = (
"80 558 LINE",
"91 591 OFFCURVE",
"115 604 OFFCURVE",
"139 604 CURVE SMOOTH",
"182 604 OFFCURVE",
"218 567 OFFCURVE",
"262 567 CURVE SMOOTH",
"308 567 OFFCURVE",
"337 606 OFFCURVE",
"356 670 CURVE",
"303 680 LINE",
"292 651 OFFCURVE",
"279 635 OFFCURVE",
"256 635 CURVE SMOOTH",
"220 635 OFFCURVE",
"181 672 OFFCURVE",
"133 672 CURVE SMOOTH",
"81 672 OFFCURVE",
"45 630 OFFCURVE",
"26 568 CURVE"
);
}
);
width = 382;
}
);
unicode = 02DC;
},
{
color = (153, 255, 154, 255);
glyphname = trademark;
layers = (
{
layerId = "E76E8D8D-CF20-432F-9325-6C390ED5088C";
name = public.background;
paths = (
{
closed = 1;
nodes = (
"403 706 LINE",
"69 706 LINE",
"69 644 LINE",
"202 644 LINE",
"202 292 LINE",
"271 292 LINE",
"271 644 LINE",
"403 644 LINE"
);
},
{
closed = 1;
nodes = (
"921 706 LINE",
"825 706 LINE",
"700 405 LINE",
"577 706 LINE",
"478 706 LINE",
"478 292 LINE",
"547 292 LINE",
"547 612 LINE",
"677 292 LINE",
"721 292 LINE",
"852 610 LINE",
"852 292 LINE",
"921 292 LINE"
);
}
);
width = 896;
},
{
hints = (
{
horizontal = 1;
place = "{592, 114}";
type = Stem;
},
{
horizontal = 1;
place = "{268, 21}";
target = up;
type = BottomGhost;
},
{
place = "{148, 124}";
type = Stem;
},
{
place = "{422, 121}";
type = Stem;
},
{
place = "{766, 122}";
type = Stem;
}
);
layerId = "5489E6BA-21ED-4BE5-8B01-6EB821105F89";
paths = (
{
closed = 1;
nodes = (
"391 706 LINE",
"26 706 LINE",
"26 592 LINE",
"148 592 LINE",
"148 292 LINE",
"270 292 LINE",
"270 592 LINE",
"391 592 LINE"
);
},
{
closed = 1;
nodes = (
"888 706 LINE",
"748 706 LINE",
"656 505 LINE",
"563 706 LINE",
"421 706 LINE",
"421 292 LINE",
"543 292 LINE",
"543 458 LINE",
"616 292 LINE",
"693 292 LINE",
"766 458 LINE",
"766 292 LINE",
"888 292 LINE"
);
}
);
width = 898;
},
{
hints = (
{
horizontal = 1;
place = "{644, 62}";
type = Stem;
},
{
horizontal = 1;
place = "{292, 21}";
target = up;
type = BottomGhost;
},
{
place = "{164, 69}";
type = Stem;
},
{
place = "{440, 69}";
type = Stem;
},
{
place = "{815, 68}";
type = Stem;
}
);
layerId = "1038C536-374A-461C-9C15-505D839D4AAF";
paths = (
{
closed = 1;
nodes = (
"365 706 LINE",
"31 706 LINE",
"31 644 LINE",
"164 644 LINE",
"164 292 LINE",
"233 292 LINE",
"233 644 LINE",
"365 644 LINE"
);
},
{
closed = 1;
nodes = (
"883 706 LINE",
"787 706 LINE",
"662 405 LINE",
"539 706 LINE",
"440 706 LINE",
"440 292 LINE",
"509 292 LINE",
"509 612 LINE",
"639 292 LINE",
"683 292 LINE",
"814 610 LINE",
"814 292 LINE",
"883 292 LINE"
);
}
);
width = 896;
}
);
unicode = 2122;
},
{
color = (153, 255, 154, 255);
glyphname = guilsinglright;
layers = (
{
hints = (
{
horizontal = 1;
place = "{37, 21}";
target = up;
type = BottomGhost;
},
{
horizontal = 1;
place = "{500, -20}";
target = down;
type = TopGhost;
}
);
layerId = "5489E6BA-21ED-4BE5-8B01-6EB821105F89";
paths = (
{
closed = 1;
nodes = (
"23 98 LINE",
"165 37 LINE",
"338 268 LINE",
"164 500 LINE",
"23 439 LINE",
"153 268 LINE"
);
}
);
width = 365;
},
{
hints = (
{
horizontal = 1;
place = "{39, 21}";
target = up;
type = BottomGhost;
},
{
horizontal = 1;
place = "{457, -20}";
target = down;
type = TopGhost;
}
);
layerId = "1038C536-374A-461C-9C15-505D839D4AAF";
paths = (
{
closed = 1;
nodes = (
"28 68 LINE",
"94 39 LINE",
"245 246 LINE",
"94 457 LINE",
"24 433 LINE",
"154 249 LINE"
);
}
);
width = 274;
}
);
unicode = 203A;
},
{
color = (153, 255, 154, 255);
glyphname = exclamdown;
layers = (
{
hints = (
{
horizontal = 1;
place = "{520, 193}";
type = Stem;
},
{
horizontal = 1;
place = "{0, 21}";
target = up;
type = BottomGhost;
},
{
place = "{43, 215}";
type = Stem;
}
);
layerId = "5489E6BA-21ED-4BE5-8B01-6EB821105F89";
paths = (
{
closed = 1;
nodes = (
"258 0 LINE",
"258 85 LINE",
"200 472 LINE",
"100 472 LINE",
"42 85 LINE",
"42 0 LINE"
);
},
{
closed = 1;
nodes = (
"258 680 OFFCURVE",
"210 713 OFFCURVE",
"151 713 CURVE SMOOTH",
"91 713 OFFCURVE",
"43 680 OFFCURVE",
"43 616 CURVE SMOOTH",
"43 553 OFFCURVE",
"91 520 OFFCURVE",
"151 520 CURVE SMOOTH",
"210 520 OFFCURVE",
"258 553 OFFCURVE",
"258 616 CURVE SMOOTH"
);
}
);
width = 298;
},
{
hints = (
{
place = "{70, 98}";
type = Stem;
},
{
place = "{92, 55}";
type = Stem;
},
{
horizontal = 1;
place = "{508, 117}";
type = Stem;
},
{
horizontal = 1;
place = "{-89, 21}";
target = up;
type = BottomGhost;
}
);
layerId = "1038C536-374A-461C-9C15-505D839D4AAF";
paths = (
{
closed = 1;
nodes = (
"168 -89 LINE",
"163 37 LINE",
"147 414 LINE",
"92 414 LINE",
"76 37 LINE",
"70 -89 LINE"
);
},
{
closed = 1;
nodes = (
"179 603 OFFCURVE",
"150 625 OFFCURVE",
"119 625 CURVE SMOOTH",
"86 625 OFFCURVE",
"59 603 OFFCURVE",
"59 567 CURVE SMOOTH",
"59 534 OFFCURVE",
"86 508 OFFCURVE",
"119 508 CURVE SMOOTH",
"150 508 OFFCURVE",
"179 534 OFFCURVE",
"179 567 CURVE SMOOTH"
);
}
);
width = 238;
}
);
unicode = 00A1;
},
{
color = (153, 255, 154, 255);
glyphname = cent;
layers = (
{
hints = (
{
horizontal = 1;
place = "{706, -20}";
target = down;
type = TopGhost;
},
{
horizontal = 1;
place = "{-6, 21}";
target = up;
type = BottomGhost;
},
{
place = "{83, 165}";
type = Stem;
}
);
layerId = "5489E6BA-21ED-4BE5-8B01-6EB821105F89";
paths = (
{
closed = 1;
nodes = (
"304 238 LINE",
"268 260 OFFCURVE",
"248 302 OFFCURVE",
"248 355 CURVE SMOOTH",
"248 428 OFFCURVE",
"288 482 OFFCURVE",
"349 491 CURVE"
);
},
{
closed = 1;
nodes = (
"515 603 LINE",
"503 610 OFFCURVE",
"491 615 OFFCURVE",
"479 619 CURVE",
"494 706 LINE",
"379 706 LINE",
"367 636 LINE",
"199 636 OFFCURVE",
"83 511 OFFCURVE",
"83 355 CURVE SMOOTH",
"83 232 OFFCURVE",
"159 130 OFFCURVE",
"270 92 CURVE",
"253 -6 LINE",
"368 -6 LINE",
"382 75 LINE",
"435 77 OFFCURVE",
"481 90 OFFCURVE",
"519 112 CURVE",
"519 278 LINE",
"493 247 OFFCURVE",
"449 221 OFFCURVE",
"396 221 CURVE",
"444 487 LINE",
"467 482 OFFCURVE",
"492 466 OFFCURVE",
"515 438 CURVE"
);
}
);
width = 602;
},
{
hints = (
{
place = "{70, 81}";
type = Stem;
},
{
horizontal = 1;
place = "{72, 70}";
type = Stem;
},
{
horizontal = 1;
place = "{500, 74}";
type = Stem;
},
{
horizontal = 1;
place = "{500, 155}";
type = Stem;
},
{
horizontal = 1;
place = "{-14, 21}";
target = up;
type = BottomGhost;
}
);
layerId = "1038C536-374A-461C-9C15-505D839D4AAF";
paths = (
{
closed = 1;
nodes = (
"260 151 LINE",
"192 184 OFFCURVE",
"151 239 OFFCURVE",
"151 325 CURVE SMOOTH",
"151 431 OFFCURVE",
"207 494 OFFCURVE",
"299 500 CURVE"
);
},
{
closed = 1;
nodes = (
"478 518 LINE",
"443 544 OFFCURVE",
"406 562 OFFCURVE",
"370 569 CURVE",
"378 655 LINE",
"315 655 LINE",
"306 574 LINE",
"164 567 OFFCURVE",
"70 463 OFFCURVE",
"70 321 CURVE SMOOTH",
"70 207 OFFCURVE",
"143 111 OFFCURVE",
"252 81 CURVE",
"240 -14 LINE",
"305 -14 LINE",
"316 72 LINE",
"385 72 OFFCURVE",
"437 95 OFFCURVE",
"477 134 CURVE",
"477 218 LINE",
"436 176 OFFCURVE",
"379 142 OFFCURVE",
"321 142 CURVE",
"360 494 LINE",
"410 489 OFFCURVE",
"455 461 OFFCURVE",
"478 435 CURVE"
);
}
);
width = 553;
}
);
unicode = 00A2;
},
{
color = (153, 255, 154, 255);
glyphname = sterling;
layers = (
{
hints = (
{
horizontal = 1;
place = "{0, 153}";
type = Stem;
},
{
horizontal = 1;
place = "{263, 136}";
type = Stem;
},
{
horizontal = 1;
place = "{539, 173}";
type = Stem;
},
{
place = "{126, 193}";
type = Stem;
}
);
layerId = "5489E6BA-21ED-4BE5-8B01-6EB821105F89";
paths = (
{
closed = 1;
nodes = (
"535 399 LINE",
"319 399 LINE",
"319 450 LINE SMOOTH",
"319 505 OFFCURVE",
"349 539 OFFCURVE",
"399 539 CURVE SMOOTH",
"431 539 OFFCURVE",
"459 526 OFFCURVE",
"490 494 CURVE",
"619 611 LINE",
"567 669 OFFCURVE",
"495 712 OFFCURVE",
"386 712 CURVE SMOOTH",
"220 712 OFFCURVE",
"126 611 OFFCURVE",
"126 450 CURVE SMOOTH",
"126 399 LINE",
"51 399 LINE",
"51 263 LINE",
"126 263 LINE",
"126 0 LINE",
"612 0 LINE",
"612 153 LINE",
"319 153 LINE",
"319 263 LINE",
"535 263 LINE"
);
}
);
width = 671;
},
{
hints = (
{
horizontal = 1;
place = "{0, 73}";
type = Stem;
},
{
horizontal = 1;
place = "{305, 68}";
type = Stem;
},
{
horizontal = 1;
place = "{640, 77}";
type = Stem;
},
{
place = "{125, 86}";
type = Stem;
}
);
layerId = "1038C536-374A-461C-9C15-505D839D4AAF";
paths = (
{
closed = 1;
nodes = (
"461 373 LINE",
"211 373 LINE",
"211 475 LINE SMOOTH",
"211 564 OFFCURVE",
"249 640 OFFCURVE",
"348 640 CURVE SMOOTH",
"418 640 OFFCURVE",
"457 611 OFFCURVE",
"493 566 CURVE",
"549 620 LINE",
"503 678 OFFCURVE",
"438 717 OFFCURVE",
"350 717 CURVE SMOOTH",
"205 717 OFFCURVE",
"125 615 OFFCURVE",
"125 476 CURVE SMOOTH",
"125 373 LINE",
"59 373 LINE",
"59 305 LINE",
"125 305 LINE",
"125 0 LINE",
"541 0 LINE",
"541 73 LINE",
"211 73 LINE",
"211 305 LINE",
"461 305 LINE"
);
}
);
width = 593;
}
);
unicode = 00A3;
},
{
color = (153, 255, 154, 255);
glyphname = currency;
layers = (
{
hints = (
{
horizontal = 1;
place = "{69, 115}";
type = Stem;
},
{
horizontal = 1;
place = "{475, 114}";
type = Stem;
},
{
horizontal = 1;
place = "{639, -20}";
target = down;
type = TopGhost;
},
{
horizontal = 1;
place = "{15, 21}";
target = up;
type = BottomGhost;
},
{
place = "{66, 123}";
type = Stem;
},
{
place = "{467, 125}";
type = Stem;
}
);
layerId = "5489E6BA-21ED-4BE5-8B01-6EB821105F89";
paths = (
{
closed = 1;
nodes = (
"561 639 LINE",
"470 550 LINE",
"430 575 OFFCURVE",
"382 589 OFFCURVE",
"329 589 CURVE SMOOTH",
"274 589 OFFCURVE",
"231 576 OFFCURVE",
"187 549 CURVE",
"93 639 LINE",
"15 560 LINE",
"106 469 LINE",
"77 426 OFFCURVE",
"66 377 OFFCURVE",
"66 329 CURVE SMOOTH",
"66 277 OFFCURVE",
"81 228 OFFCURVE",
"108 188 CURVE",
"15 94 LINE",
"93 15 LINE",
"190 109 LINE",
"234 82 OFFCURVE",
"278 69 OFFCURVE",
"329 69 CURVE SMOOTH",
"381 69 OFFCURVE",
"427 84 OFFCURVE",
"468 108 CURVE",
"562 15 LINE",
"641 94 LINE",
"550 185 LINE",
"578 227 OFFCURVE",
"592 275 OFFCURVE",
"592 329 CURVE SMOOTH",
"592 383 OFFCURVE",
"577 427 OFFCURVE",
"551 470 CURVE",
"641 560 LINE"
);
},
{
closed = 1;
nodes = (
"411 474 OFFCURVE",
"467 410 OFFCURVE",
"467 329 CURVE SMOOTH",
"467 249 OFFCURVE",
"411 184 OFFCURVE",
"329 184 CURVE SMOOTH",
"247 184 OFFCURVE",
"191 249 OFFCURVE",
"191 329 CURVE SMOOTH",
"191 410 OFFCURVE",
"247 474 OFFCURVE",
"329 474 CURVE SMOOTH"
);
}
);
width = 655;
},
{
hints = (
{
horizontal = 1;
place = "{74, 75}";
type = Stem;
},
{
horizontal = 1;
place = "{507, 75}";
type = Stem;
},
{
horizontal = 1;
place = "{624, -20}";
target = down;
type = TopGhost;
},
{
horizontal = 1;
place = "{27, 21}";
target = up;
type = BottomGhost;
},
{
place = "{76, 80}";
type = Stem;
},
{
place = "{503, 83}";
type = Stem;
}
);
layerId = "1038C536-374A-461C-9C15-505D839D4AAF";
paths = (
{
closed = 1;
nodes = (
"578 624 LINE",
"484 531 LINE",
"441 564 OFFCURVE",
"388 582 OFFCURVE",
"330 582 CURVE SMOOTH",
"275 582 OFFCURVE",
"219 564 OFFCURVE",
"174 530 CURVE",
"79 624 LINE",
"30 574 LINE",
"124 481 LINE",
"90 432 OFFCURVE",
"76 390 OFFCURVE",
"76 328 CURVE SMOOTH",
"76 264 OFFCURVE",
"93 217 OFFCURVE",
"127 174 CURVE",
"30 77 LINE",
"79 27 LINE",
"177 123 LINE",
"224 90 OFFCURVE",
"274 74 OFFCURVE",
"330 74 CURVE SMOOTH",
"386 74 OFFCURVE",
"436 90 OFFCURVE",
"483 122 CURVE",
"579 27 LINE",
"629 77 LINE",
"534 171 LINE",
"567 216 OFFCURVE",
"586 267 OFFCURVE",
"586 328 CURVE SMOOTH",
"586 389 OFFCURVE",
"568 434 OFFCURVE",
"536 483 CURVE",
"629 574 LINE"
);
},
{
closed = 1;
nodes = (
"433 507 OFFCURVE",
"503 430 OFFCURVE",
"503 327 CURVE SMOOTH",
"503 228 OFFCURVE",
"433 149 OFFCURVE",
"330 149 CURVE SMOOTH",
"227 149 OFFCURVE",
"156 229 OFFCURVE",
"156 328 CURVE SMOOTH",
"156 427 OFFCURVE",
"227 507 OFFCURVE",
"330 507 CURVE SMOOTH"
);
}
);
width = 656;
}
);
unicode = 00A4;
},
{
color = (153, 255, 154, 255);
glyphname = yen;
layers = (
{
hints = (
{
horizontal = 1;
place = "{263, 120}";
type = Stem;
},
{
horizontal = 1;
place = "{93, 120}";
type = Stem;
},
{
horizontal = 1;
place = "{0, 21}";
target = up;
type = BottomGhost;
},
{
horizontal = 1;
place = "{700, -20}";
target = down;
type = TopGhost;
},
{
place = "{250, 192}";
type = Stem;
}
);
layerId = "5489E6BA-21ED-4BE5-8B01-6EB821105F89";
paths = (
{
closed = 1;
nodes = (
"66 213 LINE",
"66 93 LINE",
"250 93 LINE",
"250 0 LINE",
"442 0 LINE",
"442 93 LINE",
"626 93 LINE",
"626 213 LINE",
"442 213 LINE",
"452 263 LINE",
"626 263 LINE",
"626 383 LINE",
"487 383 LINE",
"696 700 LINE",
"480 700 LINE",
"348 470 LINE",
"216 700 LINE",
"-4 700 LINE",
"204 383 LINE",
"66 383 LINE",
"66 263 LINE",
"240 263 LINE",
"250 213 LINE"
);
}
);
width = 691;
},
{
hints = (
{
horizontal = 1;
place = "{303, 67}";
type = Stem;
},
{
horizontal = 1;
place = "{146, 66}";
type = Stem;
},
{
horizontal = 1;
place = "{0, 21}";
target = up;
type = BottomGhost;
},
{
place = "{271, 81}";
type = Stem;
}
);
layerId = "1038C536-374A-461C-9C15-505D839D4AAF";
paths = (
{
closed = 1;
nodes = (
"86 213 LINE",
"86 146 LINE",
"271 146 LINE",
"271 0 LINE",
"352 0 LINE",
"352 146 LINE",
"536 146 LINE",
"536 213 LINE",
"354 213 LINE",
"360 303 LINE",
"536 303 LINE",
"536 370 LINE",
"392 370 LINE",
"606 705 LINE",
"511 705 LINE",
"314 372 LINE",
"115 705 LINE",
"17 705 LINE",
"231 370 LINE",
"86 370 LINE",
"86 303 LINE",
"262 303 LINE",
"272 213 LINE"
);
}
);
width = 622;
}
);
unicode = 00A5;
},
{
color = (153, 255, 154, 255);
glyphname = brokenbar;
layers = (
{
hints = (
{
horizontal = 1;
place = "{667, -20}";
target = down;
type = TopGhost;
},
{
horizontal = 1;
place = "{-173, 21}";
target = up;
type = BottomGhost;
},
{
place = "{93, 167}";
type = Stem;
}
);
layerId = "5489E6BA-21ED-4BE5-8B01-6EB821105F89";
paths = (
{
closed = 1;
nodes = (
"93 667 LINE",
"93 321 LINE",
"260 321 LINE",
"260 667 LINE"
);
},
{
closed = 1;
nodes = (
"93 173 LINE",
"93 -173 LINE",
"260 -173 LINE",
"260 173 LINE"
);
}
);
width = 354;
},
{
hints = (
{
horizontal = 1;
place = "{681, -20}";
target = down;
type = TopGhost;
},
{
horizontal = 1;
place = "{-174, 21}";
target = up;
type = BottomGhost;
},
{
place = "{90, 76}";
type = Stem;
}
);
layerId = "1038C536-374A-461C-9C15-505D839D4AAF";
paths = (
{
closed = 1;
nodes = (
"90 681 LINE",
"90 328 LINE",
"166 328 LINE",
"166 681 LINE"
);
},
{
closed = 1;
nodes = (
"90 173 LINE",
"90 -174 LINE",
"166 -174 LINE",
"166 173 LINE"
);
}
);
width = 256;
}
);
unicode = 00A6;
},
{
color = (153, 255, 154, 255);
glyphname = section;
layers = (
{
hints = (
{
horizontal = 1;
place = "{-13, 129}";
type = Stem;
},
{
horizontal = 1;
place = "{584, 129}";
type = Stem;
},
{
place = "{41, 145}";
type = Stem;
},
{
place = "{437, 146}";
type = Stem;
}
);
layerId = "5489E6BA-21ED-4BE5-8B01-6EB821105F89";
paths = (
{
closed = 1;
nodes = (
"476 681 LINE",
"430 702 OFFCURVE",
"377 713 OFFCURVE",
"316 713 CURVE SMOOTH",
"162 713 OFFCURVE",
"85 641 OFFCURVE",
"85 552 CURVE",
"85 511 OFFCURVE",
"102 474 OFFCURVE",
"133 451 CURVE",
"79 432 OFFCURVE",
"41 394 OFFCURVE",
"41 345 CURVE",
"41 262 OFFCURVE",
"146 218 OFFCURVE",
"270 194 CURVE",
"337 179 OFFCURVE",
"366 165 OFFCURVE",
"366 146 CURVE",
"366 128 OFFCURVE",
"351 116 OFFCURVE",
"312 116 CURVE SMOOTH",
"259 116 OFFCURVE",
"199 139 OFFCURVE",
"149 175 CURVE",
"149 18 LINE",
"194 0 OFFCURVE",
"251 -13 OFFCURVE",
"309 -13 CURVE SMOOTH",
"463 -13 OFFCURVE",
"539 60 OFFCURVE",
"539 149 CURVE",
"539 190 OFFCURVE",
"521 227 OFFCURVE",
"492 249 CURVE",
"545 268 OFFCURVE",
"583 304 OFFCURVE",
"583 355 CURVE",
"583 443 OFFCURVE",
"479 477 OFFCURVE",
"355 506 CURVE SMOOTH",
"284 523 OFFCURVE",
"259 535 OFFCURVE",
"259 554 CURVE",
"259 573 OFFCURVE",
"275 584 OFFCURVE",
"312 584 CURVE SMOOTH",
"367 584 OFFCURVE",
"425 561 OFFCURVE",
"476 525 CURVE"
);
},
{
closed = 1;
nodes = (
"437 312 OFFCURVE",
"416 297 OFFCURVE",
"386 297 CURVE SMOOTH",
"337 297 OFFCURVE",
"187 319 OFFCURVE",
"187 371 CURVE",
"187 392 OFFCURVE",
"208 403 OFFCURVE",
"238 403 CURVE SMOOTH",
"288 403 OFFCURVE",
"437 373 OFFCURVE",
"437 332 CURVE SMOOTH"
);
}
);
width = 622;
},
{
hints = (
{
place = "{62, 75}";
type = Stem;
},
{
place = "{113, 82}";
type = Stem;
},
{
place = "{402, 81}";
type = Stem;
},
{
place = "{456, 77}";
type = Stem;
},
{
horizontal = 1;
place = "{-86, 68}";
type = Stem;
},
{
horizontal = 1;
place = "{654, 68}";
type = Stem;
}
);
layerId = "1038C536-374A-461C-9C15-505D839D4AAF";
paths = (
{
closed = 1;
nodes = (
"457 668 LINE",
"417 701 OFFCURVE",
"361 722 OFFCURVE",
"296 722 CURVE SMOOTH",
"193 722 OFFCURVE",
"113 666 OFFCURVE",
"113 584 CURVE SMOOTH",
"113 531 OFFCURVE",
"148 491 OFFCURVE",
"186 464 CURVE",
"105 445 OFFCURVE",
"62 402 OFFCURVE",
"62 334 CURVE SMOOTH",
"62 268 OFFCURVE",
"104 216 OFFCURVE",
"244 173 CURVE SMOOTH",
"344 142 OFFCURVE",
"401 105 OFFCURVE",
"401 59 CURVE SMOOTH",
"401 9 OFFCURVE",
"361 -18 OFFCURVE",
"299 -18 CURVE SMOOTH",
"234 -18 OFFCURVE",
"174 5 OFFCURVE",
"129 55 CURVE",
"129 -25 LINE",
"172 -62 OFFCURVE",
"228 -86 OFFCURVE",
"298 -86 CURVE SMOOTH",
"404 -86 OFFCURVE",
"483 -26 OFFCURVE",
"483 62 CURVE SMOOTH",
"483 107 OFFCURVE",
"459 145 OFFCURVE",
"412 179 CURVE",
"489 199 OFFCURVE",
"533 239 OFFCURVE",
"533 309 CURVE SMOOTH",
"533 373 OFFCURVE",
"503 416 OFFCURVE",
"346 470 CURVE SMOOTH",
"229 510 OFFCURVE",
"195 548 OFFCURVE",
"195 583 CURVE SMOOTH",
"195 631 OFFCURVE",
"240 654 OFFCURVE",
"302 654 CURVE SMOOTH",
"363 654 OFFCURVE",
"407 631 OFFCURVE",
"457 588 CURVE"
);
},
{
closed = 1;
nodes = (
"456 247 OFFCURVE",
"418 218 OFFCURVE",
"358 218 CURVE",
"227 237 OFFCURVE",
"139 284 OFFCURVE",
"139 345 CURVE SMOOTH",
"139 391 OFFCURVE",
"181 417 OFFCURVE",
"240 424 CURVE",
"301 413 OFFCURVE",
"456 367 OFFCURVE",
"456 287 CURVE SMOOTH"
);
}
);
width = 594;
}
);
unicode = 00A7;
},
{
color = (153, 255, 154, 255);
glyphname = dieresis;
layers = (
{
hints = (
{
horizontal = 1;
place = "{576, 171}";
type = Stem;
},
{
place = "{-42, 176}";
type = Stem;
},
{
place = "{184, 176}";
type = Stem;
}
);
layerId = "5489E6BA-21ED-4BE5-8B01-6EB821105F89";
paths = (
{
closed = 1;
nodes = (
"-42 606 OFFCURVE",
"-3 576 OFFCURVE",
"46 576 CURVE",
"95 576 OFFCURVE",
"134 606 OFFCURVE",
"134 662 CURVE",
"134 718 OFFCURVE",
"95 747 OFFCURVE",
"46 747 CURVE",
"-3 747 OFFCURVE",
"-42 718 OFFCURVE",
"-42 662 CURVE SMOOTH"
);
},
{
closed = 1;
nodes = (
"184 606 OFFCURVE",
"223 576 OFFCURVE",
"272 576 CURVE",
"321 576 OFFCURVE",
"360 606 OFFCURVE",
"360 662 CURVE",
"360 718 OFFCURVE",
"321 747 OFFCURVE",
"272 747 CURVE",
"223 747 OFFCURVE",
"184 718 OFFCURVE",
"184 662 CURVE SMOOTH"
);
}
);
width = 319;
},
{
hints = (
{
horizontal = 1;
place = "{504, 118}";
type = Stem;
},
{
place = "{7, 119}";
type = Stem;
},
{
place = "{199, 116}";
type = Stem;
}
);
layerId = "1038C536-374A-461C-9C15-505D839D4AAF";
paths = (
{
closed = 1;
nodes = (
"7 530 OFFCURVE",
"32 504 OFFCURVE",
"66 504 CURVE SMOOTH",
"98 504 OFFCURVE",
"126 530 OFFCURVE",
"126 563 CURVE SMOOTH",
"126 595 OFFCURVE",
"98 622 OFFCURVE",
"66 622 CURVE SMOOTH",
"32 622 OFFCURVE",
"7 595 OFFCURVE",
"7 563 CURVE SMOOTH"
);
},
{
closed = 1;
nodes = (
"199 530 OFFCURVE",
"224 504 OFFCURVE",
"256 504 CURVE SMOOTH",
"290 504 OFFCURVE",
"315 530 OFFCURVE",
"315 563 CURVE SMOOTH",
"315 595 OFFCURVE",
"290 622 OFFCURVE",
"256 622 CURVE SMOOTH",
"224 622 OFFCURVE",
"199 595 OFFCURVE",
"199 563 CURVE SMOOTH"
);
}
);
width = 323;
}
);
unicode = 00A8;
},
{
color = (153, 255, 154, 255);
glyphname = copyright;
layers = (
{
hints = (
{
horizontal = 1;
place = "{-14, 40}";
type = Stem;
},
{
horizontal = 1;
place = "{155, 112}";
type = Stem;
},
{
horizontal = 1;
place = "{441, 113}";
type = Stem;
},
{
horizontal = 1;
place = "{674, 40}";
type = Stem;
},
{
place = "{31, 42}";
type = Stem;
},
{
place = "{197, 131}";
type = Stem;
},
{
place = "{713, 42}";
type = Stem;
}
);
layerId = "5489E6BA-21ED-4BE5-8B01-6EB821105F89";
paths = (
{
closed = 1;
nodes = (
"595 -14 OFFCURVE",
"755 155 OFFCURVE",
"755 353 CURVE",
"755 549 OFFCURVE",
"597 714 OFFCURVE",
"394 714 CURVE SMOOTH",
"191 714 OFFCURVE",
"31 547 OFFCURVE",
"31 351 CURVE SMOOTH",
"31 153 OFFCURVE",
"189 -14 OFFCURVE",
"392 -14 CURVE SMOOTH"
);
},
{
closed = 1;
nodes = (
"210 26 OFFCURVE",
"73 173 OFFCURVE",
"73 351 CURVE SMOOTH",
"73 527 OFFCURVE",
"211 674 OFFCURVE",
"394 674 CURVE SMOOTH",
"576 674 OFFCURVE",
"713 529 OFFCURVE",
"713 353 CURVE",
"713 175 OFFCURVE",
"575 26 OFFCURVE",
"392 26 CURVE SMOOTH"
);
},
{
closed = 1;
nodes = (
"505 304 LINE",
"484 286 OFFCURVE",
"454 268 OFFCURVE",
"415 268 CURVE SMOOTH",
"369 268 OFFCURVE",
"328 306 OFFCURVE",
"328 355 CURVE SMOOTH",
"328 403 OFFCURVE",
"368 441 OFFCURVE",
"418 441 CURVE SMOOTH",
"453 441 OFFCURVE",
"481 424 OFFCURVE",
"502 405 CURVE",
"502 534 LINE",
"477 547 OFFCURVE",
"446 554 OFFCURVE",
"413 554 CURVE SMOOTH",
"292 554 OFFCURVE",
"197 462 OFFCURVE",
"197 355 CURVE SMOOTH",
"197 247 OFFCURVE",
"293 155 OFFCURVE",
"407 155 CURVE SMOOTH",
"448 155 OFFCURVE",
"481 168 OFFCURVE",
"505 178 CURVE"
);
}
);
width = 786;
},
{
hints = (
{
horizontal = 1;
place = "{-53, 65}";
type = Stem;
},
{
horizontal = 1;
place = "{106, 71}";
type = Stem;
},
{
horizontal = 1;
place = "{495, 72}";
type = Stem;
},
{
horizontal = 1;
place = "{664, 64}";
type = Stem;
},
{
place = "{38, 68}";
type = Stem;
},
{
place = "{218, 82}";
type = Stem;
},
{
place = "{758, 69}";
type = Stem;
}
);
layerId = "1038C536-374A-461C-9C15-505D839D4AAF";
paths = (
{
closed = 1;
nodes = (
"651 -63 OFFCURVE",
"825 111 OFFCURVE",
"825 331 CURVE SMOOTH",
"825 550 OFFCURVE",
"648 726 OFFCURVE",
"434 726 CURVE SMOOTH",
"220 726 OFFCURVE",
"44 548 OFFCURVE",
"44 335 CURVE SMOOTH",
"44 113 OFFCURVE",
"215 -63 OFFCURVE",
"435 -63 CURVE SMOOTH"
);
},
{
closed = 1;
nodes = (
"253 6 OFFCURVE",
"109 153 OFFCURVE",
"109 333 CURVE SMOOTH",
"109 512 OFFCURVE",
"255 657 OFFCURVE",
"435 657 CURVE SMOOTH",
"613 657 OFFCURVE",
"760 511 OFFCURVE",
"760 331 CURVE SMOOTH",
"760 151 OFFCURVE",
"614 6 OFFCURVE",
"435 6 CURVE SMOOTH"
);
},
{
closed = 1;
nodes = (
"566 231 LINE",
"519 189 OFFCURVE",
"476 178 OFFCURVE",
"443 178 CURVE SMOOTH",
"355 178 OFFCURVE",
"300 249 OFFCURVE",
"300 339 CURVE SMOOTH",
"300 428 OFFCURVE",
"360 495 OFFCURVE",
"440 495 CURVE SMOOTH",
"486 495 OFFCURVE",
"535 474 OFFCURVE",
"568 441 CURVE",
"568 522 LINE",
"541 543 OFFCURVE",
"493 567 OFFCURVE",
"434 567 CURVE SMOOTH",
"303 567 OFFCURVE",
"218 469 OFFCURVE",
"218 339 CURVE SMOOTH",
"218 207 OFFCURVE",
"305 106 OFFCURVE",
"432 106 CURVE SMOOTH",
"487 106 OFFCURVE",
"530 125 OFFCURVE",
"566 157 CURVE"
);
}
);
width = 865;
}
);
unicode = 00A9;
},
